<?xml version="1.0" encoding="UTF-8"?>
<svg xmlns="http://www.w3.org/2000/svg" viewBox="0 0 71.04 27">
  <g id="_лой_1" data-name="Слой 1"/>
  <g id="_лой_2" data-name="Слой 2">
    <g id="_лой_2-2" data-name="Слой 2">
      <g>
        <g>
          <path d="M3.9,26.79h-.64v-1.03H.64v1.03H0v-1.63H.43c.19-.46,.32-.94,.4-1.43,.07-.49,.11-1.18,.11-2.05v-.26H3.39v3.74h.51v1.63Zm-1.16-1.63v-3.15H1.57v.21c0,.7-.04,1.25-.11,1.66-.07,.41-.19,.83-.36,1.28h1.63Z" style="fill: #172a47;"/>
          <path d="M7.01,24.2c0,.31-.03,.56-.08,.75-.05,.18-.15,.35-.28,.48-.23,.24-.54,.37-.92,.37s-.68-.12-.92-.37c-.13-.14-.22-.3-.28-.48-.06-.18-.08-.43-.08-.73s.03-.54,.08-.73c.06-.18,.15-.35,.28-.48,.23-.24,.54-.37,.92-.37s.69,.12,.92,.37c.13,.13,.22,.29,.28,.48,.05,.18,.08,.43,.08,.72Zm-.61,.02c0-.41-.06-.69-.19-.83-.12-.13-.28-.2-.47-.2s-.36,.07-.47,.21c-.13,.15-.19,.43-.19,.84s.07,.66,.2,.81c.11,.13,.26,.19,.46,.19s.36-.07,.48-.21c.13-.15,.19-.42,.19-.81Z" style="fill: #172a47;"/>
          <path d="M10.36,24.22c0,.63-.11,1.06-.34,1.29-.19,.19-.44,.28-.76,.28-.17,0-.32-.03-.44-.08-.12-.05-.23-.14-.35-.27v1.56h-.62v-4.33h.61v.32c.13-.13,.25-.23,.36-.28,.11-.05,.26-.08,.43-.08,.57,0,.92,.27,1.04,.8,.04,.2,.07,.46,.07,.79Zm-.76,.78c.1-.16,.15-.42,.15-.79s-.05-.63-.15-.79c-.1-.16-.26-.23-.49-.23-.25,0-.42,.1-.52,.3-.08,.16-.12,.41-.12,.75s.05,.61,.15,.77c.1,.16,.26,.23,.49,.23s.39-.08,.49-.24Z" style="fill: #172a47;"/>
          <path d="M13.62,24.2c0,.31-.03,.56-.08,.75-.05,.18-.15,.35-.28,.48-.23,.24-.54,.37-.92,.37s-.68-.12-.92-.37c-.13-.14-.22-.3-.28-.48-.06-.18-.08-.43-.08-.73s.03-.54,.08-.73c.06-.18,.15-.35,.28-.48,.23-.24,.54-.37,.92-.37s.69,.12,.92,.37c.13,.13,.22,.29,.28,.48,.05,.18,.08,.43,.08,.72Zm-.61,.02c0-.41-.06-.69-.19-.83-.12-.13-.28-.2-.47-.2s-.36,.07-.47,.21c-.13,.15-.19,.43-.19,.84s.07,.66,.2,.81c.11,.13,.26,.19,.46,.19s.36-.07,.48-.21c.13-.15,.19-.42,.19-.81Z" style="fill: #172a47;"/>
          <path d="M18.34,25.75h-.73l-.76-1.32-.4,.51v.82h-.62v-.82l-.4-.51-.76,1.32h-.73l1.09-1.81-.98-1.28h.73l1.05,1.47v-1.47h.62v1.47l1.05-1.47h.72l-.98,1.28,1.09,1.81Z" style="fill: #172a47;"/>
          <path d="M21.35,25.75h-.62v-1.32h-1.22v1.32h-.62v-3.09h.62v1.23h1.22v-1.23h.62v3.09Z" style="fill: #172a47;"/>
          <path d="M24.74,24.2c0,.31-.03,.56-.08,.75-.05,.18-.15,.35-.28,.48-.23,.24-.54,.37-.92,.37s-.68-.12-.92-.37c-.13-.14-.22-.3-.28-.48-.06-.18-.08-.43-.08-.73s.03-.54,.08-.73c.06-.18,.15-.35,.28-.48,.23-.24,.54-.37,.92-.37s.69,.12,.92,.37c.13,.13,.22,.29,.28,.48,.05,.18,.08,.43,.08,.72Zm-.61,.02c0-.41-.06-.69-.19-.83-.12-.13-.28-.2-.47-.2s-.36,.07-.47,.21c-.13,.15-.19,.43-.19,.84s.07,.66,.2,.81c.11,.13,.26,.19,.46,.19s.36-.07,.48-.21c.13-.15,.19-.42,.19-.81Z" style="fill: #172a47;"/>
          <path d="M28.03,24.4h-1.99c.01,.58,.28,.86,.81,.86,.26,0,.5-.11,.72-.32l.39,.37c-.18,.17-.35,.3-.52,.37-.17,.07-.37,.11-.62,.11-.46,0-.81-.13-1.04-.4-.23-.27-.35-.67-.35-1.19,0-.48,.12-.86,.35-1.14,.23-.28,.55-.42,.95-.42s.71,.13,.95,.4c.23,.27,.35,.63,.35,1.08v.28Zm-.61-.44c-.04-.54-.27-.81-.69-.81-.23,0-.4,.08-.51,.23-.11,.15-.17,.35-.18,.58h1.38Z" style="fill: #172a47;"/>
          <path d="M32.73,25.75h-.74l-.65-1.05-.65,1.05h-.75l1.06-1.58-1.01-1.51h.75l.61,1,.61-1h.74l-1.01,1.51,1.06,1.58Z" style="fill: #172a47;"/>
          <path d="M35.7,24.2c0,.31-.03,.56-.08,.75-.05,.18-.15,.35-.28,.48-.23,.24-.54,.37-.92,.37s-.68-.12-.92-.37c-.13-.14-.22-.3-.28-.48-.06-.18-.08-.43-.08-.73s.03-.54,.08-.73c.06-.18,.15-.35,.28-.48,.23-.24,.54-.37,.92-.37s.69,.12,.92,.37c.13,.13,.22,.29,.28,.48,.05,.18,.08,.43,.08,.72Zm-.61,.02c0-.41-.06-.69-.19-.83-.12-.13-.28-.2-.47-.2s-.36,.07-.47,.21c-.13,.15-.19,.43-.19,.84s.07,.66,.2,.81c.11,.13,.26,.19,.46,.19s.36-.07,.48-.21c.13-.15,.19-.42,.19-.81Z" style="fill: #172a47;"/>
          <path d="M38.66,24.86c0,.28-.11,.5-.34,.67-.23,.17-.5,.26-.83,.26-.54,0-.97-.15-1.29-.44l.37-.4c.22,.21,.5,.31,.84,.31,.17,0,.32-.04,.45-.12,.13-.08,.2-.19,.2-.32,0-.28-.18-.41-.53-.41h-.46v-.47h.45c.15,0,.27-.04,.36-.11,.09-.07,.13-.17,.13-.3s-.05-.22-.16-.29c-.11-.07-.25-.1-.44-.1-.27,0-.52,.08-.74,.24l-.35-.4c.3-.23,.7-.35,1.19-.35,.31,0,.57,.07,.79,.22,.21,.15,.32,.35,.32,.61,0,.15-.04,.29-.12,.41-.08,.12-.19,.21-.33,.27,.15,.06,.27,.15,.36,.28s.14,.28,.14,.44Z" style="fill: #172a47;"/>
          <path d="M41.77,25.75h-.62v-1.13h-.56l-.58,1.13h-.73l.69-1.25c-.2-.06-.36-.16-.47-.32-.12-.16-.18-.34-.18-.56,0-.28,.09-.51,.28-.69,.19-.18,.43-.27,.72-.27h1.45v3.09Zm-.61-1.64v-.93h-.73c-.15,0-.27,.04-.36,.12-.09,.08-.13,.2-.13,.34s.04,.25,.13,.34c.09,.08,.21,.12,.36,.12h.73Z" style="fill: #172a47;"/>
          <path d="M45.31,25.75h-.62v-2.12l-1.32,2.12h-.62v-3.09h.62v2.09l1.32-2.09h.62v3.09Zm-.3-4.37c-.08,.56-.41,.85-.98,.85s-.9-.28-.98-.85h.44c.06,.26,.24,.4,.54,.4s.47-.13,.53-.4h.45Z" style="fill: #172a47;"/>
          <path d="M48.52,25.35c-.16,.16-.31,.27-.45,.33-.15,.07-.34,.1-.55,.1-.43,0-.77-.14-1.01-.42-.24-.28-.36-.67-.36-1.18s.12-.87,.37-1.15c.24-.28,.58-.42,1.01-.42,.21,0,.39,.03,.55,.1,.15,.06,.3,.18,.45,.33l-.42,.41c-.1-.11-.19-.18-.28-.23-.08-.04-.19-.07-.32-.07-.5,0-.75,.34-.75,1.02s.25,1.03,.75,1.03c.13,0,.23-.02,.31-.07,.08-.04,.17-.12,.28-.23l.42,.41Z" style="fill: #172a47;"/>
          <path d="M51.34,23.21h-.94v2.54h-.62v-2.54h-.98v-.54h2.53v.54Z" style="fill: #172a47;"/>
          <path d="M54.35,24.88c0,.27-.08,.48-.25,.64-.17,.16-.39,.23-.68,.23h-1.52v-3.09h1.47c.28,0,.51,.08,.68,.23,.17,.15,.25,.35,.25,.6,0,.31-.14,.53-.43,.66,.32,.15,.48,.39,.48,.72Zm-.65-1.35c0-.12-.04-.22-.12-.28-.08-.07-.19-.1-.34-.1h-.73v.78h.73c.3,0,.45-.13,.45-.4Zm.05,1.3c0-.13-.04-.24-.12-.31-.08-.08-.2-.11-.34-.11h-.76v.86h.76c.15,0,.26-.04,.34-.12,.08-.08,.12-.18,.12-.31Z" style="fill: #172a47;"/>
          <path d="M57.62,24.2c0,.31-.03,.56-.08,.75-.05,.18-.15,.35-.28,.48-.23,.24-.54,.37-.92,.37s-.68-.12-.92-.37c-.13-.14-.22-.3-.28-.48-.06-.18-.08-.43-.08-.73s.03-.54,.08-.73c.06-.18,.15-.35,.28-.48,.23-.24,.54-.37,.92-.37s.69,.12,.92,.37c.13,.13,.22,.29,.28,.48,.05,.18,.08,.43,.08,.72Zm-.61,.02c0-.41-.06-.69-.19-.83-.12-.13-.28-.2-.47-.2s-.36,.07-.47,.21c-.13,.15-.19,.43-.19,.84s.07,.66,.2,.81c.11,.13,.26,.19,.46,.19s.36-.07,.48-.21c.13-.15,.19-.42,.19-.81Z" style="fill: #172a47;"/>
        </g>
        <g>
          <path d="M12.64,3.09h-4.6v14.6h-3.44V3.09H0V.01H12.64V3.09Z" style="fill: #172a47;"/>
          <g>
            <path d="M49.81,.03s-.02,0,0,0c-1.81-.05-3.62-.04-5.43,.03-2.35,.09-5.01,.29-7.75,.66v.02c-.72,.09-1.45,.2-2.18,.31-4.69,.79-9.36,2.13-12.99,4.33-.95,.57-1.87,1.19-2.48,1.85V.13h-3.44V13.92s0,.07,0,.11c0,.04,0,.07,0,.11v3.61h3.4s.04-.24,.04-.36v-6.1c.81-2.17,2.7-4.05,5.3-5.63C30.62,1.84,40.29,.61,47.23,.35c1.81-.07,3.6-.09,5.42-.03-.72-.14-1.67-.23-2.84-.28Z" style="fill: #172a47;"/>
            <path d="M32.95,4.07s.09-.05,.14-.07c1.7-.82,3.52-1.39,5.36-1.85-2.34,.52-4.68,1.14-6.84,2.14-.05,.02-.1,.05-.15,.07-5.36,2.54-5.8,6.09-1.44,9.59,1.86,1.49,2.03,1.58,4.8,3.2h4.51c-3.02-1.22-5.43-2.65-7.16-3.95-4.46-3.33-4.5-6.53,.76-9.12Z" style="fill: #172a47;"/>
            <path d="M24.59,7.51l-.36-.21c-.43,.46-.79,.97-1.08,1.51l.62,.09c.2-.48,.48-.95,.81-1.39Z" style="fill: #172a47;"/>
            <path d="M23.67,12.74l-1.09,.05c.14,.66,.4,1.32,.79,1.95l1.23-.3c-.42-.55-.73-1.13-.93-1.71Z" style="fill: #172a47;"/>
            <path d="M22.45,11.65l.94-.04c-.08-.61-.05-1.22,.09-1.81l-.71-.1c-.22,.63-.33,1.29-.32,1.96Z" style="fill: #172a47;"/>
            <path d="M25.6,6.45s.04-.04,.07-.06c.13-.11,.27-.21,.41-.31l-.13-.13c-.33,.2-.66,.42-.97,.67-.02,.02-.05,.04-.07,.06-.05,.04-.09,.08-.14,.12l.3,.17c.17-.18,.35-.36,.55-.52Z" style="fill: #172a47;"/>
            <path d="M25.59,15.68l-1.37,.36c.31,.42,.49,.49,1.39,1.51h2.14c-.91-.61-1.58-1.26-2.16-1.87Z" style="fill: #172a47;"/>
            <path d="M26.36,5.71l.1,.1c.57-.37,1.15-.67,1.74-.93-.62,.24-1.24,.5-1.85,.83Z" style="fill: #172a47;"/>
          </g>
          <g>
            <path d="M50.49,15.45h-1.45v2.26h-2.78v-2.26h-6.48v-2.75L45.21,1.79h3.16l-5.43,10.91h3.32v-2.97h2.78v2.97h1.45v2.75Z" style="fill: #172a47;"/>
            <path d="M57.62,17.71h-2.89V4.92l-3.23,2.82v-3.13l3.23-2.82h2.89v15.92Z" style="fill: #172a47;"/>
            <path d="M69.03,9.5c.56,.42,.96,.78,1.2,1.1,.53,.72,.8,1.56,.8,2.53,0,1.4-.47,2.54-1.4,3.41-.94,.87-2.16,1.31-3.67,1.31s-2.74-.44-3.67-1.31c-.94-.87-1.4-2.01-1.4-3.41,0-1,.27-1.85,.82-2.55,.28-.36,.67-.72,1.16-1.07-.61-.45-1.05-.95-1.34-1.5-.3-.57-.45-1.18-.45-1.83,0-1.31,.46-2.39,1.38-3.24,.92-.85,2.09-1.27,3.5-1.27s2.55,.42,3.47,1.27c.92,.85,1.38,1.92,1.38,3.22,0,.67-.15,1.29-.45,1.86-.3,.57-.74,1.07-1.34,1.5Zm-.89,3.58c0-.64-.21-1.18-.63-1.61-.42-.43-.94-.65-1.55-.65s-1.12,.22-1.55,.65c-.42,.43-.63,.95-.63,1.57s.21,1.13,.63,1.55c.42,.42,.94,.64,1.55,.64s1.12-.21,1.55-.63c.42-.42,.63-.92,.63-1.52Zm-.22-6.75c0-.6-.19-1.09-.56-1.48-.37-.39-.84-.58-1.4-.58s-1.04,.19-1.41,.58c-.38,.39-.57,.86-.57,1.43s.19,1.06,.57,1.44c.38,.38,.85,.57,1.41,.57s1.03-.19,1.4-.57c.37-.38,.56-.85,.56-1.4Z" style="fill: #172a47;"/>
          </g>
        </g>
      </g>
    </g>
  </g>
</svg>