<?xml version="1.0" encoding="UTF-8"?>
<svg xmlns="http://www.w3.org/2000/svg" xmlns:xlink="http://www.w3.org/1999/xlink" viewBox="0 0 126.24 35.24">
  <defs>
    <style>
      .cls-1 {
        fill: url(#_езымянный_градиент_693);
      }

      .cls-2 {
        clip-path: url(#clippath-2);
      }

      .cls-3 {
        fill: #828282;
      }

      .cls-4 {
        fill: #d72129;
      }

      .cls-5 {
        clip-path: url(#clippath);
      }

      .cls-6 {
        fill: none;
      }

      .cls-7 {
        fill: #1973b4;
      }

      .cls-8 {
        fill: #030304;
      }

      .cls-9 {
        clip-path: url(#clippath-1);
      }
    </style>
    <clipPath id="clippath">
      <path id="SVGID" d="M34.05,12.79h2.17c.48,0,.84,.13,1.09,.4,.25,.27,.38,.61,.38,1.03s-.12,.75-.37,1.02c-.25,.27-.61,.4-1.1,.4h-2.17v-2.85Zm-2.13-1.91v10.69h2.13v-4.02h2.59c.5,0,.94-.1,1.33-.3,.39-.2,.71-.46,.98-.79,.26-.32,.46-.68,.6-1.07,.14-.39,.21-.79,.21-1.18s-.06-.77-.18-1.17c-.12-.4-.31-.76-.56-1.08-.25-.32-.57-.58-.96-.78-.38-.2-.84-.3-1.36-.3h-4.78Zm30.72,5.29l.82-2.78h.06l.84,2.82,.42,1.37h-2.57l.43-1.41Zm-.22-5.29l-3.76,10.69h2.27l.7-2.2h3.73l.65,2.2h2.31l-3.72-10.69h-2.17Zm30.65,5.29l.82-2.78h.06l.84,2.82,.42,1.37h-2.57l.43-1.41Zm-.22-5.29l-3.75,10.69h2.27l.7-2.2h3.72l.65,2.2h2.31l-3.72-10.69h-2.17Zm8.04,0v4.81c0,.66-.02,1.24-.07,1.72-.05,.48-.15,.9-.3,1.25-.15,.35-.36,.64-.63,.87-.27,.22-.63,.41-1.07,.56l.47,1.74c.76-.1,1.37-.31,1.85-.64,.48-.32,.86-.74,1.13-1.27,.27-.53,.45-1.16,.56-1.88,.1-.72,.16-1.53,.16-2.42v-2.84h2.79v8.78h2.16V10.88h-7.04Zm11.09,5.97h2.19c.48,0,.87,.13,1.15,.39,.28,.26,.43,.59,.43,1.01s-.14,.74-.43,1.01c-.28,.27-.66,.4-1.14,.4h-2.2v-2.81Zm-2.13-5.97v10.69h4.67c.59,0,1.09-.1,1.51-.3,.41-.2,.75-.46,1.01-.78,.26-.32,.46-.67,.58-1.07,.12-.39,.19-.79,.19-1.18,0-.48-.08-.92-.23-1.32-.15-.41-.38-.75-.67-1.04-.29-.29-.64-.52-1.05-.68-.41-.17-.88-.25-1.41-.25h-2.47v-4.06h-2.13Zm8.5,0v1.91h2.84v8.78h2.13V12.79h2.82v-1.91h-7.79Zm-65.05,.12c-.48,.15-.92,.36-1.3,.65-.38,.29-.68,.65-.91,1.08-.23,.43-.35,.93-.35,1.5v4c0,.58,.12,1.08,.36,1.51,.24,.43,.55,.79,.93,1.07,.38,.28,.82,.5,1.3,.64,.49,.15,.98,.22,1.49,.22,.63,0,1.23-.09,1.8-.28,.57-.19,1.05-.45,1.44-.78l-1.01-1.65c-.37,.29-.74,.49-1.11,.59-.37,.1-.73,.15-1.09,.15-.24,0-.47-.04-.71-.11-.23-.07-.44-.19-.64-.34-.19-.16-.35-.35-.46-.6-.12-.24-.18-.54-.18-.89v-3.12c0-.35,.06-.65,.18-.9,.12-.25,.27-.45,.46-.61,.19-.15,.4-.27,.63-.33,.24-.07,.48-.1,.72-.1,.36,0,.73,.05,1.12,.16,.38,.11,.74,.3,1.07,.58l1.02-1.65c-.41-.36-.91-.62-1.48-.79-.57-.16-1.17-.25-1.79-.25-.51,0-1,.07-1.49,.22m18.6,0c-.49,.15-.92,.36-1.3,.65-.38,.29-.68,.65-.92,1.08-.23,.43-.35,.93-.35,1.5v4c0,.58,.12,1.08,.36,1.51,.24,.43,.55,.79,.93,1.07,.38,.28,.82,.5,1.3,.64,.49,.15,.98,.22,1.49,.22,.63,0,1.23-.09,1.8-.28,.57-.19,1.05-.45,1.44-.78l-1.01-1.65c-.37,.29-.74,.49-1.11,.59-.37,.1-.73,.15-1.1,.15-.24,0-.47-.04-.7-.11-.23-.07-.44-.19-.64-.34-.19-.16-.35-.35-.47-.6-.12-.24-.18-.54-.18-.89v-3.12c0-.35,.06-.65,.18-.9,.12-.25,.27-.45,.46-.61,.19-.15,.4-.27,.64-.33,.24-.07,.47-.1,.71-.1,.36,0,.74,.05,1.12,.16,.38,.11,.74,.3,1.07,.58l1.02-1.65c-.41-.36-.91-.62-1.48-.79-.57-.16-1.17-.25-1.79-.25-.51,0-1,.07-1.49,.22m-27.74,8.62c-.24-.06-.45-.18-.64-.33-.19-.16-.34-.36-.45-.6-.11-.25-.17-.55-.17-.9v-3.12c0-.35,.06-.65,.17-.89,.11-.24,.26-.44,.45-.6,.19-.16,.4-.27,.64-.34,.24-.07,.48-.11,.73-.11s.49,.03,.72,.11c.23,.07,.44,.19,.63,.34,.19,.16,.34,.36,.45,.6,.11,.24,.17,.54,.17,.89v3.12c0,.35-.06,.65-.17,.9-.11,.25-.26,.45-.45,.6-.19,.16-.4,.27-.63,.33-.23,.07-.47,.1-.72,.1s-.49-.03-.73-.1m-.81-8.63c-.5,.15-.93,.36-1.32,.65-.38,.29-.69,.65-.91,1.09-.23,.43-.34,.94-.34,1.5v3.93c0,.58,.11,1.09,.33,1.52,.21,.43,.51,.8,.88,1.1,.37,.3,.81,.53,1.31,.67,.5,.15,1.03,.23,1.59,.23s1.09-.08,1.58-.23c.5-.15,.94-.37,1.31-.67,.37-.3,.67-.67,.88-1.1,.22-.43,.33-.94,.33-1.52v-3.86c0-.57-.11-1.07-.34-1.51-.23-.44-.53-.8-.91-1.1-.38-.29-.82-.52-1.32-.67-.5-.15-1.01-.23-1.53-.23s-1.04,.07-1.53,.21m38.06,7.6c-.26-.1-.48-.25-.67-.43-.19-.19-.34-.41-.46-.68s-.17-.57-.17-.9v-1.14c0-.33,.06-.63,.17-.9s.27-.5,.46-.69c.19-.19,.42-.34,.67-.44,.26-.1,.53-.16,.82-.17v5.52c-.29,0-.56-.07-.82-.17m2.95-5.35c.63,.02,1.14,.22,1.54,.61,.39,.39,.59,.92,.59,1.58v1.14c0,.67-.2,1.2-.6,1.58-.4,.38-.91,.58-1.52,.6v-5.52Zm-2.13-2.46v.56c-.58,.02-1.12,.13-1.64,.33-.51,.2-.96,.46-1.33,.8-.38,.34-.68,.74-.9,1.21-.22,.47-.33,.99-.33,1.55v1.51c0,.57,.1,1.09,.3,1.55,.2,.47,.49,.87,.85,1.21,.37,.34,.81,.62,1.33,.82,.52,.21,1.09,.33,1.72,.36v.9h2.13v-.9c.61,0,1.17-.12,1.69-.32,.52-.2,.96-.48,1.33-.83,.37-.35,.66-.77,.87-1.24,.21-.48,.31-1,.31-1.57v-1.49c0-.56-.11-1.07-.32-1.54-.21-.47-.51-.87-.88-1.21-.38-.34-.82-.61-1.34-.81-.51-.2-1.07-.31-1.67-.33v-.56h-2.13Z" style="fill: none;"/>
    </clipPath>
    <clipPath id="clippath-1">
      <path id="SVGID-2" data-name="SVGID" d="M21.46,.02L13.22,1.89,6.11,.6c-1.5-.27-2.93,.72-3.2,2.22l-.27,1.48-.03,.15L21.49,.16h.13c.27-.01,.52,.17,.59,.45l.3,1.31c.04,.16,0,.32-.08,.45-.09,.14-.22,.23-.38,.27L2.12,7.17v.08L.04,18.59c-.27,1.5,.72,2.93,2.22,3.2l15.77,2.86c1.5,.27,2.93-.72,3.21-2.22l2.86-15.77c.27-1.5-.72-2.94-2.22-3.2l-1.56-.28,1.76-.4c.4-.09,.65-.49,.56-.89l-.3-1.31c-.08-.35-.39-.58-.73-.58-.05,0-.11,0-.17,.02" style="fill: none;"/>
    </clipPath>
    <radialGradient id="_езымянный_градиент_693" data-name="Безымянный градиент 693" cx="-54.36" cy="32.02" fx="-54.36" fy="32.02" r="1.65" gradientTransform="translate(-274.01 498.37) rotate(90) scale(8.94 -8.94)" gradientUnits="userSpaceOnUse">
      <stop offset="0" stop-color="#595958"/>
      <stop offset="1" stop-color="#030303"/>
    </radialGradient>
    <clipPath id="clippath-2">
      <path id="SVGID-3" data-name="SVGID" d="M21.46,.02L13.22,1.89,6.11,.6c-1.5-.27-2.93,.72-3.2,2.22l-.27,1.48-.03,.15L21.49,.16h.13c.27-.01,.52,.17,.59,.45l.3,1.31c.04,.16,0,.32-.08,.45-.09,.14-.22,.23-.38,.27L2.12,7.17v.08L.04,18.59c-.27,1.5,.72,2.93,2.22,3.2l15.77,2.86c1.5,.27,2.93-.72,3.21-2.22l2.86-15.77c.27-1.5-.72-2.93-2.22-3.2l-1.56-.28,1.76-.4c.4-.09,.65-.49,.56-.89l-.3-1.31c-.08-.35-.39-.58-.73-.58-.05,0-.11,0-.17,.02" style="fill: none;"/>
    </clipPath>
  </defs>
  <g id="_лой_1" data-name="Слой 1"/>
  <g id="_лой_2" data-name="Слой 2">
    <g id="_лой_2-2" data-name="Слой 2">
      <g>
        <path d="M36.7,10.88c.53,0,.98,.1,1.37,.3,.38,.2,.7,.46,.95,.79,.25,.32,.44,.68,.56,1.08,.12,.4,.18,.79,.18,1.17s-.07,.79-.21,1.18c-.14,.39-.34,.75-.6,1.07-.26,.32-.59,.58-.98,.78-.39,.2-.83,.3-1.33,.3h-2.59v4.02h-2.13V10.88h4.78Zm-2.65,4.76h2.17c.49,0,.85-.14,1.1-.41,.25-.27,.37-.61,.37-1.01s-.13-.76-.38-1.03c-.25-.27-.62-.41-1.09-.41h-2.17v2.86Zm14.96,2.51c0,.58-.11,1.09-.33,1.52-.22,.43-.51,.8-.88,1.1-.37,.3-.81,.53-1.31,.67-.5,.15-1.03,.23-1.59,.23s-1.09-.08-1.59-.23c-.5-.15-.94-.37-1.31-.67-.37-.3-.67-.67-.88-1.1s-.33-.94-.33-1.52v-3.93c0-.57,.11-1.07,.34-1.5,.23-.43,.53-.8,.91-1.09,.38-.29,.82-.51,1.32-.65,.49-.14,1.01-.22,1.53-.22s1.04,.08,1.53,.23c.49,.16,.93,.38,1.32,.67,.38,.3,.69,.66,.91,1.1,.23,.44,.34,.94,.34,1.51v3.86Zm-2.13-3.49c0-.35-.06-.65-.17-.89-.11-.24-.26-.44-.45-.6-.19-.16-.4-.27-.63-.34-.23-.07-.47-.11-.72-.11s-.49,.03-.73,.11c-.24,.07-.45,.19-.64,.34-.19,.16-.34,.35-.45,.6-.11,.24-.17,.54-.17,.89v3.12c0,.35,.06,.65,.17,.9,.11,.25,.26,.45,.45,.61,.19,.15,.4,.27,.64,.33,.24,.07,.48,.1,.73,.1s.49-.03,.72-.1c.23-.07,.44-.18,.63-.33,.19-.16,.34-.36,.45-.61,.11-.25,.17-.55,.17-.9v-3.12Zm10.18-1.19c-.33-.28-.69-.47-1.07-.58-.38-.11-.76-.16-1.12-.16-.24,0-.48,.03-.71,.1-.24,.07-.45,.18-.64,.34-.19,.15-.34,.36-.46,.6-.12,.25-.18,.55-.18,.9v3.12c0,.35,.06,.65,.18,.89,.12,.24,.27,.44,.47,.6,.19,.16,.4,.27,.64,.34,.23,.07,.47,.11,.71,.11,.36,0,.73-.05,1.09-.15,.37-.1,.74-.3,1.11-.59l1.01,1.64c-.39,.33-.87,.59-1.44,.78-.57,.19-1.17,.28-1.8,.28-.51,0-1-.07-1.49-.22-.49-.14-.92-.36-1.3-.64-.38-.28-.69-.64-.93-1.07-.24-.43-.36-.93-.36-1.51v-4c0-.57,.12-1.07,.35-1.5,.23-.43,.54-.79,.91-1.08,.38-.29,.81-.51,1.3-.65,.49-.15,.98-.22,1.49-.22,.62,0,1.22,.08,1.79,.25,.57,.17,1.07,.43,1.48,.79l-1.02,1.64Zm8.3,5.9h-3.72l-.7,2.2h-2.27l3.75-10.69h2.17l3.72,10.69h-2.31l-.65-2.2Zm-3.15-1.78h2.57l-.42-1.37-.84-2.82h-.06l-.82,2.78-.43,1.41Zm13.45-4.11c-.33-.28-.69-.47-1.07-.58-.38-.11-.76-.16-1.12-.16-.24,0-.48,.03-.72,.1-.24,.07-.45,.18-.63,.34-.19,.15-.34,.36-.46,.6-.12,.25-.18,.55-.18,.9v3.12c0,.35,.06,.65,.18,.89,.12,.24,.27,.44,.47,.6,.19,.16,.4,.27,.63,.34,.23,.07,.47,.11,.71,.11,.36,0,.73-.05,1.09-.15,.37-.1,.74-.3,1.11-.59l1.01,1.64c-.39,.33-.87,.59-1.44,.78-.57,.19-1.17,.28-1.8,.28-.51,0-1-.07-1.49-.22-.49-.14-.92-.36-1.3-.64-.38-.28-.69-.64-.93-1.07-.24-.43-.36-.93-.36-1.51v-4c0-.57,.12-1.07,.35-1.5,.23-.43,.54-.79,.92-1.08,.38-.29,.81-.51,1.3-.65,.49-.15,.98-.22,1.49-.22,.62,0,1.22,.08,1.79,.25,.57,.17,1.07,.43,1.48,.79l-1.02,1.64Zm8.72-2.14c.6,.02,1.16,.13,1.67,.33,.51,.2,.96,.47,1.34,.81,.38,.34,.67,.75,.88,1.21,.21,.47,.32,.98,.32,1.54v1.49c0,.57-.1,1.09-.31,1.57-.21,.48-.5,.89-.87,1.24-.37,.35-.82,.63-1.34,.83-.52,.2-1.08,.31-1.69,.32v.9h-2.13v-.9c-.63-.03-1.2-.15-1.72-.36-.52-.21-.96-.48-1.33-.82-.37-.34-.65-.75-.85-1.21-.2-.46-.3-.98-.3-1.55v-1.51c0-.56,.11-1.08,.33-1.55,.22-.47,.52-.88,.9-1.21,.38-.34,.82-.6,1.33-.8,.51-.2,1.06-.3,1.64-.33v-.56h2.13v.56Zm-4.25,5.25c0,.33,.06,.63,.17,.9,.11,.27,.27,.5,.46,.68,.19,.19,.42,.33,.67,.43,.26,.1,.53,.16,.82,.17v-5.52c-.29,0-.56,.07-.82,.17-.26,.1-.48,.25-.67,.44-.19,.19-.34,.42-.46,.69-.11,.27-.17,.57-.17,.9v1.14Zm6.38-1.14c0-.67-.2-1.2-.59-1.58-.39-.39-.9-.59-1.54-.61v5.52c.61-.02,1.12-.22,1.52-.6,.4-.38,.6-.91,.6-1.58v-1.14Zm9.29,3.93h-3.72l-.7,2.2h-2.27l3.75-10.69h2.17l3.72,10.69h-2.31l-.65-2.2Zm-3.15-1.78h2.57l-.42-1.37-.84-2.82h-.06l-.82,2.78-.43,1.41Zm10.35-4.79v2.84c0,.89-.05,1.7-.16,2.42-.1,.72-.29,1.35-.56,1.88-.27,.53-.64,.95-1.12,1.27-.48,.32-1.1,.53-1.85,.64l-.47-1.74c.44-.14,.8-.33,1.07-.56,.27-.23,.48-.52,.63-.87,.15-.35,.25-.77,.3-1.26,.05-.49,.07-1.06,.07-1.72v-4.81h7.04v10.69h-2.16V12.79h-2.79Zm6.87,8.78V10.88h2.13v4.06h2.47c.53,0,1,.08,1.41,.25,.41,.17,.77,.39,1.05,.68,.29,.29,.51,.64,.67,1.04,.16,.4,.23,.84,.23,1.32,0,.39-.06,.79-.19,1.18-.12,.39-.32,.75-.58,1.06-.26,.32-.6,.58-1.02,.78-.41,.2-.92,.3-1.5,.3h-4.67Zm2.13-1.91h2.2c.48,0,.86-.13,1.14-.4,.28-.27,.43-.6,.43-1.01s-.14-.75-.43-1.01c-.28-.26-.67-.39-1.16-.39h-2.19v2.81Zm11.34-6.87v8.78h-2.13V12.79h-2.84v-1.91h7.79v1.91h-2.82Z" style="fill: #030304;"/>
        <g style="clip-path: url(#clippath);">
          <rect x="31.02" y="9.97" width="95.81" height="12.79" style="fill: #030304;"/>
        </g>
        <g>
          <path d="M34.48,29.25l-.27-.76h-1.35l-.26,.76h-.47l1.18-3.39h.46l1.19,3.39h-.48Zm-.95-2.77l-.25,.79-.27,.81h1.06l-.27-.81-.25-.79h-.02Z" style="fill: #030304;"/>
          <polygon points="36.2 26.79 36.63 26.84 37.02 27.09 36.77 27.41 36.47 27.22 36.22 27.18 36.03 27.21 35.84 27.31 35.71 27.49 35.66 27.76 35.66 28.3 35.71 28.57 35.84 28.75 36.02 28.85 36.22 28.88 36.48 28.83 36.75 28.68 37.01 28.97 36.63 29.21 36.21 29.28 35.82 29.21 35.51 29.03 35.31 28.76 35.24 28.41 35.24 27.69 35.31 27.31 35.53 27.03 35.83 26.85 36.2 26.79" style="fill: #030304;"/>
          <polygon points="38.31 26.79 38.74 26.84 39.14 27.09 38.88 27.41 38.58 27.22 38.33 27.18 38.14 27.21 37.96 27.31 37.82 27.49 37.77 27.76 37.77 28.3 37.82 28.57 37.95 28.75 38.13 28.85 38.33 28.88 38.59 28.83 38.86 28.68 39.13 28.97 38.74 29.21 38.32 29.28 37.93 29.21 37.62 29.03 37.42 28.76 37.35 28.41 37.35 27.69 37.43 27.31 37.64 27.03 37.95 26.85 38.31 26.79" style="fill: #030304;"/>
          <path d="M41.49,28.39l-.08,.38-.22,.28-.32,.17-.39,.06-.39-.06-.32-.17-.21-.28-.08-.38v-.71l.08-.38,.22-.28,.32-.18,.39-.06,.41,.06,.32,.18,.21,.28,.07,.38v.71Zm-.42-.63l-.05-.27-.14-.18-.19-.1-.2-.03-.21,.03-.19,.1-.14,.18-.05,.27v.55l.05,.27,.13,.18,.19,.1,.23,.03,.2-.03,.19-.1,.14-.18,.05-.27v-.55Z" style="fill: #030304;"/>
          <polygon points="43.74 29.25 42 29.25 42 26.81 42.41 26.81 42.41 28.88 43.54 28.88 43.54 26.81 43.94 26.81 43.94 28.88 44.14 28.89 44.14 29.88 43.74 29.88 43.74 29.25" style="fill: #030304;"/>
          <polygon points="44.96 28.57 45.33 28.01 46.14 26.82 46.54 26.82 46.54 29.25 46.11 29.25 46.11 27.49 46.09 27.49 45.72 28.06 44.91 29.25 44.52 29.25 44.52 26.82 44.94 26.82 44.94 28.57 44.96 28.57" style="fill: #030304;"/>
          <path d="M48.56,29.02c-.19,.11-.35,.18-.47,.21l-.33,.05c-.24,0-.42-.06-.57-.2-.14-.13-.21-.31-.21-.54l.09-.34,.23-.22,.29-.12,.28-.04h.71v-.19c0-.17-.05-.29-.14-.36-.1-.07-.23-.1-.41-.1l-.31,.04-.37,.19-.21-.32c.16-.12,.32-.2,.48-.24,.16-.03,.31-.05,.45-.05,.32,0,.55,.07,.71,.21,.15,.14,.23,.36,.23,.64v1.61h-.37l-.05-.23h-.01Zm.01-.86h-.81l-.17,.06-.13,.11-.05,.2,.12,.26,.31,.09,.2-.02,.2-.07,.19-.09,.16-.09v-.46Z" style="fill: #030304;"/>
          <polygon points="51.26 29.25 49.52 29.25 49.52 26.81 49.93 26.81 49.93 28.88 51.05 28.88 51.05 26.81 51.46 26.81 51.46 28.88 51.66 28.89 51.66 29.88 51.26 29.88 51.26 29.25" style="fill: #030304;"/>
          <polygon points="52.48 28.57 52.85 28.01 53.66 26.82 54.06 26.82 54.06 29.25 53.63 29.25 53.63 27.49 53.6 27.49 53.23 28.06 52.43 29.25 52.04 29.25 52.04 26.82 52.46 26.82 52.46 28.57 52.48 28.57" style="fill: #030304;"/>
          <path d="M54.53,27.57l.05-.3,.15-.24,.24-.16,.31-.06h1.15v2.44h-.42v-1.01h-.53l-.28,.08-.17,.29-.14,.64h-.44l.16-.66,.11-.27,.21-.17-.31-.23-.1-.35Zm.4,0l.12,.25,.3,.07h.66v-.69h-.68l-.28,.09-.12,.28Z" style="fill: #030304;"/>
          <polygon points="60.15 29.25 60.15 26.27 58.56 26.27 58.56 29.25 58.11 29.25 58.11 25.86 60.61 25.86 60.61 29.25 60.15 29.25" style="fill: #030304;"/>
          <path d="M61.5,26.81l.05,.26c.19-.11,.35-.19,.46-.23l.31-.05c.24,0,.43,.07,.59,.21,.15,.14,.23,.36,.23,.66v.75c0,.28-.08,.49-.23,.64-.15,.15-.36,.23-.63,.23l-.31-.03c-.12-.02-.26-.06-.42-.13v1.1h-.42v-3.41h.37Zm.05,1.92c.15,.06,.28,.1,.38,.12l.31,.03,.18-.02,.15-.08,.1-.15,.04-.24v-.7c0-.19-.04-.32-.12-.39l-.31-.11-.16,.02-.19,.06-.2,.09-.18,.11v1.25Z" style="fill: #030304;"/>
          <path d="M65.62,28.39l-.08,.38-.22,.28-.32,.17-.39,.06-.39-.06-.32-.17-.21-.28-.08-.38v-.71l.08-.38,.22-.28,.32-.18,.39-.06,.41,.06,.32,.18,.21,.28,.07,.38v.71Zm-.42-.63l-.05-.27-.14-.18-.19-.1-.2-.03-.21,.03-.19,.1-.14,.18-.05,.27v.55l.05,.27,.13,.18,.19,.1,.23,.03,.2-.03,.19-.1,.14-.18,.05-.27v-.55Z" style="fill: #030304;"/>
          <polygon points="66.53 28.57 66.9 28.01 67.71 26.82 68.11 26.82 68.11 29.25 67.68 29.25 67.68 27.49 67.65 27.49 67.29 28.06 66.48 29.25 66.09 29.25 66.09 26.82 66.51 26.82 66.51 28.57 66.53 28.57" style="fill: #030304;"/>
          <path d="M68.68,28.68l.3,.17,.32,.05,.26-.03,.17-.08,.1-.12,.03-.14-.13-.26-.33-.09h-.33v-.35h.35l.3-.09,.11-.24-.14-.24-.32-.08-.3,.04-.28,.16-.26-.29c.12-.11,.25-.19,.4-.23,.15-.05,.31-.07,.46-.07l.37,.05,.27,.15,.16,.21,.05,.26v.12l-.06,.15-.1,.14-.18,.11,.19,.11,.12,.15,.06,.15v.13l-.04,.3-.18,.24-.3,.16c-.12,.04-.26,.06-.41,.06s-.31-.02-.47-.07c-.16-.04-.3-.12-.43-.24l.26-.29Z" style="fill: #030304;"/>
          <path d="M72.62,28.51l-.05,.27-.15,.24-.24,.17-.34,.06h-1.19v-2.44h1.18l.33,.05,.23,.15,.14,.21,.04,.25-.07,.27-.22,.22,.26,.24,.08,.3Zm-.47-1.02l-.12-.23-.26-.07h-.68v.6h.71l.26-.08,.1-.22Zm.04,1.02l-.12-.25-.26-.09h-.73v.71h.69l.32-.1,.1-.27Z" style="fill: #030304;"/>
          <path d="M75.08,28.39l-.08,.38-.22,.28-.32,.17-.39,.06-.39-.06-.32-.17-.21-.28-.08-.38v-.71l.08-.38,.22-.28,.32-.18,.39-.06,.41,.06,.32,.18,.21,.28,.07,.38v.71Zm-.42-.63l-.05-.27-.14-.18-.19-.1-.2-.03-.21,.03-.19,.1-.14,.18-.05,.27v.55l.05,.27,.13,.18,.19,.1,.23,.03,.2-.03,.19-.1,.14-.18,.05-.27v-.55Z" style="fill: #030304;"/>
          <path d="M75.54,28.89l.15-.14,.11-.2,.07-.29c.02-.11,.03-.25,.04-.41l.06-1.03h1.76v2.07h.2v.99h-.4v-.62h-1.76v.62h-.4v-.98h.17Zm.8-1.71l-.03,.65c-.01,.25-.03,.47-.06,.63-.03,.17-.08,.31-.15,.42h1.21v-1.69h-.97Z" style="fill: #030304;"/>
          <polygon points="78.8 28.57 79.17 28.01 79.98 26.82 80.38 26.82 80.38 29.25 79.95 29.25 79.95 27.49 79.92 27.49 79.55 28.06 78.75 29.25 78.36 29.25 78.36 26.82 78.78 26.82 78.78 28.57 78.8 28.57" style="fill: #030304;"/>
          <polygon points="81.87 27.19 81.87 29.25 81.43 29.25 81.43 27.19 80.68 27.19 80.68 26.81 82.63 26.81 82.63 27.19 81.87 27.19" style="fill: #030304;"/>
          <path d="M83.24,28.19v.16l.05,.25,.14,.17,.2,.1,.23,.03,.29-.05,.32-.19,.26,.29c-.12,.13-.26,.22-.41,.26-.15,.05-.31,.07-.46,.07l-.39-.06-.33-.17-.22-.28-.08-.39v-.64l.07-.39,.2-.3,.31-.19,.39-.07,.4,.06,.31,.18,.2,.29,.07,.38v.48h-1.54Zm1.12-.44l-.04-.26-.12-.18-.18-.1-.21-.03-.21,.03-.18,.1-.12,.18-.04,.25v.11h1.11v-.09Z" style="fill: #030304;"/>
          <path d="M85.94,27.19v.66c0,.25-.02,.46-.06,.63-.04,.17-.09,.31-.16,.41l-.25,.26-.32,.17-.17-.34,.24-.13,.17-.19,.1-.32c.02-.13,.03-.3,.03-.52v-1.01h1.69v2.44h-.42v-2.06h-.85Z" style="fill: #030304;"/>
          <path d="M88.16,28.19v.16l.05,.25,.14,.17,.2,.1,.23,.03,.29-.05,.32-.19,.26,.29c-.12,.13-.26,.22-.41,.26-.15,.05-.31,.07-.46,.07l-.39-.06-.33-.17-.22-.28-.08-.39v-.64l.07-.39,.2-.3,.31-.19,.39-.07,.4,.06,.31,.18,.2,.29,.07,.38v.48h-1.54Zm1.12-.44l-.04-.26-.12-.18-.18-.1-.21-.03-.21,.03-.18,.1-.12,.18-.04,.25v.11h1.11v-.09Z" style="fill: #030304;"/>
          <path d="M90.57,28.57l.37-.56,.82-1.2h.4v2.44h-.43v-1.76h-.02l-.37,.57-.81,1.19h-.39v-2.44h.42v1.76h.02Zm.23-2.75l.03,.1,.07,.1,.11,.08,.14,.03,.16-.03,.11-.08,.07-.1,.02-.1h.35l-.04,.21-.12,.2-.21,.16-.33,.06-.34-.06-.22-.16-.12-.2-.04-.21h.36Z" style="fill: #030304;"/>
          <polygon points="94.27 28.57 94.64 28.01 95.45 26.82 95.85 26.82 95.85 29.25 95.42 29.25 95.42 27.49 95.39 27.49 95.02 28.06 94.22 29.25 93.83 29.25 93.83 26.82 94.25 26.82 94.25 28.57 94.27 28.57" style="fill: #030304;"/>
          <polygon points="99.59 29.25 99.59 26.27 98 26.27 98 29.25 97.54 29.25 97.54 25.86 100.05 25.86 100.05 29.25 99.59 29.25" style="fill: #030304;"/>
          <path d="M102.57,28.39l-.08,.38-.22,.28-.32,.17-.39,.06-.39-.06-.32-.17-.21-.28-.08-.38v-.71l.08-.38,.22-.28,.32-.18,.39-.06,.41,.06,.32,.18,.21,.28,.07,.38v.71Zm-.42-.63l-.05-.27-.14-.18-.19-.1-.2-.03-.21,.03-.19,.1-.14,.18-.05,.27v.55l.05,.27,.13,.18,.19,.1,.23,.03,.2-.03,.19-.1,.14-.18,.05-.27v-.55Z" style="fill: #030304;"/>
          <polygon points="104.05 27.19 104.05 29.25 103.61 29.25 103.61 27.19 102.86 27.19 102.86 26.81 104.81 26.81 104.81 27.19 104.05 27.19" style="fill: #030304;"/>
          <path d="M105.48,26.81l.05,.26c.19-.11,.35-.19,.46-.23l.31-.05c.24,0,.43,.07,.59,.21s.23,.36,.23,.66v.75c0,.28-.08,.49-.23,.64-.15,.15-.36,.23-.63,.23l-.31-.03c-.12-.02-.26-.06-.42-.13v1.1h-.42v-3.41h.37Zm.05,1.92c.15,.06,.28,.1,.38,.12l.31,.03,.18-.02,.15-.08,.1-.15,.04-.24v-.7c0-.19-.04-.32-.12-.39l-.31-.11-.16,.02-.19,.06-.2,.09-.18,.11v1.25Z" style="fill: #030304;"/>
          <path d="M107.99,28.19v.16l.05,.25,.14,.17,.2,.1,.23,.03,.29-.05,.32-.19,.26,.29c-.12,.13-.26,.22-.42,.26-.15,.05-.31,.07-.46,.07l-.39-.06-.33-.17-.22-.28-.08-.39v-.64l.07-.39,.2-.3,.31-.19,.4-.07,.4,.06,.31,.18,.2,.29,.07,.38v.48h-1.54Zm1.12-.44l-.04-.26-.12-.18-.18-.1-.21-.03-.21,.03-.18,.1-.12,.18-.04,.25v.11h1.11v-.09Z" style="fill: #030304;"/>
          <path d="M110.42,27.14l.15-.11,.17-.07,.16-.04h.13c.31,0,.54,.07,.7,.23,.16,.16,.24,.38,.24,.66v.55l-.08,.38-.22,.29-.32,.18-.39,.06c-.32,0-.56-.08-.74-.24-.18-.16-.27-.38-.27-.67v-.7l.02-.43,.09-.42,.18-.37,.31-.29,.34-.17,.36-.14,.1-.04,.09-.04,.1-.04,.13-.06,.15,.36-.24,.1-.15,.06-.11,.04-.11,.05-.35,.16-.23,.17-.14,.22-.08,.31v.02Zm1.14,.74c0-.21-.05-.36-.16-.45-.1-.08-.25-.13-.43-.13l-.21,.03-.19,.11-.14,.19-.05,.27v.4l.05,.27,.13,.18,.19,.1,.23,.03,.22-.03,.19-.1,.13-.18,.05-.27v-.42Z" style="fill: #030304;"/>
          <polygon points="112.89 28.57 113.26 28.01 114.07 26.82 114.47 26.82 114.47 29.25 114.04 29.25 114.04 27.49 114.01 27.49 113.64 28.06 112.84 29.25 112.45 29.25 112.45 26.82 112.87 26.82 112.87 28.57 112.89 28.57" style="fill: #030304;"/>
          <polygon points="115.96 27.19 115.96 29.25 115.52 29.25 115.52 27.19 114.77 27.19 114.77 26.81 116.72 26.81 116.72 27.19 115.96 27.19" style="fill: #030304;"/>
          <path d="M117.33,28.19v.16l.05,.25,.14,.17,.2,.1,.23,.03,.29-.05,.32-.19,.26,.29c-.12,.13-.26,.22-.41,.26-.15,.05-.31,.07-.46,.07l-.4-.06-.33-.17-.22-.28-.08-.39v-.64l.07-.39,.2-.3,.31-.19,.4-.07,.4,.06,.31,.18,.2,.29,.07,.38v.48h-1.54Zm1.12-.44l-.04-.26-.12-.18-.18-.1-.21-.03-.21,.03-.18,.1-.12,.18-.04,.25v.11h1.11v-.09Z" style="fill: #030304;"/>
          <path d="M120.03,27.19v.66c0,.25-.02,.46-.06,.63-.04,.17-.1,.31-.17,.41l-.25,.26-.32,.17-.17-.34,.24-.13,.17-.19,.1-.32c.02-.13,.03-.3,.03-.52v-1.01h1.69v2.44h-.42v-2.06h-.85Z" style="fill: #030304;"/>
          <path d="M122.25,28.19v.16l.05,.25,.14,.17,.2,.1,.23,.03,.29-.05,.32-.19,.26,.29c-.12,.13-.26,.22-.41,.26-.15,.05-.31,.07-.46,.07l-.39-.06-.33-.17-.22-.28-.08-.39v-.64l.07-.39,.2-.3,.31-.19,.4-.07,.4,.06,.31,.18,.2,.29,.07,.38v.48h-1.54Zm1.12-.44l-.04-.26-.12-.18-.18-.1-.21-.03-.21,.03-.18,.1-.12,.18-.04,.25v.11h1.11v-.09Z" style="fill: #030304;"/>
          <path d="M124.66,28.57l.37-.56,.82-1.2h.4v2.44h-.43v-1.76h-.02l-.37,.57-.81,1.19h-.39v-2.44h.42v1.76h.02Zm.23-2.75l.03,.1,.07,.1,.11,.08,.14,.03,.16-.03,.11-.08,.07-.1,.02-.1h.35l-.04,.21-.12,.2-.21,.16-.33,.06-.34-.06-.22-.16-.12-.2-.04-.21h.36Z" style="fill: #030304;"/>
          <path d="M34.48,34.26l-.27-.76h-1.35l-.26,.76h-.47l1.18-3.39h.46l1.19,3.39h-.48Zm-.95-2.77l-.25,.79-.27,.81h1.06l-.27-.81-.25-.79h-.02Z" style="fill: #030304;"/>
          <polygon points="36.2 31.79 36.63 31.85 37.02 32.1 36.77 32.42 36.47 32.23 36.22 32.19 36.03 32.22 35.84 32.32 35.71 32.5 35.66 32.77 35.66 33.31 35.71 33.58 35.84 33.76 36.02 33.86 36.22 33.89 36.48 33.84 36.75 33.68 37.01 33.98 36.63 34.22 36.21 34.28 35.82 34.22 35.51 34.04 35.31 33.77 35.24 33.42 35.24 32.69 35.31 32.32 35.53 32.03 35.83 31.85 36.2 31.79" style="fill: #030304;"/>
          <path d="M38.46,35.24v-.95c-.2,0-.37-.04-.51-.11l-.35-.24-.2-.33-.06-.39v-.31l.07-.42,.2-.36,.35-.25c.14-.06,.3-.1,.5-.1v-.93h.42v.93c.19,0,.35,.04,.49,.09l.35,.23,.2,.34,.07,.41v.35l-.07,.39-.2,.33-.35,.24c-.14,.06-.3,.1-.49,.11v.95h-.42Zm0-3.06l-.31,.07-.21,.17-.12,.24-.04,.28v.22l.03,.27,.11,.23,.21,.17,.34,.08v-1.73Zm.42,1.73l.32-.07,.21-.17,.11-.24,.03-.28v-.22l-.04-.28-.12-.24-.21-.17-.31-.07v1.73Z" style="fill: #030304;"/>
          <path d="M41.99,34.02c-.19,.11-.35,.18-.48,.21l-.33,.05c-.24,0-.42-.07-.57-.2-.14-.13-.21-.31-.21-.54l.09-.34,.23-.22,.29-.12,.28-.04h.71v-.19c0-.17-.05-.29-.14-.36-.1-.07-.23-.1-.41-.1l-.31,.04-.37,.19-.21-.32c.16-.12,.32-.2,.48-.24,.16-.03,.31-.05,.45-.05,.32,0,.55,.07,.71,.21,.15,.14,.23,.35,.23,.64v1.61h-.37l-.05-.23h-.01Zm.01-.86h-.81l-.17,.06-.13,.11-.05,.2,.12,.27,.31,.09,.19-.03,.2-.07,.18-.09,.16-.09v-.46Z" style="fill: #030304;"/>
          <path d="M43.64,32.2v.66c0,.25-.02,.46-.06,.63-.04,.17-.09,.31-.17,.41l-.25,.26-.32,.17-.17-.34,.24-.13,.17-.19,.1-.32c.02-.13,.03-.3,.03-.52v-1.01h1.69v2.44h-.42v-2.06h-.85Z" style="fill: #030304;"/>
          <path d="M45.88,32.77h.65l.37,.06,.27,.16,.16,.23,.05,.29c0,.23-.07,.41-.22,.55-.15,.14-.36,.21-.63,.21h-1.07v-2.44h.42v.95Zm1.07,.74l-.1-.25c-.07-.08-.18-.12-.34-.12h-.63v.75h.63l.33-.09,.12-.28Z" style="fill: #030304;"/>
          <polygon points="48.67 32.2 48.67 34.26 48.23 34.26 48.23 32.2 47.47 32.2 47.47 31.82 49.42 31.82 49.42 32.2 48.67 32.2" style="fill: #030304;"/>
          <path d="M51.63,33.4l-.08,.38-.22,.28-.32,.17-.39,.06-.39-.06-.32-.17-.21-.28-.08-.38v-.71l.08-.38,.22-.28,.32-.18,.39-.06,.41,.06,.32,.18,.21,.28,.07,.38v.71Zm-.42-.63l-.05-.27-.14-.18-.19-.1-.2-.03-.21,.03-.19,.1-.14,.18-.05,.27v.55l.05,.27,.13,.18,.19,.1,.23,.03,.2-.03,.19-.1,.14-.18,.05-.27v-.55Z" style="fill: #030304;"/>
          <path d="M52.57,32.15l.15-.11,.17-.07,.16-.04h.13c.31,0,.54,.07,.7,.23,.16,.16,.24,.38,.24,.66v.55l-.08,.38-.22,.29-.32,.18-.39,.06c-.32,0-.56-.08-.74-.24s-.27-.38-.27-.67v-.7l.02-.43,.09-.42,.18-.37,.31-.29,.34-.17,.36-.14,.1-.04,.09-.04,.1-.04,.13-.06,.15,.35-.24,.1-.15,.06-.11,.04-.11,.05-.35,.16-.23,.17-.14,.22-.08,.31v.02Zm1.14,.74c0-.21-.05-.36-.16-.45-.11-.08-.25-.13-.43-.13l-.21,.03-.19,.11-.14,.19-.05,.27v.4l.05,.27,.13,.18,.19,.1,.23,.03,.22-.03,.19-.1,.13-.18,.05-.27v-.42Z" style="fill: #030304;"/>
          <path d="M55.01,33.2v.16l.05,.25,.14,.17,.2,.1,.23,.03,.29-.05,.32-.19,.26,.29c-.12,.13-.26,.21-.41,.26-.15,.05-.31,.07-.46,.07l-.39-.06-.33-.17-.22-.28-.08-.39v-.65l.07-.39,.2-.3,.31-.19,.4-.07,.4,.06,.31,.18,.2,.29,.07,.38v.48h-1.54Zm1.12-.44l-.04-.26-.12-.18-.18-.1-.21-.03-.21,.03-.18,.1-.12,.18-.04,.25v.11h1.11v-.09Z" style="fill: #030304;"/>
          <polygon points="57.98 32.2 57.98 34.26 57.54 34.26 57.54 32.2 56.78 32.2 56.78 31.82 58.73 31.82 58.73 32.2 57.98 32.2" style="fill: #030304;"/>
          <path d="M60.94,33.4l-.08,.38-.22,.28-.32,.17-.39,.06-.39-.06-.32-.17-.21-.28-.08-.38v-.71l.08-.38,.22-.28,.32-.18,.39-.06,.41,.06,.32,.18,.21,.28,.07,.38v.71Zm-.42-.63l-.05-.27-.14-.18-.19-.1-.2-.03-.21,.03-.19,.1-.14,.18-.05,.27v.55l.05,.27,.13,.18,.19,.1,.23,.03,.2-.03,.19-.1,.14-.18,.05-.27v-.55Z" style="fill: #030304;"/>
          <polygon points="63.01 34.26 63.01 33.22 61.85 33.22 61.85 34.26 61.42 34.26 61.42 31.82 61.85 31.82 61.85 32.84 63.01 32.84 63.01 31.82 63.43 31.82 63.43 34.26 63.01 34.26" style="fill: #030304;"/>
          <polygon points="65.52 34.26 65.52 33.22 64.36 33.22 64.36 34.26 63.93 34.26 63.93 31.82 64.36 31.82 64.36 32.84 65.52 32.84 65.52 31.82 65.94 31.82 65.94 34.26 65.52 34.26" style="fill: #030304;"/>
          <path d="M66.86,32.77h.65l.37,.06,.27,.16,.16,.23,.05,.29c0,.23-.07,.41-.22,.55-.15,.14-.36,.21-.63,.21h-1.07v-2.44h.42v.95Zm1.07,.74l-.1-.25c-.07-.08-.18-.12-.34-.12h-.63v.75h.63l.33-.1,.12-.28Zm.66-1.68h.41v2.44h-.41v-2.44Z" style="fill: #030304;"/>
          <polygon points="70.85 34.26 70.3 33.34 69.74 34.26 69.24 34.26 70.07 33.01 69.29 31.82 69.8 31.82 70.31 32.67 70.82 31.82 71.33 31.82 70.54 33 71.36 34.26 70.85 34.26" style="fill: #030304;"/>
          <path d="M74.06,30.83c.18,0,.36,.02,.52,.07,.16,.05,.31,.13,.43,.23l-.23,.35-.33-.18-.39-.06-.28,.04-.25,.14-.17,.24-.07,.36v1.06l.07,.36,.18,.24,.24,.14,.27,.05,.39-.05,.36-.18,.22,.35c-.1,.09-.24,.16-.41,.22-.17,.06-.35,.09-.55,.09-.16,0-.32-.03-.47-.08-.15-.05-.28-.12-.39-.22l-.27-.35c-.07-.14-.1-.29-.1-.47v-1.24c0-.17,.03-.32,.1-.46l.27-.35,.39-.22c.15-.05,.3-.08,.47-.08" style="fill: #030304;"/>
          <polygon points="77.44 32.72 77.17 33.22 76.78 33.91 76.49 33.91 76.17 33.33 75.86 32.75 75.84 32.75 75.84 34.26 75.42 34.26 75.42 31.82 75.81 31.82 76.3 32.75 76.64 33.41 76.99 32.75 77.5 31.82 77.88 31.82 77.88 34.26 77.46 34.26 77.46 32.72 77.44 32.72" style="fill: #030304;"/>
          <path d="M78.8,33.2v.16l.05,.25,.14,.17,.2,.1,.23,.03,.29-.05,.32-.19,.26,.29c-.12,.13-.26,.21-.41,.26-.15,.05-.31,.07-.46,.07l-.39-.06-.33-.17-.22-.28-.08-.39v-.65l.07-.39,.2-.3,.31-.19,.39-.07,.4,.06,.31,.18,.2,.29,.07,.38v.48h-1.54Zm1.12-.44l-.04-.26-.12-.18-.18-.1-.21-.03-.21,.03-.18,.1-.12,.18-.04,.25v.11h1.11v-.09Z" style="fill: #030304;"/>
          <polygon points="81.72 31.79 82.15 31.85 82.54 32.1 82.29 32.42 81.99 32.23 81.74 32.19 81.55 32.22 81.36 32.32 81.23 32.5 81.18 32.77 81.18 33.31 81.23 33.58 81.36 33.76 81.54 33.86 81.74 33.89 82 33.84 82.27 33.68 82.53 33.98 82.15 34.22 81.73 34.28 81.34 34.22 81.03 34.04 80.83 33.77 80.76 33.42 80.76 32.69 80.83 32.32 81.05 32.03 81.35 31.85 81.72 31.79" style="fill: #030304;"/>
          <path d="M83.29,33.2v.16l.05,.25,.14,.17,.2,.1,.23,.03,.29-.05,.32-.19,.26,.29c-.12,.13-.26,.21-.41,.26-.15,.05-.31,.07-.46,.07l-.39-.06-.33-.17-.22-.28-.08-.39v-.65l.07-.39,.2-.3,.31-.19,.39-.07,.4,.06,.31,.18,.2,.29,.07,.38v.48h-1.54Zm1.12-.44l-.04-.26-.12-.18-.18-.1-.21-.03-.21,.03-.18,.1-.12,.18-.04,.25v.11h1.11v-.09Z" style="fill: #030304;"/>
          <path d="M85.7,33.58l.37-.56,.82-1.2h.4v2.44h-.43v-1.76h-.02l-.37,.57-.81,1.19h-.39v-2.44h.42v1.76h.02Zm.23-2.75l.03,.1,.07,.1,.11,.08,.14,.03,.16-.03,.11-.08,.07-.1,.02-.1h.35l-.04,.21-.12,.2-.21,.16-.33,.06-.34-.06-.22-.16-.12-.2-.04-.21h.36Z" style="fill: #030304;"/>
        </g>
        <g style="clip-path: url(#clippath-1);">
          <rect x="-2.24" y="-1.71" width="28.62" height="28.35" transform="translate(-2.2 22.33) rotate(-80.57)" style="fill: url(#_езымянный_градиент_693);"/>
        </g>
        <g style="clip-path: url(#clippath-2);">
          <polygon points="3.74 .25 3.85 .12 3.91 .28 3.74 .25" style="fill: #828282;"/>
          <polygon points="4.55 .4 4.66 .27 4.72 .43 4.55 .4" style="fill: #828282;"/>
          <polygon points="5.36 .54 5.47 .41 5.52 .57 5.36 .54" style="fill: #828282;"/>
          <polygon points="6.17 .68 6.28 .56 6.33 .71 6.17 .68" style="fill: #828282;"/>
          <polygon points="6.98 .83 7.09 .7 7.14 .86 6.98 .83" style="fill: #828282;"/>
          <polygon points="7.79 .97 7.9 .84 7.95 1 7.79 .97" style="fill: #828282;"/>
          <polygon points="8.6 1.12 8.71 .99 8.76 1.14 8.6 1.12" style="fill: #828282;"/>
          <polygon points="9.41 1.26 9.51 1.13 9.57 1.29 9.41 1.26" style="fill: #828282;"/>
          <polygon points="10.22 1.4 10.32 1.27 10.38 1.43 10.22 1.4" style="fill: #828282;"/>
          <polygon points="11.03 1.55 11.13 1.42 11.19 1.58 11.03 1.55" style="fill: #828282;"/>
          <polygon points="11.84 1.69 11.94 1.56 12 1.72 11.84 1.69" style="fill: #828282;"/>
          <polygon points="12.65 1.83 12.75 1.7 12.81 1.86 12.65 1.83" style="fill: #828282;"/>
          <polygon points="13.45 1.98 13.56 1.85 13.62 2.01 13.45 1.98" style="fill: #828282;"/>
          <polygon points="14.26 2.12 14.37 1.99 14.43 2.15 14.26 2.12" style="fill: #828282;"/>
          <polygon points="15.07 2.26 15.18 2.14 15.24 2.29 15.07 2.26" style="fill: #828282;"/>
          <polygon points="15.88 2.41 15.99 2.28 16.05 2.44 15.88 2.41" style="fill: #828282;"/>
          <polygon points="16.69 2.55 16.8 2.42 16.86 2.58 16.69 2.55" style="fill: #828282;"/>
          <polygon points="17.5 2.7 17.61 2.57 17.67 2.73 17.5 2.7" style="fill: #828282;"/>
          <polygon points="18.31 2.84 18.42 2.71 18.48 2.87 18.31 2.84" style="fill: #828282;"/>
          <polygon points="19.12 2.98 19.23 2.86 19.29 3.01 19.12 2.98" style="fill: #828282;"/>
          <polygon points="19.93 3.13 20.04 3 20.1 3.16 19.93 3.13" style="fill: #828282;"/>
          <polygon points="20.74 3.27 20.85 3.14 20.91 3.3 20.74 3.27" style="fill: #828282;"/>
          <polygon points="21.55 3.41 21.66 3.29 21.72 3.45 21.55 3.41" style="fill: #828282;"/>
          <polygon points="22.36 3.56 22.47 3.43 22.53 3.59 22.36 3.56" style="fill: #828282;"/>
          <polygon points="23.17 3.7 23.28 3.57 23.33 3.73 23.17 3.7" style="fill: #828282;"/>
          <polygon points="23.98 3.85 24.09 3.72 24.14 3.88 23.98 3.85" style="fill: #828282;"/>
          <polygon points="3.19 .99 3.3 .86 3.36 1.02 3.19 .99" style="fill: #828282;"/>
          <polygon points="4 1.13 4.11 1.01 4.17 1.16 4 1.13" style="fill: #828282;"/>
          <polygon points="4.81 1.28 4.92 1.15 4.98 1.31 4.81 1.28" style="fill: #828282;"/>
          <polygon points="5.62 1.42 5.73 1.29 5.79 1.45 5.62 1.42" style="fill: #828282;"/>
          <polygon points="6.43 1.56 6.54 1.44 6.6 1.6 6.43 1.56" style="fill: #828282;"/>
          <polygon points="7.24 1.71 7.35 1.58 7.4 1.74 7.24 1.71" style="fill: #828282;"/>
          <polygon points="8.05 1.85 8.16 1.72 8.21 1.88 8.05 1.85" style="fill: #828282;"/>
          <polygon points="8.86 2 8.97 1.87 9.02 2.03 8.86 2" style="fill: #828282;"/>
          <polygon points="9.67 2.14 9.78 2.01 9.83 2.17 9.67 2.14" style="fill: #828282;"/>
          <polygon points="10.48 2.28 10.59 2.15 10.64 2.31 10.48 2.28" style="fill: #828282;"/>
          <polygon points="11.29 2.43 11.39 2.3 11.45 2.46 11.29 2.43" style="fill: #828282;"/>
          <polygon points="12.1 2.57 12.2 2.44 12.26 2.6 12.1 2.57" style="fill: #828282;"/>
          <polygon points="12.91 2.71 13.01 2.59 13.07 2.74 12.91 2.71" style="fill: #828282;"/>
          <polygon points="13.72 2.86 13.82 2.73 13.88 2.89 13.72 2.86" style="fill: #828282;"/>
          <polygon points="14.53 3 14.63 2.87 14.69 3.03 14.53 3" style="fill: #828282;"/>
          <polygon points="15.34 3.15 15.44 3.02 15.5 3.18 15.34 3.15" style="fill: #828282;"/>
          <polygon points="16.14 3.29 16.25 3.16 16.31 3.32 16.14 3.29" style="fill: #828282;"/>
          <polygon points="16.95 3.43 17.06 3.31 17.12 3.46 16.95 3.43" style="fill: #828282;"/>
          <polygon points="17.76 3.58 17.87 3.45 17.93 3.61 17.76 3.58" style="fill: #828282;"/>
          <polygon points="18.57 3.72 18.68 3.59 18.74 3.75 18.57 3.72" style="fill: #828282;"/>
          <polygon points="19.38 3.86 19.49 3.74 19.55 3.9 19.38 3.86" style="fill: #828282;"/>
          <polygon points="20.19 4.01 20.3 3.88 20.36 4.04 20.19 4.01" style="fill: #828282;"/>
          <polygon points="21 4.15 21.11 4.02 21.17 4.18 21 4.15" style="fill: #828282;"/>
          <polygon points="21.81 4.3 21.92 4.17 21.98 4.33 21.81 4.3" style="fill: #828282;"/>
          <polygon points="22.62 4.44 22.73 4.31 22.79 4.47 22.62 4.44" style="fill: #828282;"/>
          <polygon points="23.43 4.58 23.54 4.45 23.6 4.61 23.43 4.58" style="fill: #828282;"/>
          <polygon points="24.24 4.73 24.35 4.6 24.41 4.76 24.24 4.73" style="fill: #828282;"/>
          <polygon points="3.45 1.87 3.56 1.74 3.62 1.9 3.45 1.87" style="fill: #828282;"/>
          <polygon points="4.26 2.01 4.37 1.89 4.43 2.05 4.26 2.01" style="fill: #828282;"/>
          <polygon points="5.07 2.16 5.18 2.03 5.24 2.19 5.07 2.16" style="fill: #828282;"/>
          <polygon points="5.88 2.3 5.99 2.17 6.05 2.33 5.88 2.3" style="fill: #828282;"/>
          <polygon points="6.69 2.45 6.8 2.32 6.86 2.48 6.69 2.45" style="fill: #828282;"/>
          <polygon points="7.5 2.59 7.61 2.46 7.67 2.62 7.5 2.59" style="fill: #828282;"/>
          <polygon points="8.31 2.73 8.42 2.61 8.48 2.76 8.31 2.73" style="fill: #828282;"/>
          <polygon points="9.12 2.88 9.23 2.75 9.29 2.91 9.12 2.88" style="fill: #828282;"/>
          <polygon points="9.93 3.02 10.04 2.89 10.09 3.05 9.93 3.02" style="fill: #828282;"/>
          <polygon points="10.74 3.17 10.85 3.04 10.9 3.19 10.74 3.17" style="fill: #828282;"/>
          <polygon points="11.55 3.31 11.66 3.18 11.71 3.34 11.55 3.31" style="fill: #828282;"/>
          <polygon points="12.35 3.46 12.47 3.32 12.53 3.49 12.35 3.46" style="fill: #828282;"/>
          <polygon points="13.16 3.6 13.28 3.46 13.34 3.64 13.16 3.6" style="fill: #828282;"/>
          <polygon points="13.96 3.75 14.09 3.6 14.15 3.78 13.96 3.75" style="fill: #828282;"/>
          <polygon points="14.78 3.89 14.9 3.75 14.96 3.92 14.78 3.89" style="fill: #828282;"/>
          <polygon points="15.59 4.03 15.71 3.89 15.76 4.06 15.59 4.03" style="fill: #828282;"/>
          <polygon points="16.41 4.17 16.51 4.04 16.57 4.2 16.41 4.17" style="fill: #828282;"/>
          <polygon points="17.22 4.31 17.32 4.19 17.38 4.35 17.22 4.31" style="fill: #828282;"/>
          <polygon points="18.02 4.46 18.13 4.33 18.19 4.49 18.02 4.46" style="fill: #828282;"/>
          <polygon points="18.83 4.6 18.94 4.47 19 4.63 18.83 4.6" style="fill: #828282;"/>
          <polygon points="19.64 4.75 19.75 4.62 19.81 4.78 19.64 4.75" style="fill: #828282;"/>
          <polygon points="20.45 4.89 20.56 4.76 20.62 4.92 20.45 4.89" style="fill: #828282;"/>
          <polygon points="21.26 5.03 21.37 4.91 21.43 5.06 21.26 5.03" style="fill: #828282;"/>
          <polygon points="22.07 5.18 22.18 5.05 22.24 5.21 22.07 5.18" style="fill: #828282;"/>
          <polygon points="22.88 5.32 22.99 5.19 23.05 5.35 22.88 5.32" style="fill: #828282;"/>
          <polygon points="23.69 5.46 23.8 5.34 23.86 5.49 23.69 5.46" style="fill: #828282;"/>
          <polygon points="2.9 2.61 3.01 2.48 3.07 2.64 2.9 2.61" style="fill: #828282;"/>
          <polygon points="3.71 2.75 3.82 2.62 3.88 2.78 3.71 2.75" style="fill: #828282;"/>
          <polygon points="4.52 2.9 4.63 2.77 4.69 2.93 4.52 2.9" style="fill: #828282;"/>
          <polygon points="5.33 3.04 5.44 2.91 5.5 3.07 5.33 3.04" style="fill: #828282;"/>
          <polygon points="6.14 3.18 6.25 3.06 6.31 3.21 6.14 3.18" style="fill: #828282;"/>
          <polygon points="6.95 3.33 7.06 3.2 7.12 3.36 6.95 3.33" style="fill: #828282;"/>
          <polygon points="7.76 3.47 7.87 3.34 7.93 3.5 7.76 3.47" style="fill: #828282;"/>
          <polygon points="8.57 3.62 8.68 3.49 8.74 3.65 8.57 3.62" style="fill: #828282;"/>
          <polygon points="9.38 3.76 9.49 3.63 9.55 3.79 9.38 3.76" style="fill: #828282;"/>
          <polygon points="10.19 3.9 10.3 3.77 10.36 3.94 10.19 3.9" style="fill: #828282;"/>
          <polygon points="10.98 4.06 11.11 3.91 11.18 4.09 10.98 4.06" style="fill: #828282;"/>
          <polygon points="11.78 4.21 11.92 4.04 11.99 4.24 11.78 4.21" style="fill: #828282;"/>
          <polygon points="12.59 4.35 12.73 4.18 12.81 4.39 12.59 4.35" style="fill: #828282;"/>
          <polygon points="13.39 4.5 13.54 4.32 13.62 4.54 13.39 4.5" style="fill: #828282;"/>
          <polygon points="14.2 4.64 14.35 4.46 14.43 4.68 14.2 4.64" style="fill: #828282;"/>
          <polygon points="15.01 4.79 15.16 4.61 15.24 4.83 15.01 4.79" style="fill: #828282;"/>
          <polygon points="15.82 4.93 15.97 4.76 16.05 4.97 15.82 4.93" style="fill: #828282;"/>
          <polygon points="16.64 5.07 16.78 4.9 16.85 5.1 16.64 5.07" style="fill: #828282;"/>
          <polygon points="17.46 5.21 17.59 5.06 17.65 5.24 17.46 5.21" style="fill: #828282;"/>
          <polygon points="18.28 5.34 18.39 5.21 18.45 5.37 18.28 5.34" style="fill: #828282;"/>
          <polygon points="19.1 5.48 19.2 5.36 19.26 5.51 19.1 5.48" style="fill: #828282;"/>
          <polygon points="19.91 5.63 20.01 5.5 20.07 5.66 19.91 5.63" style="fill: #828282;"/>
          <polygon points="20.71 5.77 20.82 5.64 20.88 5.8 20.71 5.77" style="fill: #828282;"/>
          <polygon points="21.52 5.92 21.63 5.79 21.69 5.94 21.52 5.92" style="fill: #828282;"/>
          <polygon points="22.33 6.06 22.44 5.93 22.5 6.09 22.33 6.06" style="fill: #828282;"/>
          <polygon points="23.14 6.2 23.25 6.07 23.31 6.23 23.14 6.2" style="fill: #828282;"/>
          <polygon points="23.95 6.35 24.06 6.22 24.12 6.38 23.95 6.35" style="fill: #828282;"/>
          <polygon points="3.17 3.49 3.27 3.36 3.33 3.52 3.17 3.49" style="fill: #828282;"/>
          <polygon points="3.98 3.63 4.08 3.51 4.14 3.66 3.98 3.63" style="fill: #828282;"/>
          <polygon points="4.78 3.78 4.89 3.65 4.95 3.81 4.78 3.78" style="fill: #828282;"/>
          <polygon points="5.59 3.92 5.7 3.79 5.76 3.95 5.59 3.92" style="fill: #828282;"/>
          <polygon points="6.4 4.07 6.51 3.94 6.57 4.1 6.4 4.07" style="fill: #828282;"/>
          <polygon points="7.21 4.21 7.32 4.08 7.38 4.24 7.21 4.21" style="fill: #828282;"/>
          <polygon points="8.02 4.35 8.13 4.22 8.19 4.38 8.02 4.35" style="fill: #828282;"/>
          <polygon points="8.82 4.5 8.94 4.36 9 4.54 8.82 4.5" style="fill: #828282;"/>
          <polygon points="9.61 4.66 9.75 4.49 9.83 4.69 9.61 4.66" style="fill: #828282;"/>
          <polygon points="10.41 4.81 10.56 4.63 10.65 4.85 10.41 4.81" style="fill: #828282;"/>
          <polygon points="11.21 4.96 11.38 4.76 11.46 5 11.21 4.96" style="fill: #828282;"/>
          <polygon points="12.01 5.11 12.19 4.9 12.28 5.15 12.01 5.11" style="fill: #828282;"/>
          <polygon points="12.81 5.26 13 5.04 13.09 5.3 12.81 5.26" style="fill: #828282;"/>
          <polygon points="13.62 5.4 13.81 5.18 13.9 5.45 13.62 5.4" style="fill: #828282;"/>
          <polygon points="14.43 5.54 14.62 5.32 14.71 5.59 14.43 5.54" style="fill: #828282;"/>
          <polygon points="15.25 5.68 15.42 5.47 15.52 5.73 15.25 5.68" style="fill: #828282;"/>
          <polygon points="16.07 5.82 16.23 5.62 16.32 5.86 16.07 5.82" style="fill: #828282;"/>
          <polygon points="16.89 5.96 17.04 5.78 17.12 6 16.89 5.96" style="fill: #828282;"/>
          <polygon points="17.71 6.09 17.85 5.93 17.92 6.13 17.71 6.09" style="fill: #828282;"/>
          <polygon points="18.54 6.23 18.66 6.08 18.72 6.26 18.54 6.23" style="fill: #828282;"/>
          <polygon points="19.36 6.37 19.46 6.24 19.52 6.4 19.36 6.37" style="fill: #828282;"/>
          <polygon points="20.17 6.51 20.27 6.38 20.33 6.54 20.17 6.51" style="fill: #828282;"/>
          <polygon points="20.98 6.65 21.08 6.52 21.14 6.68 20.98 6.65" style="fill: #828282;"/>
          <polygon points="21.79 6.8 21.89 6.67 21.95 6.83 21.79 6.8" style="fill: #828282;"/>
          <polygon points="22.59 6.94 22.7 6.81 22.76 6.97 22.59 6.94" style="fill: #828282;"/>
          <polygon points="23.4 7.08 23.51 6.96 23.57 7.11 23.4 7.08" style="fill: #828282;"/>
          <polygon points="2.62 4.23 2.72 4.1 2.78 4.26 2.62 4.23" style="fill: #828282;"/>
          <polygon points="3.43 4.37 3.53 4.24 3.59 4.4 3.43 4.37" style="fill: #828282;"/>
          <polygon points="4.24 4.52 4.34 4.39 4.4 4.55 4.24 4.52" style="fill: #828282;"/>
          <polygon points="5.05 4.66 5.15 4.53 5.21 4.69 5.05 4.66" style="fill: #828282;"/>
          <polygon points="5.86 4.8 5.96 4.67 6.02 4.83 5.86 4.8" style="fill: #828282;"/>
          <polygon points="6.67 4.95 6.77 4.82 6.83 4.98 6.67 4.95" style="fill: #828282;"/>
          <polygon points="7.47 5.09 7.58 4.96 7.64 5.12 7.47 5.09" style="fill: #828282;"/>
          <polygon points="8.27 5.24 8.39 5.1 8.46 5.28 8.27 5.24" style="fill: #828282;"/>
          <polygon points="9.06 5.4 9.21 5.23 9.28 5.44 9.06 5.4" style="fill: #828282;"/>
          <polygon points="9.85 5.55 10.02 5.36 10.11 5.6 9.85 5.55" style="fill: #828282;"/>
          <polygon points="10.65 5.71 10.83 5.49 10.93 5.75 10.65 5.71" style="fill: #828282;"/>
          <polygon points="11.44 5.86 11.64 5.62 11.75 5.91 11.44 5.86" style="fill: #828282;"/>
          <polygon points="12.24 6.01 12.45 5.76 12.56 6.06 12.24 6.01" style="fill: #828282;"/>
          <polygon points="13.05 6.15 13.26 5.9 13.38 6.21 13.05 6.15" style="fill: #828282;"/>
          <polygon points="13.85 6.3 14.07 6.04 14.19 6.36 13.85 6.3" style="fill: #828282;"/>
          <polygon points="14.66 6.44 14.88 6.19 15 6.5 14.66 6.44" style="fill: #828282;"/>
          <polygon points="15.48 6.58 15.69 6.33 15.8 6.64 15.48 6.58" style="fill: #828282;"/>
          <polygon points="16.3 6.72 16.5 6.48 16.6 6.77 16.3 6.72" style="fill: #828282;"/>
          <polygon points="17.12 6.85 17.31 6.64 17.4 6.9 17.12 6.85" style="fill: #828282;"/>
          <polygon points="17.95 6.99 18.11 6.79 18.2 7.03 17.95 6.99" style="fill: #828282;"/>
          <polygon points="18.78 7.12 18.92 6.95 19 7.16 18.78 7.12" style="fill: #828282;"/>
          <polygon points="19.6 7.25 19.73 7.11 19.79 7.29 19.6 7.25" style="fill: #828282;"/>
          <polygon points="20.43 7.39 20.53 7.26 20.59 7.42 20.43 7.39" style="fill: #828282;"/>
          <polygon points="21.24 7.53 21.34 7.41 21.4 7.56 21.24 7.53" style="fill: #828282;"/>
          <polygon points="22.05 7.68 22.15 7.55 22.21 7.71 22.05 7.68" style="fill: #828282;"/>
          <polygon points="22.86 7.82 22.96 7.69 23.02 7.85 22.86 7.82" style="fill: #828282;"/>
          <polygon points="23.66 7.96 23.77 7.84 23.83 7.99 23.66 7.96" style="fill: #828282;"/>
          <polygon points="2.88 5.11 2.99 4.98 3.04 5.14 2.88 5.11" style="fill: #828282;"/>
          <polygon points="3.69 5.25 3.8 5.12 3.85 5.28 3.69 5.25" style="fill: #828282;"/>
          <polygon points="4.5 5.4 4.6 5.27 4.66 5.43 4.5 5.4" style="fill: #828282;"/>
          <polygon points="5.31 5.54 5.41 5.41 5.47 5.57 5.31 5.54" style="fill: #828282;"/>
          <polygon points="6.12 5.68 6.22 5.56 6.28 5.71 6.12 5.68" style="fill: #828282;"/>
          <polygon points="6.92 5.83 7.04 5.69 7.1 5.87 6.92 5.83" style="fill: #828282;"/>
          <polygon points="7.7 5.99 7.85 5.82 7.92 6.03 7.7 5.99" style="fill: #828282;"/>
          <polygon points="8.49 6.15 8.66 5.95 8.75 6.19 8.49 6.15" style="fill: #828282;"/>
          <polygon points="9.28 6.3 9.47 6.08 9.57 6.35 9.28 6.3" style="fill: #828282;"/>
          <polygon points="10.07 6.46 10.28 6.21 10.4 6.52 10.07 6.46" style="fill: #828282;"/>
          <polygon points="10.87 6.61 11.1 6.34 11.22 6.67 10.87 6.61" style="fill: #828282;"/>
          <polygon points="11.66 6.76 11.91 6.47 12.04 6.83 11.66 6.76" style="fill: #828282;"/>
          <polygon points="12.46 6.91 12.72 6.61 12.85 6.98 12.46 6.91" style="fill: #828282;"/>
          <polygon points="13.27 7.06 13.53 6.75 13.66 7.13 13.27 7.06" style="fill: #828282;"/>
          <polygon points="14.08 7.2 14.34 6.9 14.47 7.27 14.08 7.2" style="fill: #828282;"/>
          <polygon points="14.9 7.34 15.14 7.05 15.27 7.4 14.9 7.34" style="fill: #828282;"/>
          <polygon points="15.72 7.47 15.95 7.2 16.07 7.53 15.72 7.47" style="fill: #828282;"/>
          <polygon points="16.55 7.61 16.76 7.36 16.87 7.66 16.55 7.61" style="fill: #828282;"/>
          <polygon points="17.38 7.74 17.57 7.51 17.67 7.79 17.38 7.74" style="fill: #828282;"/>
          <polygon points="18.21 7.87 18.38 7.67 18.46 7.92 18.21 7.87" style="fill: #828282;"/>
          <polygon points="19.04 8 19.18 7.83 19.26 8.04 19.04 8" style="fill: #828282;"/>
          <polygon points="19.87 8.13 19.99 7.99 20.05 8.17 19.87 8.13" style="fill: #828282;"/>
          <polygon points="20.69 8.27 20.8 8.14 20.85 8.3 20.69 8.27" style="fill: #828282;"/>
          <polygon points="21.5 8.42 21.6 8.29 21.66 8.44 21.5 8.42" style="fill: #828282;"/>
          <polygon points="22.31 8.56 22.41 8.43 22.47 8.59 22.31 8.56" style="fill: #828282;"/>
          <polygon points="23.12 8.7 23.22 8.58 23.28 8.73 23.12 8.7" style="fill: #828282;"/>
          <polygon points="2.33 5.85 2.44 5.72 2.5 5.88 2.33 5.85" style="fill: #828282;"/>
          <polygon points="3.14 5.99 3.25 5.86 3.3 6.02 3.14 5.99" style="fill: #828282;"/>
          <polygon points="3.95 6.13 4.06 6.01 4.11 6.16 3.95 6.13" style="fill: #828282;"/>
          <polygon points="4.76 6.28 4.87 6.15 4.92 6.31 4.76 6.28" style="fill: #828282;"/>
          <polygon points="5.57 6.42 5.67 6.29 5.73 6.45 5.57 6.42" style="fill: #828282;"/>
          <polygon points="6.37 6.57 6.49 6.44 6.55 6.6 6.37 6.57" style="fill: #828282;"/>
          <polygon points="7.16 6.73 7.3 6.56 7.37 6.77 7.16 6.73" style="fill: #828282;"/>
          <polygon points="7.94 6.88 8.11 6.69 8.2 6.93 7.94 6.88" style="fill: #828282;"/>
          <polygon points="8.73 7.04 8.92 6.81 9.03 7.09 8.73 7.04" style="fill: #828282;"/>
          <polygon points="9.52 7.2 9.74 6.94 9.85 7.26 9.52 7.2" style="fill: #828282;"/>
          <polygon points="10.31 7.35 10.55 7.07 10.68 7.42 10.31 7.35" style="fill: #828282;"/>
          <polygon points="11.1 7.51 11.36 7.2 11.5 7.58 11.1 7.51" style="fill: #828282;"/>
          <polygon points="11.89 7.66 12.17 7.33 12.32 7.74 11.89 7.66" style="fill: #828282;"/>
          <polygon points="12.69 7.81 12.98 7.47 13.14 7.89 12.69 7.81" style="fill: #828282;"/>
          <polygon points="13.5 7.96 13.79 7.61 13.95 8.04 13.5 7.96" style="fill: #828282;"/>
          <polygon points="14.31 8.1 14.6 7.75 14.76 8.18 14.31 8.1" style="fill: #828282;"/>
          <polygon points="15.13 8.24 15.41 7.9 15.56 8.31 15.13 8.24" style="fill: #828282;"/>
          <polygon points="15.95 8.37 16.22 8.06 16.36 8.44 15.95 8.37" style="fill: #828282;"/>
          <polygon points="16.78 8.51 17.03 8.22 17.15 8.57 16.78 8.51" style="fill: #828282;"/>
          <polygon points="17.62 8.63 17.83 8.38 17.95 8.69 17.62 8.63" style="fill: #828282;"/>
          <polygon points="18.45 8.77 18.64 8.54 18.74 8.82 18.45 8.77" style="fill: #828282;"/>
          <polygon points="19.28 8.9 19.44 8.7 19.53 8.94 19.28 8.9" style="fill: #828282;"/>
          <polygon points="20.11 9.03 20.25 8.86 20.32 9.06 20.11 9.03" style="fill: #828282;"/>
          <polygon points="20.95 9.15 21.06 9.02 21.12 9.18 20.95 9.15" style="fill: #828282;"/>
          <polygon points="21.76 9.3 21.87 9.17 21.92 9.33 21.76 9.3" style="fill: #828282;"/>
          <polygon points="22.57 9.44 22.68 9.31 22.73 9.47 22.57 9.44" style="fill: #828282;"/>
          <polygon points="23.38 9.58 23.48 9.46 23.54 9.61 23.38 9.58" style="fill: #828282;"/>
          <polygon points="2.59 6.73 2.7 6.6 2.76 6.76 2.59 6.73" style="fill: #828282;"/>
          <polygon points="3.4 6.87 3.51 6.74 3.57 6.9 3.4 6.87" style="fill: #828282;"/>
          <polygon points="4.21 7.02 4.32 6.89 4.37 7.05 4.21 7.02" style="fill: #828282;"/>
          <polygon points="5.02 7.16 5.13 7.03 5.18 7.19 5.02 7.16" style="fill: #828282;"/>
          <polygon points="5.81 7.31 5.94 7.16 6.01 7.35 5.81 7.31" style="fill: #828282;"/>
          <polygon points="6.59 7.47 6.75 7.29 6.84 7.52 6.59 7.47" style="fill: #828282;"/>
          <polygon points="7.38 7.63 7.57 7.41 7.66 7.68 7.38 7.63" style="fill: #828282;"/>
          <polygon points="8.16 7.79 8.38 7.53 8.49 7.85 8.16 7.79" style="fill: #828282;"/>
          <polygon points="8.94 7.95 9.19 7.66 9.32 8.02 8.94 7.95" style="fill: #828282;"/>
          <polygon points="9.73 8.11 10 7.78 10.15 8.18 9.73 8.11" style="fill: #828282;"/>
          <polygon points="10.52 8.27 10.82 7.91 10.98 8.35 10.52 8.27" style="fill: #828282;"/>
          <polygon points="11.31 8.42 11.63 8.04 11.8 8.51 11.31 8.42" style="fill: #828282;"/>
          <polygon points="12.1 8.57 12.44 8.17 12.62 8.67 12.1 8.57" style="fill: #828282;"/>
          <polygon points="12.91 8.72 13.25 8.31 13.43 8.81 12.91 8.72" style="fill: #828282;"/>
          <polygon points="13.72 8.86 14.06 8.46 14.24 8.95 13.72 8.86" style="fill: #828282;"/>
          <polygon points="14.55 9 14.87 8.62 15.04 9.09 14.55 9" style="fill: #828282;"/>
          <polygon points="15.37 9.13 15.67 8.77 15.83 9.21 15.37 9.13" style="fill: #828282;"/>
          <polygon points="16.21 9.26 16.48 8.93 16.63 9.33 16.21 9.26" style="fill: #828282;"/>
          <polygon points="17.04 9.39 17.29 9.1 17.42 9.45 17.04 9.39" style="fill: #828282;"/>
          <polygon points="17.88 9.52 18.09 9.26 18.21 9.58 17.88 9.52" style="fill: #828282;"/>
          <polygon points="18.71 9.65 18.9 9.42 19 9.69 18.71 9.65" style="fill: #828282;"/>
          <polygon points="19.55 9.77 19.7 9.59 19.79 9.81 19.55 9.77" style="fill: #828282;"/>
          <polygon points="20.38 9.9 20.51 9.75 20.58 9.93 20.38 9.9" style="fill: #828282;"/>
          <polygon points="21.21 10.03 21.32 9.91 21.38 10.06 21.21 10.03" style="fill: #828282;"/>
          <polygon points="22.02 10.18 22.13 10.05 22.18 10.21 22.02 10.18" style="fill: #828282;"/>
          <polygon points="22.83 10.32 22.94 10.19 22.99 10.35 22.83 10.32" style="fill: #828282;"/>
          <polygon points="2.04 7.47 2.15 7.34 2.21 7.5 2.04 7.47" style="fill: #828282;"/>
          <polygon points="2.85 7.61 2.96 7.48 3.02 7.64 2.85 7.61" style="fill: #828282;"/>
          <polygon points="3.66 7.75 3.77 7.63 3.83 7.78 3.66 7.75" style="fill: #828282;"/>
          <polygon points="4.47 7.9 4.58 7.77 4.64 7.93 4.47 7.9" style="fill: #828282;"/>
          <polygon points="5.28 8.04 5.39 7.91 5.45 8.07 5.28 8.04" style="fill: #828282;"/>
          <polygon points="6.06 8.2 6.2 8.03 6.28 8.24 6.06 8.2" style="fill: #828282;"/>
          <polygon points="6.84 8.36 7.01 8.16 7.11 8.41 6.84 8.36" style="fill: #828282;"/>
          <polygon points="7.62 8.52 7.83 8.28 7.94 8.58 7.62 8.52" style="fill: #828282;"/>
          <polygon points="8.4 8.68 8.64 8.4 8.77 8.75 8.4 8.68" style="fill: #828282;"/>
          <polygon points="9.18 8.85 9.46 8.52 9.6 8.92 9.18 8.85" style="fill: #828282;"/>
          <polygon points="9.96 9.01 10.27 8.64 10.43 9.09 9.96 9.01" style="fill: #828282;"/>
          <polygon points="10.74 9.17 11.08 8.77 11.26 9.26 10.74 9.17" style="fill: #828282;"/>
          <polygon points="11.53 9.33 11.89 8.89 12.09 9.43 11.53 9.33" style="fill: #828282;"/>
          <polygon points="12.32 9.48 12.71 9.02 12.91 9.58 12.32 9.48" style="fill: #828282;"/>
          <polygon points="13.12 9.63 13.52 9.16 13.73 9.74 13.12 9.63" style="fill: #828282;"/>
          <polygon points="13.94 9.77 14.32 9.31 14.53 9.87 13.94 9.77" style="fill: #828282;"/>
          <polygon points="14.77 9.9 15.13 9.47 15.33 10 14.77 9.9" style="fill: #828282;"/>
          <polygon points="15.6 10.03 15.94 9.63 16.12 10.12 15.6 10.03" style="fill: #828282;"/>
          <polygon points="16.44 10.16 16.75 9.79 16.91 10.24 16.44 10.16" style="fill: #828282;"/>
          <polygon points="17.28 10.28 17.55 9.96 17.69 10.36 17.28 10.28" style="fill: #828282;"/>
          <polygon points="18.12 10.41 18.36 10.13 18.48 10.47 18.12 10.41" style="fill: #828282;"/>
          <polygon points="18.96 10.53 19.16 10.29 19.27 10.59 18.96 10.53" style="fill: #828282;"/>
          <polygon points="19.8 10.66 19.97 10.46 20.06 10.71 19.8 10.66" style="fill: #828282;"/>
          <polygon points="20.63 10.79 20.77 10.62 20.85 10.83 20.63 10.79" style="fill: #828282;"/>
          <polygon points="21.47 10.92 21.58 10.79 21.64 10.95 21.47 10.92" style="fill: #828282;"/>
          <polygon points="22.28 11.06 22.39 10.93 22.45 11.09 22.28 11.06" style="fill: #828282;"/>
          <polygon points="23.09 11.2 23.2 11.08 23.26 11.23 23.09 11.2" style="fill: #828282;"/>
          <polygon points="2.3 8.35 2.41 8.22 2.47 8.38 2.3 8.35" style="fill: #828282;"/>
          <polygon points="3.11 8.49 3.22 8.36 3.28 8.52 3.11 8.49" style="fill: #828282;"/>
          <polygon points="3.92 8.63 4.03 8.51 4.09 8.66 3.92 8.63" style="fill: #828282;"/>
          <polygon points="4.72 8.79 4.84 8.64 4.91 8.82 4.72 8.79" style="fill: #828282;"/>
          <polygon points="5.5 8.95 5.66 8.76 5.74 8.99 5.5 8.95" style="fill: #828282;"/>
          <polygon points="6.28 9.11 6.47 8.88 6.57 9.16 6.28 9.11" style="fill: #828282;"/>
          <polygon points="7.06 9.27 7.28 9.01 7.4 9.33 7.06 9.27" style="fill: #828282;"/>
          <polygon points="7.84 9.43 8.1 9.12 8.23 9.5 7.84 9.43" style="fill: #828282;"/>
          <polygon points="8.61 9.6 8.91 9.24 9.07 9.68 8.61 9.6" style="fill: #828282;"/>
          <polygon points="9.39 9.76 9.72 9.36 9.9 9.86 9.39 9.76" style="fill: #828282;"/>
          <polygon points="10.16 9.93 10.54 9.48 10.74 10.03 10.16 9.93" style="fill: #828282;"/>
          <polygon points="10.94 10.09 11.35 9.6 11.57 10.2 10.94 10.09" style="fill: #828282;"/>
          <polygon points="11.74 10.24 12.16 9.73 12.39 10.36 11.74 10.24" style="fill: #828282;"/>
          <polygon points="12.55 10.38 12.97 9.88 13.2 10.5 12.55 10.38" style="fill: #828282;"/>
          <polygon points="13.35 10.53 13.78 10.02 14.01 10.64 13.35 10.53" style="fill: #828282;"/>
          <polygon points="14.18 10.67 14.59 10.17 14.81 10.78 14.18 10.67" style="fill: #828282;"/>
          <polygon points="15.02 10.79 15.4 10.34 15.6 10.89 15.02 10.79" style="fill: #828282;"/>
          <polygon points="15.86 10.91 16.2 10.51 16.38 11 15.86 10.91" style="fill: #828282;"/>
          <polygon points="16.71 11.03 17.01 10.68 17.16 11.12 16.71 11.03" style="fill: #828282;"/>
          <polygon points="17.55 11.16 17.81 10.85 17.95 11.23 17.55 11.16" style="fill: #828282;"/>
          <polygon points="18.4 11.28 18.61 11.02 18.73 11.34 18.4 11.28" style="fill: #828282;"/>
          <polygon points="19.23 11.41 19.42 11.18 19.52 11.46 19.23 11.41" style="fill: #828282;"/>
          <polygon points="20.07 11.53 20.23 11.35 20.31 11.57 20.07 11.53" style="fill: #828282;"/>
          <polygon points="20.91 11.66 21.03 11.52 21.09 11.69 20.91 11.66" style="fill: #828282;"/>
          <polygon points="21.73 11.8 21.84 11.67 21.9 11.83 21.73 11.8" style="fill: #828282;"/>
          <polygon points="22.54 11.94 22.65 11.81 22.71 11.97 22.54 11.94" style="fill: #828282;"/>
          <polygon points="1.75 9.08 1.86 8.96 1.92 9.11 1.75 9.08" style="fill: #828282;"/>
          <polygon points="2.56 9.23 2.67 9.1 2.73 9.26 2.56 9.23" style="fill: #828282;"/>
          <polygon points="3.37 9.37 3.48 9.24 3.54 9.4 3.37 9.37" style="fill: #828282;"/>
          <polygon points="4.18 9.52 4.29 9.39 4.35 9.55 4.18 9.52" style="fill: #828282;"/>
          <polygon points="4.97 9.67 5.1 9.52 5.17 9.71 4.97 9.67" style="fill: #828282;"/>
          <polygon points="5.75 9.83 5.92 9.64 6 9.88 5.75 9.83" style="fill: #828282;"/>
          <polygon points="6.53 10 6.73 9.76 6.84 10.05 6.53 10" style="fill: #828282;"/>
          <polygon points="7.31 10.16 7.54 9.88 7.67 10.22 7.31 10.16" style="fill: #828282;"/>
          <polygon points="8.08 10.32 8.36 10 8.5 10.4 8.08 10.32" style="fill: #828282;"/>
          <polygon points="8.85 10.49 9.17 10.11 9.34 10.58 8.85 10.49" style="fill: #828282;"/>
          <polygon points="9.62 10.66 9.99 10.22 10.18 10.76 9.62 10.66" style="fill: #828282;"/>
          <polygon points="10.39 10.83 10.8 10.33 11.03 10.94 10.39 10.83" style="fill: #828282;"/>
          <polygon points="11.19 10.98 11.62 10.47 11.84 11.09 11.19 10.98" style="fill: #828282;"/>
          <polygon points="12 11.12 12.42 10.61 12.65 11.24 12 11.12" style="fill: #828282;"/>
          <polygon points="12.81 11.27 13.23 10.76 13.46 11.38 12.81 11.27" style="fill: #828282;"/>
          <polygon points="13.62 11.41 14.04 10.9 14.27 11.52 13.62 11.41" style="fill: #828282;"/>
          <polygon points="14.42 11.55 14.85 11.04 15.08 11.67 14.42 11.55" style="fill: #828282;"/>
          <polygon points="15.25 11.69 15.66 11.2 15.88 11.8 15.25 11.69" style="fill: #828282;"/>
          <polygon points="16.1 11.81 16.46 11.37 16.66 11.91 16.1 11.81" style="fill: #828282;"/>
          <polygon points="16.95 11.93 17.27 11.55 17.44 12.01 16.95 11.93" style="fill: #828282;"/>
          <polygon points="17.8 12.05 18.07 11.72 18.22 12.12 17.8 12.05" style="fill: #828282;"/>
          <polygon points="18.64 12.17 18.88 11.89 19 12.23 18.64 12.17" style="fill: #828282;"/>
          <polygon points="19.49 12.3 19.68 12.06 19.79 12.35 19.49 12.3" style="fill: #828282;"/>
          <polygon points="20.33 12.42 20.49 12.23 20.57 12.46 20.33 12.42" style="fill: #828282;"/>
          <polygon points="21.17 12.55 21.29 12.39 21.36 12.58 21.17 12.55" style="fill: #828282;"/>
          <polygon points="21.99 12.68 22.1 12.55 22.16 12.71 21.99 12.68" style="fill: #828282;"/>
          <polygon points="22.8 12.82 22.91 12.69 22.97 12.85 22.8 12.82" style="fill: #828282;"/>
          <polygon points="2.02 9.97 2.12 9.84 2.18 10 2.02 9.97" style="fill: #828282;"/>
          <polygon points="2.83 10.11 2.93 9.98 2.99 10.14 2.83 10.11" style="fill: #828282;"/>
          <polygon points="3.63 10.25 3.74 10.13 3.8 10.28 3.63 10.25" style="fill: #828282;"/>
          <polygon points="4.42 10.41 4.56 10.25 4.63 10.45 4.42 10.41" style="fill: #828282;"/>
          <polygon points="5.2 10.57 5.37 10.37 5.46 10.62 5.2 10.57" style="fill: #828282;"/>
          <polygon points="5.98 10.74 6.18 10.49 6.29 10.79 5.98 10.74" style="fill: #828282;"/>
          <polygon points="6.75 10.9 7 10.61 7.13 10.97 6.75 10.9" style="fill: #828282;"/>
          <polygon points="7.52 11.07 7.81 10.72 7.96 11.15 7.52 11.07" style="fill: #828282;"/>
          <polygon points="8.29 11.24 8.63 10.84 8.81 11.33 8.29 11.24" style="fill: #828282;"/>
          <polygon points="9.05 11.41 9.44 10.94 9.65 11.51 9.05 11.41" style="fill: #828282;"/>
          <polygon points="9.83 11.57 10.26 11.06 10.48 11.69 9.83 11.57" style="fill: #828282;"/>
          <polygon points="10.64 11.72 11.07 11.21 11.29 11.83 10.64 11.72" style="fill: #828282;"/>
          <polygon points="11.45 11.86 11.88 11.35 12.1 11.98 11.45 11.86" style="fill: #828282;"/>
          <polygon points="12.26 12 12.69 11.49 12.91 12.12 12.26 12" style="fill: #828282;"/>
          <polygon points="13.07 12.15 13.49 11.64 13.72 12.26 13.07 12.15" style="fill: #828282;"/>
          <polygon points="13.88 12.29 14.31 11.78 14.53 12.41 13.88 12.29" style="fill: #828282;"/>
          <polygon points="14.69 12.43 15.11 11.92 15.34 12.55 14.69 12.43" style="fill: #828282;"/>
          <polygon points="15.53 12.56 15.92 12.1 16.13 12.66 15.53 12.56" style="fill: #828282;"/>
          <polygon points="16.39 12.67 16.72 12.28 16.9 12.76 16.39 12.67" style="fill: #828282;"/>
          <polygon points="17.24 12.79 17.53 12.45 17.68 12.87 17.24 12.79" style="fill: #828282;"/>
          <polygon points="18.09 12.91 18.33 12.62 18.46 12.98 18.09 12.91" style="fill: #828282;"/>
          <polygon points="18.93 13.04 19.14 12.79 19.24 13.09 18.93 13.04" style="fill: #828282;"/>
          <polygon points="19.77 13.16 19.94 12.96 20.03 13.2 19.77 13.16" style="fill: #828282;"/>
          <polygon points="20.61 13.29 20.75 13.13 20.82 13.32 20.61 13.29" style="fill: #828282;"/>
          <polygon points="21.44 13.42 21.55 13.29 21.61 13.45 21.44 13.42" style="fill: #828282;"/>
          <polygon points="22.25 13.56 22.36 13.43 22.42 13.59 22.25 13.56" style="fill: #828282;"/>
          <polygon points="1.47 10.7 1.57 10.58 1.63 10.73 1.47 10.7" style="fill: #828282;"/>
          <polygon points="2.28 10.85 2.38 10.72 2.44 10.88 2.28 10.85" style="fill: #828282;"/>
          <polygon points="3.09 10.99 3.19 10.86 3.25 11.02 3.09 10.99" style="fill: #828282;"/>
          <polygon points="3.9 11.13 4 11.01 4.06 11.17 3.9 11.13" style="fill: #828282;"/>
          <polygon points="4.68 11.3 4.82 11.13 4.89 11.33 4.68 11.3" style="fill: #828282;"/>
          <polygon points="5.46 11.46 5.63 11.25 5.72 11.51 5.46 11.46" style="fill: #828282;"/>
          <polygon points="6.23 11.62 6.44 11.37 6.56 11.68 6.23 11.62" style="fill: #828282;"/>
          <polygon points="7.01 11.79 7.26 11.49 7.39 11.86 7.01 11.79" style="fill: #828282;"/>
          <polygon points="7.78 11.95 8.07 11.6 8.23 12.03 7.78 11.95" style="fill: #828282;"/>
          <polygon points="8.54 12.12 8.89 11.71 9.07 12.22 8.54 12.12" style="fill: #828282;"/>
          <polygon points="9.3 12.3 9.71 11.82 9.92 12.41 9.3 12.3" style="fill: #828282;"/>
          <polygon points="10.09 12.45 10.52 11.94 10.74 12.57 10.09 12.45" style="fill: #828282;"/>
          <polygon points="10.9 12.6 11.33 12.09 11.55 12.71 10.9 12.6" style="fill: #828282;"/>
          <polygon points="11.71 12.74 12.14 12.23 12.36 12.86 11.71 12.74" style="fill: #828282;"/>
          <polygon points="12.52 12.88 12.95 12.38 13.17 13 12.52 12.88" style="fill: #828282;"/>
          <polygon points="13.33 13.03 13.76 12.52 13.98 13.14 13.33 13.03" style="fill: #828282;"/>
          <polygon points="14.14 13.17 14.57 12.66 14.79 13.29 14.14 13.17" style="fill: #828282;"/>
          <polygon points="14.95 13.32 15.38 12.81 15.6 13.43 14.95 13.32" style="fill: #828282;"/>
          <polygon points="15.78 13.45 16.18 12.97 16.4 13.56 15.78 13.45" style="fill: #828282;"/>
          <polygon points="16.64 13.56 16.98 13.15 17.17 13.65 16.64 13.56" style="fill: #828282;"/>
          <polygon points="17.49 13.68 17.79 13.33 17.94 13.76 17.49 13.68" style="fill: #828282;"/>
          <polygon points="18.34 13.8 18.59 13.5 18.72 13.87 18.34 13.8" style="fill: #828282;"/>
          <polygon points="19.19 13.92 19.4 13.67 19.51 13.98 19.19 13.92" style="fill: #828282;"/>
          <polygon points="20.03 14.04 20.2 13.84 20.29 14.09 20.03 14.04" style="fill: #828282;"/>
          <polygon points="20.87 14.17 21.01 14.01 21.08 14.21 20.87 14.17" style="fill: #828282;"/>
          <polygon points="21.71 14.3 21.81 14.17 21.87 14.33 21.71 14.3" style="fill: #828282;"/>
          <polygon points="22.51 14.44 22.62 14.31 22.68 14.47 22.51 14.44" style="fill: #828282;"/>
          <polygon points="1.73 11.59 1.84 11.46 1.89 11.62 1.73 11.59" style="fill: #828282;"/>
          <polygon points="2.54 11.73 2.65 11.6 2.7 11.76 2.54 11.73" style="fill: #828282;"/>
          <polygon points="3.35 11.87 3.46 11.75 3.51 11.9 3.35 11.87" style="fill: #828282;"/>
          <polygon points="4.13 12.03 4.27 11.87 4.34 12.07 4.13 12.03" style="fill: #828282;"/>
          <polygon points="4.91 12.2 5.08 11.99 5.18 12.24 4.91 12.2" style="fill: #828282;"/>
          <polygon points="5.68 12.36 5.9 12.11 6.01 12.42 5.68 12.36" style="fill: #828282;"/>
          <polygon points="6.46 12.52 6.71 12.22 6.84 12.59 6.46 12.52" style="fill: #828282;"/>
          <polygon points="7.23 12.69 7.53 12.34 7.68 12.77 7.23 12.69" style="fill: #828282;"/>
          <polygon points="7.99 12.86 8.34 12.45 8.53 12.96 7.99 12.86" style="fill: #828282;"/>
          <polygon points="8.75 13.04 9.16 12.55 9.37 13.15 8.75 13.04" style="fill: #828282;"/>
          <polygon points="9.54 13.19 9.97 12.68 10.2 13.31 9.54 13.19" style="fill: #828282;"/>
          <polygon points="10.35 13.33 10.78 12.83 11.01 13.45 10.35 13.33" style="fill: #828282;"/>
          <polygon points="11.16 13.48 11.59 12.97 11.82 13.59 11.16 13.48" style="fill: #828282;"/>
          <polygon points="11.97 13.62 12.4 13.11 12.62 13.74 11.97 13.62" style="fill: #828282;"/>
          <polygon points="12.78 13.77 13.21 13.26 13.43 13.88 12.78 13.77" style="fill: #828282;"/>
          <polygon points="13.59 13.91 14.02 13.4 14.24 14.02 13.59 13.91" style="fill: #828282;"/>
          <polygon points="14.4 14.05 14.83 13.55 15.05 14.17 14.4 14.05" style="fill: #828282;"/>
          <polygon points="15.23 14.19 15.63 13.7 15.85 14.29 15.23 14.19" style="fill: #828282;"/>
          <polygon points="16.09 14.3 16.44 13.88 16.62 14.4 16.09 14.3" style="fill: #828282;"/>
          <polygon points="16.94 14.42 17.24 14.06 17.4 14.5 16.94 14.42" style="fill: #828282;"/>
          <polygon points="17.79 14.54 18.04 14.24 18.18 14.6 17.79 14.54" style="fill: #828282;"/>
          <polygon points="18.64 14.66 18.85 14.41 18.96 14.71 18.64 14.66" style="fill: #828282;"/>
          <polygon points="19.48 14.78 19.65 14.58 19.75 14.83 19.48 14.78" style="fill: #828282;"/>
          <polygon points="20.32 14.91 20.46 14.74 20.53 14.94 20.32 14.91" style="fill: #828282;"/>
          <polygon points="21.16 15.04 21.26 14.91 21.32 15.07 21.16 15.04" style="fill: #828282;"/>
          <polygon points="21.97 15.18 22.07 15.05 22.13 15.21 21.97 15.18" style="fill: #828282;"/>
          <polygon points="1.18 12.32 1.29 12.2 1.35 12.35 1.18 12.32" style="fill: #828282;"/>
          <polygon points="1.99 12.47 2.1 12.34 2.15 12.5 1.99 12.47" style="fill: #828282;"/>
          <polygon points="2.8 12.61 2.91 12.48 2.96 12.64 2.8 12.61" style="fill: #828282;"/>
          <polygon points="3.61 12.76 3.72 12.63 3.77 12.78 3.61 12.76" style="fill: #828282;"/>
          <polygon points="4.39 12.91 4.53 12.75 4.6 12.95 4.39 12.91" style="fill: #828282;"/>
          <polygon points="5.17 13.08 5.34 12.87 5.43 13.12 5.17 13.08" style="fill: #828282;"/>
          <polygon points="5.95 13.24 6.16 12.99 6.27 13.3 5.95 13.24" style="fill: #828282;"/>
          <polygon points="6.72 13.4 6.97 13.11 7.1 13.47 6.72 13.4" style="fill: #828282;"/>
          <polygon points="7.49 13.57 7.79 13.22 7.94 13.65 7.49 13.57" style="fill: #828282;"/>
          <polygon points="8.26 13.74 8.6 13.33 8.78 13.83 8.26 13.74" style="fill: #828282;"/>
          <polygon points="9.02 13.91 9.42 13.44 9.63 14.02 9.02 13.91" style="fill: #828282;"/>
          <polygon points="9.8 14.07 10.23 13.56 10.46 14.19 9.8 14.07" style="fill: #828282;"/>
          <polygon points="10.61 14.22 11.04 13.71 11.27 14.33 10.61 14.22" style="fill: #828282;"/>
          <polygon points="11.42 14.36 11.85 13.85 12.08 14.48 11.42 14.36" style="fill: #828282;"/>
          <polygon points="12.23 14.5 12.66 14 12.89 14.62 12.23 14.5" style="fill: #828282;"/>
          <polygon points="13.04 14.65 13.47 14.14 13.7 14.76 13.04 14.65" style="fill: #828282;"/>
          <polygon points="13.85 14.79 14.28 14.28 14.5 14.91 13.85 14.79" style="fill: #828282;"/>
          <polygon points="14.66 14.94 15.09 14.43 15.31 15.05 14.66 14.94" style="fill: #828282;"/>
          <polygon points="15.5 15.06 15.89 14.59 16.1 15.17 15.5 15.06" style="fill: #828282;"/>
          <polygon points="16.36 15.18 16.7 14.77 16.88 15.27 16.36 15.18" style="fill: #828282;"/>
          <polygon points="17.21 15.29 17.5 14.95 17.65 15.37 17.21 15.29" style="fill: #828282;"/>
          <polygon points="18.06 15.41 18.3 15.12 18.44 15.48 18.06 15.41" style="fill: #828282;"/>
          <polygon points="18.9 15.54 19.11 15.29 19.22 15.59 18.9 15.54" style="fill: #828282;"/>
          <polygon points="19.74 15.66 19.91 15.46 20 15.71 19.74 15.66" style="fill: #828282;"/>
          <polygon points="20.58 15.79 20.72 15.63 20.79 15.82 20.58 15.79" style="fill: #828282;"/>
          <polygon points="21.42 15.92 21.53 15.79 21.58 15.95 21.42 15.92" style="fill: #828282;"/>
          <polygon points="22.23 16.06 22.34 15.93 22.39 16.09 22.23 16.06" style="fill: #828282;"/>
          <polygon points="1.44 13.21 1.55 13.08 1.61 13.24 1.44 13.21" style="fill: #828282;"/>
          <polygon points="2.25 13.35 2.36 13.22 2.42 13.38 2.25 13.35" style="fill: #828282;"/>
          <polygon points="3.06 13.49 3.17 13.36 3.22 13.52 3.06 13.49" style="fill: #828282;"/>
          <polygon points="3.85 13.65 3.98 13.49 4.05 13.68 3.85 13.65" style="fill: #828282;"/>
          <polygon points="4.63 13.81 4.79 13.61 4.88 13.86 4.63 13.81" style="fill: #828282;"/>
          <polygon points="5.41 13.97 5.61 13.73 5.71 14.03 5.41 13.97" style="fill: #828282;"/>
          <polygon points="6.18 14.14 6.42 13.85 6.55 14.2 6.18 14.14" style="fill: #828282;"/>
          <polygon points="6.95 14.3 7.23 13.97 7.39 14.38 6.95 14.3" style="fill: #828282;"/>
          <polygon points="7.72 14.47 8.05 14.08 8.23 14.56 7.72 14.47" style="fill: #828282;"/>
          <polygon points="8.49 14.64 8.87 14.19 9.07 14.74 8.49 14.64" style="fill: #828282;"/>
          <polygon points="9.25 14.81 9.68 14.3 9.91 14.93 9.25 14.81" style="fill: #828282;"/>
          <polygon points="10.06 14.95 10.49 14.45 10.72 15.07 10.06 14.95" style="fill: #828282;"/>
          <polygon points="10.87 15.1 11.3 14.59 11.53 15.21 10.87 15.1" style="fill: #828282;"/>
          <polygon points="11.68 15.24 12.11 14.73 12.34 15.36 11.68 15.24" style="fill: #828282;"/>
          <polygon points="12.49 15.39 12.92 14.88 13.15 15.5 12.49 15.39" style="fill: #828282;"/>
          <polygon points="13.3 15.53 13.73 15.02 13.96 15.65 13.3 15.53" style="fill: #828282;"/>
          <polygon points="14.11 15.67 14.54 15.16 14.77 15.79 14.11 15.67" style="fill: #828282;"/>
          <polygon points="14.97 15.79 15.34 15.34 15.54 15.89 14.97 15.79" style="fill: #828282;"/>
          <polygon points="15.82 15.91 16.15 15.52 16.32 15.99 15.82 15.91" style="fill: #828282;"/>
          <polygon points="16.67 16.03 16.95 15.69 17.1 16.1 16.67 16.03" style="fill: #828282;"/>
          <polygon points="17.52 16.15 17.75 15.87 17.88 16.21 17.52 16.15" style="fill: #828282;"/>
          <polygon points="18.36 16.27 18.56 16.03 18.67 16.32 18.36 16.27" style="fill: #828282;"/>
          <polygon points="19.2 16.4 19.37 16.2 19.45 16.44 19.2 16.4" style="fill: #828282;"/>
          <polygon points="20.04 16.52 20.17 16.37 20.24 16.56 20.04 16.52" style="fill: #828282;"/>
          <polygon points="20.87 16.65 20.98 16.53 21.03 16.68 20.87 16.65" style="fill: #828282;"/>
          <polygon points="21.68 16.8 21.79 16.67 21.84 16.83 21.68 16.8" style="fill: #828282;"/>
          <polygon points=".89 13.94 1 13.81 1.06 13.97 .89 13.94" style="fill: #828282;"/>
          <polygon points="1.7 14.09 1.81 13.96 1.87 14.12 1.7 14.09" style="fill: #828282;"/>
          <polygon points="2.51 14.23 2.62 14.1 2.68 14.26 2.51 14.23" style="fill: #828282;"/>
          <polygon points="3.32 14.37 3.43 14.25 3.49 14.4 3.32 14.37" style="fill: #828282;"/>
          <polygon points="4.11 14.53 4.24 14.38 4.31 14.56 4.11 14.53" style="fill: #828282;"/>
          <polygon points="4.9 14.69 5.05 14.5 5.14 14.73 4.9 14.69" style="fill: #828282;"/>
          <polygon points="5.67 14.85 5.87 14.62 5.97 14.9 5.67 14.85" style="fill: #828282;"/>
          <polygon points="6.45 15.01 6.68 14.74 6.8 15.07 6.45 15.01" style="fill: #828282;"/>
          <polygon points="7.23 15.18 7.5 14.86 7.64 15.25 7.23 15.18" style="fill: #828282;"/>
          <polygon points="8 15.34 8.31 14.98 8.47 15.43 8 15.34" style="fill: #828282;"/>
          <polygon points="8.77 15.51 9.12 15.09 9.31 15.6 8.77 15.51" style="fill: #828282;"/>
          <polygon points="9.54 15.67 9.94 15.21 10.15 15.78 9.54 15.67" style="fill: #828282;"/>
          <polygon points="10.32 15.84 10.75 15.33 10.98 15.95 10.32 15.84" style="fill: #828282;"/>
          <polygon points="11.13 15.98 11.56 15.47 11.79 16.1 11.13 15.98" style="fill: #828282;"/>
          <polygon points="11.94 16.12 12.37 15.61 12.6 16.24 11.94 16.12" style="fill: #828282;"/>
          <polygon points="12.75 16.27 13.18 15.76 13.41 16.38 12.75 16.27" style="fill: #828282;"/>
          <polygon points="13.56 16.41 13.99 15.9 14.22 16.53 13.56 16.41" style="fill: #828282;"/>
          <polygon points="14.4 16.53 14.8 16.07 15 16.64 14.4 16.53" style="fill: #828282;"/>
          <polygon points="15.25 16.66 15.6 16.24 15.79 16.75 15.25 16.66" style="fill: #828282;"/>
          <polygon points="16.1 16.78 16.41 16.41 16.57 16.86 16.1 16.78" style="fill: #828282;"/>
          <polygon points="16.94 16.9 17.21 16.59 17.35 16.97 16.94 16.9" style="fill: #828282;"/>
          <polygon points="17.79 17.02 18.01 16.75 18.13 17.09 17.79 17.02" style="fill: #828282;"/>
          <polygon points="18.63 17.15 18.82 16.92 18.92 17.2 18.63 17.15" style="fill: #828282;"/>
          <polygon points="19.47 17.27 19.62 17.09 19.71 17.32 19.47 17.27" style="fill: #828282;"/>
          <polygon points="20.31 17.4 20.43 17.25 20.5 17.43 20.31 17.4" style="fill: #828282;"/>
          <polygon points="21.13 17.54 21.24 17.41 21.3 17.57 21.13 17.54" style="fill: #828282;"/>
          <polygon points="21.94 17.68 22.05 17.55 22.11 17.71 21.94 17.68" style="fill: #828282;"/>
          <polygon points="1.15 14.82 1.26 14.7 1.32 14.85 1.15 14.82" style="fill: #828282;"/>
          <polygon points="1.96 14.97 2.07 14.84 2.13 15 1.96 14.97" style="fill: #828282;"/>
          <polygon points="2.77 15.11 2.88 14.98 2.94 15.14 2.77 15.11" style="fill: #828282;"/>
          <polygon points="3.57 15.26 3.69 15.12 3.75 15.29 3.57 15.26" style="fill: #828282;"/>
          <polygon points="4.36 15.42 4.5 15.24 4.58 15.46 4.36 15.42" style="fill: #828282;"/>
          <polygon points="5.14 15.58 5.32 15.37 5.41 15.63 5.14 15.58" style="fill: #828282;"/>
          <polygon points="5.92 15.74 6.13 15.49 6.24 15.8 5.92 15.74" style="fill: #828282;"/>
          <polygon points="6.7 15.9 6.94 15.61 7.08 15.97 6.7 15.9" style="fill: #828282;"/>
          <polygon points="7.48 16.07 7.76 15.73 7.91 16.14 7.48 16.07" style="fill: #828282;"/>
          <polygon points="8.25 16.23 8.57 15.85 8.74 16.32 8.25 16.23" style="fill: #828282;"/>
          <polygon points="9.03 16.39 9.38 15.97 9.57 16.49 9.03 16.39" style="fill: #828282;"/>
          <polygon points="9.81 16.55 10.2 16.09 10.4 16.66 9.81 16.55" style="fill: #828282;"/>
          <polygon points="10.6 16.71 11.01 16.22 11.23 16.82 10.6 16.71" style="fill: #828282;"/>
          <polygon points="11.41 16.85 11.82 16.36 12.04 16.97 11.41 16.85" style="fill: #828282;"/>
          <polygon points="12.22 16.99 12.63 16.51 12.85 17.1 12.22 16.99" style="fill: #828282;"/>
          <polygon points="13.05 17.13 13.44 16.67 13.64 17.23 13.05 17.13" style="fill: #828282;"/>
          <polygon points="13.89 17.25 14.24 16.83 14.43 17.35 13.89 17.25" style="fill: #828282;"/>
          <polygon points="14.73 17.38 15.05 17 15.22 17.47 14.73 17.38" style="fill: #828282;"/>
          <polygon points="15.57 17.5 15.85 17.17 16 17.58 15.57 17.5" style="fill: #828282;"/>
          <polygon points="16.41 17.63 16.66 17.34 16.79 17.69 16.41 17.63" style="fill: #828282;"/>
          <polygon points="17.25 17.75 17.46 17.5 17.57 17.81 17.25 17.75" style="fill: #828282;"/>
          <polygon points="18.09 17.88 18.27 17.67 18.36 17.93 18.09 17.88" style="fill: #828282;"/>
          <polygon points="18.93 18.01 19.08 17.83 19.15 18.05 18.93 18.01" style="fill: #828282;"/>
          <polygon points="19.77 18.13 19.88 18 19.94 18.16 19.77 18.13" style="fill: #828282;"/>
          <polygon points="20.58 18.27 20.69 18.15 20.75 18.3 20.58 18.27" style="fill: #828282;"/>
          <polygon points="21.39 18.42 21.5 18.29 21.56 18.45 21.39 18.42" style="fill: #828282;"/>
          <polygon points=".6 15.56 .71 15.43 .77 15.59 .6 15.56" style="fill: #828282;"/>
          <polygon points="1.41 15.71 1.52 15.58 1.58 15.74 1.41 15.71" style="fill: #828282;"/>
          <polygon points="2.22 15.85 2.33 15.72 2.39 15.88 2.22 15.85" style="fill: #828282;"/>
          <polygon points="3.03 15.99 3.14 15.86 3.2 16.02 3.03 15.99" style="fill: #828282;"/>
          <polygon points="3.84 16.14 3.95 16.01 4.01 16.17 3.84 16.14" style="fill: #828282;"/>
          <polygon points="4.63 16.29 4.76 16.13 4.84 16.33 4.63 16.29" style="fill: #828282;"/>
          <polygon points="5.41 16.45 5.58 16.26 5.66 16.5 5.41 16.45" style="fill: #828282;"/>
          <polygon points="6.19 16.61 6.39 16.38 6.49 16.67 6.19 16.61" style="fill: #828282;"/>
          <polygon points="6.98 16.77 7.2 16.51 7.32 16.83 6.98 16.77" style="fill: #828282;"/>
          <polygon points="7.76 16.93 8.02 16.63 8.15 17 7.76 16.93" style="fill: #828282;"/>
          <polygon points="8.54 17.09 8.83 16.75 8.98 17.17 8.54 17.09" style="fill: #828282;"/>
          <polygon points="9.33 17.25 9.64 16.88 9.81 17.34 9.33 17.25" style="fill: #828282;"/>
          <polygon points="10.11 17.41 10.45 17.01 10.63 17.5 10.11 17.41" style="fill: #828282;"/>
          <polygon points="10.91 17.56 11.27 17.14 11.45 17.66 10.91 17.56" style="fill: #828282;"/>
          <polygon points="11.72 17.71 12.08 17.28 12.27 17.81 11.72 17.71" style="fill: #828282;"/>
          <polygon points="12.53 17.85 12.88 17.43 13.07 17.94 12.53 17.85" style="fill: #828282;"/>
          <polygon points="13.35 17.98 13.69 17.58 13.87 18.08 13.35 17.98" style="fill: #828282;"/>
          <polygon points="14.18 18.11 14.5 17.74 14.67 18.2 14.18 18.11" style="fill: #828282;"/>
          <polygon points="15.02 18.24 15.3 17.9 15.46 18.32 15.02 18.24" style="fill: #828282;"/>
          <polygon points="15.86 18.37 16.11 18.07 16.25 18.44 15.86 18.37" style="fill: #828282;"/>
          <polygon points="16.69 18.5 16.92 18.23 17.04 18.56 16.69 18.5" style="fill: #828282;"/>
          <polygon points="17.53 18.63 17.72 18.4 17.83 18.68 17.53 18.63" style="fill: #828282;"/>
          <polygon points="18.37 18.75 18.53 18.56 18.61 18.8 18.37 18.75" style="fill: #828282;"/>
          <polygon points="19.2 18.88 19.33 18.72 19.41 18.92 19.2 18.88" style="fill: #828282;"/>
          <polygon points="20.03 19.01 20.14 18.88 20.2 19.04 20.03 19.01" style="fill: #828282;"/>
          <polygon points="20.84 19.15 20.95 19.03 21.01 19.18 20.84 19.15" style="fill: #828282;"/>
          <polygon points="21.65 19.3 21.76 19.17 21.82 19.33 21.65 19.3" style="fill: #828282;"/>
          <polygon points=".87 16.44 .97 16.31 1.03 16.47 .87 16.44" style="fill: #828282;"/>
          <polygon points="1.68 16.59 1.78 16.46 1.84 16.62 1.68 16.59" style="fill: #828282;"/>
          <polygon points="2.48 16.73 2.59 16.6 2.65 16.76 2.48 16.73" style="fill: #828282;"/>
          <polygon points="3.29 16.87 3.4 16.75 3.46 16.9 3.29 16.87" style="fill: #828282;"/>
          <polygon points="4.09 17.02 4.21 16.88 4.27 17.06 4.09 17.02" style="fill: #828282;"/>
          <polygon points="4.88 17.18 5.03 17.01 5.1 17.22 4.88 17.18" style="fill: #828282;"/>
          <polygon points="5.66 17.34 5.84 17.13 5.93 17.39 5.66 17.34" style="fill: #828282;"/>
          <polygon points="6.45 17.5 6.65 17.26 6.76 17.55 6.45 17.5" style="fill: #828282;"/>
          <polygon points="7.24 17.66 7.46 17.38 7.58 17.72 7.24 17.66" style="fill: #828282;"/>
          <polygon points="8.02 17.81 8.28 17.51 8.41 17.88 8.02 17.81" style="fill: #828282;"/>
          <polygon points="8.81 17.97 9.09 17.64 9.24 18.05 8.81 17.97" style="fill: #828282;"/>
          <polygon points="9.6 18.12 9.9 17.77 10.06 18.2 9.6 18.12" style="fill: #828282;"/>
          <polygon points="10.4 18.27 10.71 17.91 10.87 18.36 10.4 18.27" style="fill: #828282;"/>
          <polygon points="11.21 18.42 11.52 18.05 11.69 18.5 11.21 18.42" style="fill: #828282;"/>
          <polygon points="12.02 18.56 12.33 18.19 12.49 18.64 12.02 18.56" style="fill: #828282;"/>
          <polygon points="12.84 18.7 13.14 18.35 13.3 18.78 12.84 18.7" style="fill: #828282;"/>
          <polygon points="13.67 18.83 13.95 18.5 14.09 18.91 13.67 18.83" style="fill: #828282;"/>
          <polygon points="14.5 18.96 14.75 18.66 14.89 19.03 14.5 18.96" style="fill: #828282;"/>
          <polygon points="15.33 19.09 15.56 18.82 15.68 19.16 15.33 19.09" style="fill: #828282;"/>
          <polygon points="16.17 19.22 16.37 18.98 16.47 19.28 16.17 19.22" style="fill: #828282;"/>
          <polygon points="17 19.35 17.17 19.14 17.27 19.4 17 19.35" style="fill: #828282;"/>
          <polygon points="17.83 19.48 17.98 19.31 18.06 19.52 17.83 19.48" style="fill: #828282;"/>
          <polygon points="18.67 19.61 18.78 19.47 18.85 19.64 18.67 19.61" style="fill: #828282;"/>
          <polygon points="19.49 19.75 19.59 19.62 19.65 19.78 19.49 19.75" style="fill: #828282;"/>
          <polygon points="20.29 19.89 20.4 19.76 20.46 19.92 20.29 19.89" style="fill: #828282;"/>
          <polygon points="21.1 20.04 21.21 19.91 21.27 20.07 21.1 20.04" style="fill: #828282;"/>
          <polygon points=".32 17.18 .42 17.05 .48 17.21 .32 17.18" style="fill: #828282;"/>
          <polygon points="1.13 17.32 1.23 17.2 1.29 17.35 1.13 17.32" style="fill: #828282;"/>
          <polygon points="1.94 17.47 2.04 17.34 2.1 17.5 1.94 17.47" style="fill: #828282;"/>
          <polygon points="2.75 17.61 2.85 17.48 2.91 17.64 2.75 17.61" style="fill: #828282;"/>
          <polygon points="3.56 17.76 3.66 17.63 3.72 17.78 3.56 17.76" style="fill: #828282;"/>
          <polygon points="4.37 17.9 4.47 17.77 4.53 17.93 4.37 17.9" style="fill: #828282;"/>
          <polygon points="5.16 18.05 5.28 17.9 5.35 18.09 5.16 18.05" style="fill: #828282;"/>
          <polygon points="5.94 18.21 6.1 18.03 6.18 18.25 5.94 18.21" style="fill: #828282;"/>
          <polygon points="6.73 18.37 6.91 18.16 7 18.41 6.73 18.37" style="fill: #828282;"/>
          <polygon points="7.52 18.52 7.72 18.28 7.83 18.58 7.52 18.52" style="fill: #828282;"/>
          <polygon points="8.31 18.68 8.53 18.41 8.65 18.74 8.31 18.68" style="fill: #828282;"/>
          <polygon points="9.1 18.83 9.35 18.54 9.47 18.9 9.1 18.83" style="fill: #828282;"/>
          <polygon points="9.9 18.99 10.16 18.68 10.29 19.06 9.9 18.99" style="fill: #828282;"/>
          <polygon points="10.7 19.13 10.97 18.82 11.11 19.21 10.7 19.13" style="fill: #828282;"/>
          <polygon points="11.51 19.28 11.78 18.96 11.92 19.35 11.51 19.28" style="fill: #828282;"/>
          <polygon points="12.32 19.42 12.59 19.1 12.73 19.49 12.32 19.42" style="fill: #828282;"/>
          <polygon points="13.14 19.56 13.4 19.25 13.53 19.63 13.14 19.56" style="fill: #828282;"/>
          <polygon points="13.96 19.7 14.2 19.41 14.33 19.76 13.96 19.7" style="fill: #828282;"/>
          <polygon points="14.79 19.83 15.01 19.56 15.13 19.89 14.79 19.83" style="fill: #828282;"/>
          <polygon points="15.62 19.96 15.82 19.72 15.92 20.01 15.62 19.96" style="fill: #828282;"/>
          <polygon points="16.45 20.09 16.62 19.88 16.72 20.14 16.45 20.09" style="fill: #828282;"/>
          <polygon points="17.28 20.22 17.43 20.04 17.51 20.26 17.28 20.22" style="fill: #828282;"/>
          <polygon points="18.11 20.35 18.24 20.2 18.3 20.39 18.11 20.35" style="fill: #828282;"/>
          <polygon points="18.94 20.49 19.04 20.36 19.1 20.52 18.94 20.49" style="fill: #828282;"/>
          <polygon points="19.75 20.63 19.85 20.5 19.91 20.66 19.75 20.63" style="fill: #828282;"/>
          <polygon points="20.56 20.77 20.66 20.65 20.72 20.8 20.56 20.77" style="fill: #828282;"/>
          <polygon points="21.36 20.92 21.47 20.79 21.53 20.95 21.36 20.92" style="fill: #828282;"/>
          <polygon points=".58 18.06 .69 17.93 .74 18.09 .58 18.06" style="fill: #828282;"/>
          <polygon points="1.39 18.21 1.5 18.08 1.55 18.24 1.39 18.21" style="fill: #828282;"/>
          <polygon points="2.2 18.35 2.31 18.22 2.36 18.38 2.2 18.35" style="fill: #828282;"/>
          <polygon points="3.01 18.49 3.11 18.37 3.17 18.52 3.01 18.49" style="fill: #828282;"/>
          <polygon points="3.82 18.64 3.92 18.51 3.98 18.67 3.82 18.64" style="fill: #828282;"/>
          <polygon points="4.63 18.78 4.73 18.65 4.79 18.81 4.63 18.78" style="fill: #828282;"/>
          <polygon points="5.41 18.94 5.55 18.78 5.62 18.97 5.41 18.94" style="fill: #828282;"/>
          <polygon points="6.21 19.09 6.36 18.91 6.44 19.13 6.21 19.09" style="fill: #828282;"/>
          <polygon points="6.99 19.25 7.17 19.04 7.26 19.3 6.99 19.25" style="fill: #828282;"/>
          <polygon points="7.79 19.4 7.98 19.17 8.09 19.45 7.79 19.4" style="fill: #828282;"/>
          <polygon points="8.58 19.55 8.79 19.3 8.9 19.61 8.58 19.55" style="fill: #828282;"/>
          <polygon points="9.38 19.7 9.61 19.44 9.72 19.76 9.38 19.7" style="fill: #828282;"/>
          <polygon points="10.19 19.85 10.41 19.58 10.54 19.91 10.19 19.85" style="fill: #828282;"/>
          <polygon points="10.99 20 11.23 19.72 11.35 20.06 10.99 20" style="fill: #828282;"/>
          <polygon points="11.81 20.14 12.03 19.87 12.15 20.2 11.81 20.14" style="fill: #828282;"/>
          <polygon points="12.62 20.28 12.84 20.02 12.96 20.34 12.62 20.28" style="fill: #828282;"/>
          <polygon points="13.44 20.42 13.65 20.17 13.76 20.47 13.44 20.42" style="fill: #828282;"/>
          <polygon points="14.27 20.55 14.46 20.32 14.56 20.6 14.27 20.55" style="fill: #828282;"/>
          <polygon points="15.09 20.68 15.27 20.48 15.36 20.73 15.09 20.68" style="fill: #828282;"/>
          <polygon points="15.92 20.82 16.07 20.64 16.15 20.86 15.92 20.82" style="fill: #828282;"/>
          <polygon points="16.75 20.95 16.88 20.79 16.95 20.98 16.75 20.95" style="fill: #828282;"/>
          <polygon points="17.58 21.08 17.69 20.95 17.74 21.11 17.58 21.08" style="fill: #828282;"/>
          <polygon points="18.39 21.22 18.5 21.1 18.55 21.26 18.39 21.22" style="fill: #828282;"/>
          <polygon points="19.2 21.37 19.3 21.24 19.36 21.4 19.2 21.37" style="fill: #828282;"/>
          <polygon points="20.01 21.51 20.11 21.38 20.17 21.54 20.01 21.51" style="fill: #828282;"/>
          <polygon points="20.82 21.66 20.92 21.53 20.98 21.69 20.82 21.66" style="fill: #828282;"/>
          <polygon points=".03 18.8 .14 18.67 .2 18.83 .03 18.8" style="fill: #828282;"/>
          <polygon points=".84 18.94 .95 18.82 1 18.97 .84 18.94" style="fill: #828282;"/>
          <polygon points="1.65 19.09 1.76 18.96 1.81 19.12 1.65 19.09" style="fill: #828282;"/>
          <polygon points="2.46 19.23 2.57 19.1 2.62 19.26 2.46 19.23" style="fill: #828282;"/>
          <polygon points="3.27 19.37 3.38 19.25 3.43 19.4 3.27 19.37" style="fill: #828282;"/>
          <polygon points="4.08 19.52 4.19 19.39 4.24 19.55 4.08 19.52" style="fill: #828282;"/>
          <polygon points="4.89 19.66 4.99 19.53 5.05 19.69 4.89 19.66" style="fill: #828282;"/>
          <polygon points="5.7 19.81 5.8 19.68 5.86 19.84 5.7 19.81" style="fill: #828282;"/>
          <polygon points="6.49 19.96 6.62 19.81 6.68 19.99 6.49 19.96" style="fill: #828282;"/>
          <polygon points="7.28 20.11 7.43 19.94 7.51 20.15 7.28 20.11" style="fill: #828282;"/>
          <polygon points="8.07 20.27 8.24 20.07 8.33 20.31 8.07 20.27" style="fill: #828282;"/>
          <polygon points="8.87 20.42 9.05 20.21 9.15 20.47 8.87 20.42" style="fill: #828282;"/>
          <polygon points="9.67 20.57 9.86 20.34 9.96 20.62 9.67 20.57" style="fill: #828282;"/>
          <polygon points="10.48 20.71 10.67 20.48 10.77 20.77 10.48 20.71" style="fill: #828282;"/>
          <polygon points="11.28 20.86 11.48 20.62 11.59 20.91 11.28 20.86" style="fill: #828282;"/>
          <polygon points="12.1 21 12.29 20.77 12.4 21.05 12.1 21" style="fill: #828282;"/>
          <polygon points="12.91 21.14 13.1 20.92 13.2 21.19 12.91 21.14" style="fill: #828282;"/>
          <polygon points="13.73 21.28 13.91 21.07 14 21.33 13.73 21.28" style="fill: #828282;"/>
          <polygon points="14.55 21.42 14.72 21.22 14.8 21.46 14.55 21.42" style="fill: #828282;"/>
          <polygon points="15.38 21.55 15.52 21.38 15.6 21.59 15.38 21.55" style="fill: #828282;"/>
          <polygon points="16.2 21.69 16.33 21.53 16.4 21.72 16.2 21.69" style="fill: #828282;"/>
          <polygon points="17.03 21.82 17.14 21.69 17.2 21.85 17.03 21.82" style="fill: #828282;"/>
          <polygon points="17.84 21.96 17.95 21.83 18 21.99 17.84 21.96" style="fill: #828282;"/>
          <polygon points="18.65 22.1 18.76 21.98 18.81 22.14 18.65 22.1" style="fill: #828282;"/>
          <polygon points="19.46 22.25 19.57 22.12 19.62 22.28 19.46 22.25" style="fill: #828282;"/>
          <polygon points="20.27 22.39 20.38 22.26 20.43 22.42 20.27 22.39" style="fill: #828282;"/>
          <polygon points="21.08 22.54 21.19 22.41 21.24 22.57 21.08 22.54" style="fill: #828282;"/>
          <polygon points=".29 19.68 .4 19.55 .46 19.71 .29 19.68" style="fill: #828282;"/>
          <polygon points="1.1 19.82 1.21 19.7 1.27 19.85 1.1 19.82" style="fill: #828282;"/>
          <polygon points="1.91 19.97 2.02 19.84 2.07 20 1.91 19.97" style="fill: #828282;"/>
          <polygon points="2.72 20.11 2.83 19.98 2.89 20.14 2.72 20.11" style="fill: #828282;"/>
          <polygon points="3.53 20.26 3.64 20.13 3.69 20.29 3.53 20.26" style="fill: #828282;"/>
          <polygon points="4.34 20.4 4.45 20.27 4.5 20.43 4.34 20.4" style="fill: #828282;"/>
          <polygon points="5.15 20.54 5.26 20.42 5.31 20.57 5.15 20.54" style="fill: #828282;"/>
          <polygon points="5.96 20.69 6.06 20.56 6.12 20.72 5.96 20.69" style="fill: #828282;"/>
          <polygon points="6.75 20.84 6.88 20.69 6.94 20.87 6.75 20.84" style="fill: #828282;"/>
          <polygon points="7.55 20.99 7.69 20.83 7.76 21.03 7.55 20.99" style="fill: #828282;"/>
          <polygon points="8.35 21.14 8.5 20.96 8.58 21.18 8.35 21.14" style="fill: #828282;"/>
          <polygon points="9.15 21.29 9.31 21.1 9.39 21.33 9.15 21.29" style="fill: #828282;"/>
          <polygon points="9.96 21.44 10.12 21.24 10.21 21.48 9.96 21.44" style="fill: #828282;"/>
          <polygon points="10.76 21.58 10.93 21.38 11.02 21.62 10.76 21.58" style="fill: #828282;"/>
          <polygon points="11.57 21.72 11.74 21.53 11.83 21.77 11.57 21.72" style="fill: #828282;"/>
          <polygon points="12.39 21.86 12.55 21.68 12.63 21.91 12.39 21.86" style="fill: #828282;"/>
          <polygon points="13.21 22 13.36 21.83 13.44 22.04 13.21 22" style="fill: #828282;"/>
          <polygon points="14.03 22.14 14.16 21.98 14.24 22.18 14.03 22.14" style="fill: #828282;"/>
          <polygon points="14.85 22.27 14.97 22.13 15.04 22.31 14.85 22.27" style="fill: #828282;"/>
          <polygon points="15.67 22.41 15.78 22.28 15.84 22.44 15.67 22.41" style="fill: #828282;"/>
          <polygon points="16.48 22.56 16.59 22.43 16.65 22.59 16.48 22.56" style="fill: #828282;"/>
          <polygon points="17.29 22.7 17.4 22.57 17.46 22.73 17.29 22.7" style="fill: #828282;"/>
          <polygon points="18.1 22.84 18.21 22.72 18.27 22.87 18.1 22.84" style="fill: #828282;"/>
          <polygon points="18.91 22.99 19.02 22.86 19.08 23.02 18.91 22.99" style="fill: #828282;"/>
          <polygon points="19.72 23.13 19.83 23 19.88 23.16 19.72 23.13" style="fill: #828282;"/>
          <polygon points="20.53 23.27 20.64 23.15 20.69 23.3 20.53 23.27" style="fill: #828282;"/>
          <polygon points=".55 20.56 .66 20.43 .72 20.59 .55 20.56" style="fill: #828282;"/>
          <polygon points="1.36 20.71 1.47 20.58 1.53 20.74 1.36 20.71" style="fill: #828282;"/>
          <polygon points="2.17 20.85 2.28 20.72 2.34 20.88 2.17 20.85" style="fill: #828282;"/>
          <polygon points="2.98 20.99 3.09 20.87 3.15 21.02 2.98 20.99" style="fill: #828282;"/>
          <polygon points="3.79 21.14 3.9 21.01 3.95 21.17 3.79 21.14" style="fill: #828282;"/>
          <polygon points="4.6 21.28 4.71 21.15 4.76 21.31 4.6 21.28" style="fill: #828282;"/>
          <polygon points="5.41 21.43 5.52 21.3 5.57 21.46 5.41 21.43" style="fill: #828282;"/>
          <polygon points="6.22 21.57 6.33 21.44 6.38 21.6 6.22 21.57" style="fill: #828282;"/>
          <polygon points="7.03 21.71 7.14 21.58 7.19 21.74 7.03 21.71" style="fill: #828282;"/>
          <polygon points="7.84 21.86 7.95 21.73 8 21.89 7.84 21.86" style="fill: #828282;"/>
          <polygon points="8.64 22.01 8.76 21.86 8.82 22.04 8.64 22.01" style="fill: #828282;"/>
          <polygon points="9.44 22.15 9.57 22 9.63 22.19 9.44 22.15" style="fill: #828282;"/>
          <polygon points="10.24 22.3 10.38 22.14 10.45 22.34 10.24 22.3" style="fill: #828282;"/>
          <polygon points="11.05 22.45 11.19 22.29 11.26 22.48 11.05 22.45" style="fill: #828282;"/>
          <polygon points="11.86 22.59 12 22.43 12.07 22.62 11.86 22.59" style="fill: #828282;"/>
          <polygon points="12.68 22.73 12.81 22.58 12.87 22.76 12.68 22.73" style="fill: #828282;"/>
          <polygon points="13.49 22.87 13.61 22.73 13.68 22.9 13.49 22.87" style="fill: #828282;"/>
          <polygon points="14.31 23.01 14.42 22.88 14.48 23.04 14.31 23.01" style="fill: #828282;"/>
          <polygon points="15.12 23.15 15.23 23.02 15.29 23.18 15.12 23.15" style="fill: #828282;"/>
          <polygon points="15.93 23.29 16.04 23.17 16.1 23.32 15.93 23.29" style="fill: #828282;"/>
          <polygon points="16.74 23.44 16.85 23.31 16.91 23.47 16.74 23.44" style="fill: #828282;"/>
          <polygon points="17.55 23.58 17.66 23.45 17.72 23.61 17.55 23.58" style="fill: #828282;"/>
          <polygon points="18.36 23.73 18.47 23.6 18.53 23.75 18.36 23.73" style="fill: #828282;"/>
          <polygon points="19.17 23.87 19.28 23.74 19.34 23.9 19.17 23.87" style="fill: #828282;"/>
          <polygon points="19.98 24.01 20.09 23.88 20.15 24.04 19.98 24.01" style="fill: #828282;"/>
          <polygon points="20.79 24.16 20.9 24.03 20.96 24.19 20.79 24.16" style="fill: #828282;"/>
          <polygon points="0 21.3 .11 21.17 .17 21.33 0 21.3" style="fill: #828282;"/>
          <polygon points=".81 21.44 .92 21.32 .98 21.47 .81 21.44" style="fill: #828282;"/>
          <polygon points="1.62 21.59 1.73 21.46 1.79 21.62 1.62 21.59" style="fill: #828282;"/>
          <polygon points="2.43 21.73 2.54 21.6 2.6 21.76 2.43 21.73" style="fill: #828282;"/>
          <polygon points="3.24 21.88 3.35 21.75 3.41 21.91 3.24 21.88" style="fill: #828282;"/>
          <polygon points="4.05 22.02 4.16 21.89 4.22 22.05 4.05 22.02" style="fill: #828282;"/>
          <polygon points="4.86 22.16 4.97 22.03 5.03 22.19 4.86 22.16" style="fill: #828282;"/>
          <polygon points="5.67 22.31 5.78 22.18 5.84 22.34 5.67 22.31" style="fill: #828282;"/>
          <polygon points="6.48 22.45 6.59 22.32 6.64 22.48 6.48 22.45" style="fill: #828282;"/>
          <polygon points="7.29 22.59 7.4 22.47 7.45 22.62 7.29 22.59" style="fill: #828282;"/>
          <polygon points="8.1 22.74 8.21 22.61 8.26 22.77 8.1 22.74" style="fill: #828282;"/>
          <polygon points="8.91 22.88 9.02 22.75 9.07 22.91 8.91 22.88" style="fill: #828282;"/>
          <polygon points="9.72 23.02 9.83 22.9 9.88 23.05 9.72 23.02" style="fill: #828282;"/>
          <polygon points="10.53 23.17 10.63 23.04 10.69 23.2 10.53 23.17" style="fill: #828282;"/>
          <polygon points="11.34 23.31 11.44 23.18 11.5 23.34 11.34 23.31" style="fill: #828282;"/>
          <polygon points="12.15 23.46 12.25 23.33 12.31 23.49 12.15 23.46" style="fill: #828282;"/>
          <polygon points="12.96 23.6 13.06 23.47 13.12 23.63 12.96 23.6" style="fill: #828282;"/>
          <polygon points="13.77 23.74 13.87 23.62 13.93 23.77 13.77 23.74" style="fill: #828282;"/>
          <polygon points="14.58 23.89 14.68 23.76 14.74 23.92 14.58 23.89" style="fill: #828282;"/>
          <polygon points="15.38 24.03 15.49 23.9 15.55 24.06 15.38 24.03" style="fill: #828282;"/>
          <polygon points="16.19 24.18 16.3 24.05 16.36 24.21 16.19 24.18" style="fill: #828282;"/>
          <polygon points="17 24.32 17.11 24.19 17.17 24.35 17 24.32" style="fill: #828282;"/>
          <polygon points="17.81 24.46 17.92 24.33 17.98 24.49 17.81 24.46" style="fill: #828282;"/>
          <polygon points="18.62 24.61 18.73 24.48 18.79 24.64 18.62 24.61" style="fill: #828282;"/>
          <polygon points="19.43 24.75 19.54 24.62 19.6 24.78 19.43 24.75" style="fill: #828282;"/>
          <polygon points="20.24 24.89 20.35 24.76 20.41 24.92 20.24 24.89" style="fill: #828282;"/>
        </g>
        <path d="M27.51,5.12L5.08,10.22c-.69,.16-1.38-.28-1.54-.97l-.03-.12c-.16-.69,.28-1.38,.97-1.54L26.92,2.5c.69-.16,1.38,.28,1.53,.97l.03,.12c.16,.69-.28,1.38-.97,1.54" style="fill: #1973b4;"/>
        <path d="M26.98,9.2L8.62,13.37c-.69,.16-1.38-.28-1.54-.97l-.03-.12c-.16-.69,.28-1.38,.97-1.54L26.39,6.58c.69-.16,1.38,.28,1.53,.97l.03,.12c.16,.69-.27,1.38-.97,1.54" style="fill: #d72129;"/>
      </g>
    </g>
  </g>
</svg>