<?xml version="1.0" encoding="UTF-8"?>
<svg xmlns="http://www.w3.org/2000/svg" viewBox="0 0 72.37 27.65">
  <g id="_лой_1" data-name="Слой 1"/>
  <g id="_лой_2" data-name="Слой 2">
    <g id="_лой_2-2" data-name="Слой 2">
      <g>
        <g>
          <path d="M7.09,14.57c0,3.09-2.35,4.91-5.16,4.91H0v-2.19H1.79c1.4,0,2.56-1.01,2.56-2.65V5.07h2.74V14.57Z" style="fill: #211e1b;"/>
          <path d="M18.64,4.9c1.03,0,2.18,.21,3.05,.42l-.16,2.01c-.92-.14-1.99-.25-2.88-.26h-.41c-1.4,0-2.56,1.01-2.56,2.66v4.9c0,1.65,1.16,2.66,2.56,2.66h.41c.89,0,1.96-.11,2.88-.26l.16,2.01c-.87,.22-2.01,.42-3.05,.42h-.54c-2.82,0-5.16-1.82-5.16-4.91v-4.76c0-3.09,2.34-4.91,5.16-4.91h.54Z" style="fill: #211e1b;"/>
          <path d="M28.22,4.91c2.75,0,5.21,1.99,5.21,4.92v4.75c0,2.86-2.27,4.9-5.21,4.9h-.68c-3.12,0-5.18-2.09-5.18-4.9v-4.75c0-2.92,2.26-4.92,5.18-4.92h.68Zm-.56,2.18c-1.41,0-2.57,1.09-2.57,2.67v4.89c0,1.65,1.21,2.65,2.58,2.66h.44c1.34,0,2.6-.98,2.6-2.66v-4.89c0-1.6-1.26-2.67-2.6-2.67h-.44Z" style="fill: #211e1b;"/>
          <path d="M45.87,19.32l-.32-9.28-3.18,5.99h-1.56l-3.18-5.99-.35,9.28h-2.68l.52-14.24h2.7l3.76,7.46,3.73-7.46h2.71l.55,14.24h-2.69Z" style="fill: #211e1b;"/>
          <path d="M61.33,19.32l-.32-9.28-3.18,5.99h-1.56l-3.18-5.99-.35,9.28h-2.68l.52-14.24h2.7l3.76,7.46,3.73-7.46h2.71l.55,14.24h-2.69Z" style="fill: #211e1b;"/>
        </g>
        <polygon points="12.16 0 7.09 0 7.09 5.07 12.16 0" style="fill: #d31216;"/>
        <polygon points="72.37 27.65 72.37 19.29 64.01 19.29 72.37 27.65" style="fill: #d31216;"/>
        <g>
          <path d="M0,27.61v-3.7H2.36v.5H.56v1.08h1.54v.5H.56v1.11h1.8v.5H0Z" style="fill: #211e1b;"/>
          <path d="M4.14,27.61h-.44l-1.22-3.7h.58l.85,2.69,.85-2.69h.59l-1.23,3.7Z" style="fill: #211e1b;"/>
          <path d="M5.69,27.61v-3.7h2.36v.5h-1.8v1.08h1.54v.5h-1.54v1.11h1.8v.5h-2.36Z" style="fill: #211e1b;"/>
          <path d="M10.91,27.61l-1.71-2.6v2.6h-.56v-3.7h.51l1.71,2.6v-2.6h.56v3.7h-.51Z" style="fill: #211e1b;"/>
          <path d="M13.45,24.42v3.2h-.56v-3.2h-1.02v-.5h2.6v.5h-1.02Z" style="fill: #211e1b;"/>
          <path d="M15.91,27.65c-.56,0-.95-.13-1.31-.49l.37-.37c.27,.27,.58,.36,.95,.36,.49,0,.76-.21,.76-.57,0-.17-.04-.3-.15-.38-.09-.08-.22-.13-.41-.16l-.44-.06c-.3-.05-.54-.14-.7-.3-.18-.17-.28-.41-.28-.71,0-.64,.47-1.08,1.24-1.08,.49,0,.83,.12,1.15,.42l-.35,.35c-.23-.22-.5-.29-.82-.29-.44,0-.67,.24-.67,.58,0,.13,.04,.26,.14,.34,.09,.08,.2,.14,.41,.17l.44,.07c.34,.05,.52,.13,.69,.28,.2,.18,.3,.44,.3,.76,0,.68-.55,1.09-1.33,1.09Z" style="fill: #211e1b;"/>
          <path d="M21.25,27.61l-.3-.36c-.16,.14-.46,.39-1.02,.39-.77,0-1.2-.43-1.2-1.1,0-.51,.37-.81,.73-1.04-.17-.19-.38-.45-.38-.79,0-.47,.35-.82,.9-.82s.88,.35,.88,.83c0,.29-.16,.49-.39,.65l-.27,.19,.78,.93c.14-.19,.19-.41,.2-.74h.51c-.02,.47-.12,.85-.37,1.14l.62,.74h-.68Zm-1.5-1.78c-.27,.19-.5,.36-.5,.7,0,.37,.29,.63,.67,.63,.25,0,.46-.07,.71-.29l-.88-1.04Zm.23-1.49c-.23,0-.36,.16-.36,.36,0,.15,.1,.29,.29,.51l.18-.12c.15-.1,.27-.21,.27-.38,0-.21-.15-.37-.37-.37Z" style="fill: #211e1b;"/>
          <path d="M24.93,26.15h-.84v1.46h-.56v-3.7h1.4c.72,0,1.18,.48,1.18,1.12s-.46,1.12-1.18,1.12Zm-.03-1.74h-.81v1.24h.81c.39,0,.65-.23,.65-.62s-.26-.62-.65-.62Z" style="fill: #211e1b;"/>
          <path d="M28.65,27.61l-.78-1.56h-.7v1.56h-.56v-3.7h1.43c.7,0,1.15,.45,1.15,1.08,0,.53-.32,.87-.74,.98l.85,1.64h-.65Zm-.65-3.2h-.83v1.16h.83c.37,0,.63-.21,.63-.58s-.25-.58-.63-.58Z" style="fill: #211e1b;"/>
        </g>
      </g>
    </g>
  </g>
</svg>