<?xml version="1.0" encoding="UTF-8"?>
<svg xmlns="http://www.w3.org/2000/svg" viewBox="0 0 534.47 164.02">
  <g id="_лой_1" data-name="Слой 1"/>
  <g id="_лой_2" data-name="Слой 2">
    <g id="_лой_2-2" data-name="Слой 2">
      <g>
        <path d="M160.94,70.96c.76-.56,1.4-1.23,1.93-2,.53-.77,.96-1.72,1.31-2.84,.35-1.12,.62-2.43,.82-3.93,.2-1.5,.35-3.27,.45-5.31l.64-13.99h23.04c0,4.71,0,9.4,.02,14.07,.02,4.66,.02,9.35,.02,14.07h2.97v13.55h-6.18v-7.61h-21.36v7.61h-6.18v-13.6h2.52Zm11.22-22.1l-.39,8.16c-.07,1.45-.15,2.83-.25,4.13-.1,1.3-.25,2.54-.45,3.71-.2,1.17-.48,2.27-.84,3.31-.36,1.04-.86,1.99-1.48,2.84h13.69v-22.15h-10.28Z" style="fill: #191a1a;"/>
        <path d="M222.79,66.07c0,1.85-.35,3.46-1.04,4.84-.69,1.39-1.63,2.56-2.81,3.51-1.18,.96-2.57,1.67-4.17,2.15-1.6,.48-3.28,.72-5.06,.72s-3.46-.24-5.06-.72c-1.6-.48-2.98-1.19-4.17-2.15-1.18-.96-2.12-2.13-2.81-3.51-.69-1.38-1.04-3-1.04-4.84v-12.51c0-1.81,.36-3.41,1.09-4.8,.72-1.38,1.69-2.54,2.91-3.46,1.22-.92,2.62-1.61,4.19-2.08,1.58-.46,3.21-.69,4.89-.69s3.31,.25,4.89,.74c1.58,.49,2.98,1.21,4.19,2.15,1.22,.94,2.19,2.11,2.91,3.51,.72,1.4,1.09,3.01,1.09,4.82v12.31Zm-6.77-11.12c0-1.12-.18-2.07-.54-2.84-.36-.77-.84-1.41-1.43-1.9-.59-.49-1.26-.86-2-1.09-.74-.23-1.51-.35-2.3-.35s-1.57,.12-2.32,.35c-.76,.23-1.43,.59-2.03,1.09-.59,.49-1.07,1.13-1.43,1.9-.36,.77-.54,1.72-.54,2.84v9.94c0,1.12,.18,2.08,.54,2.87,.36,.79,.84,1.43,1.43,1.93,.59,.49,1.27,.85,2.03,1.06,.76,.21,1.53,.32,2.32,.32s1.56-.11,2.3-.32,1.41-.57,2-1.06c.59-.49,1.07-1.14,1.43-1.93,.36-.79,.54-1.75,.54-2.87v-9.94Z" style="fill: #191a1a;"/>
        <path d="M243.61,42.88c1.68,0,3.13,.32,4.35,.96,1.22,.64,2.23,1.47,3.04,2.5,.81,1.02,1.4,2.17,1.78,3.44,.38,1.27,.57,2.51,.57,3.73s-.22,2.5-.67,3.76c-.45,1.25-1.09,2.39-1.93,3.41-.84,1.02-1.88,1.85-3.11,2.5-1.24,.64-2.65,.96-4.23,.96h-8.26v12.8h-6.77V42.88h15.23Zm-8.45,15.18h6.92c1.55,0,2.72-.43,3.51-1.29,.79-.86,1.19-1.94,1.19-3.23s-.41-2.42-1.21-3.28c-.81-.86-1.97-1.29-3.49-1.29h-6.92v9.1Z" style="fill: #191a1a;"/>
        <path d="M282.81,66.07c0,1.85-.35,3.46-1.04,4.84-.69,1.39-1.63,2.56-2.81,3.51-1.19,.96-2.57,1.67-4.17,2.15-1.6,.48-3.28,.72-5.06,.72s-3.46-.24-5.06-.72c-1.6-.48-2.99-1.19-4.17-2.15-1.18-.96-2.12-2.13-2.81-3.51-.69-1.38-1.04-3-1.04-4.84v-12.51c0-1.81,.36-3.41,1.08-4.8,.72-1.38,1.69-2.54,2.91-3.46,1.22-.92,2.62-1.61,4.19-2.08,1.58-.46,3.21-.69,4.89-.69s3.31,.25,4.89,.74c1.58,.49,2.98,1.21,4.19,2.15,1.22,.94,2.19,2.11,2.91,3.51,.72,1.4,1.09,3.01,1.09,4.82v12.31Zm-6.77-11.12c0-1.12-.18-2.07-.54-2.84-.36-.77-.84-1.41-1.43-1.9-.59-.49-1.26-.86-2-1.09-.74-.23-1.51-.35-2.3-.35s-1.57,.12-2.32,.35c-.76,.23-1.43,.59-2.03,1.09-.59,.49-1.07,1.13-1.43,1.9-.36,.77-.54,1.72-.54,2.84v9.94c0,1.12,.18,2.08,.54,2.87,.36,.79,.84,1.43,1.43,1.93,.59,.49,1.27,.85,2.03,1.06,.76,.21,1.53,.32,2.32,.32s1.56-.11,2.3-.32c.74-.21,1.41-.57,2-1.06,.59-.49,1.07-1.14,1.43-1.93,.36-.79,.54-1.75,.54-2.87v-9.94Z" style="fill: #191a1a;"/>
        <path d="M304.81,76.94v-14.39h-2.37c-.69,0-1.33,.06-1.93,.17-.59,.12-1.14,.34-1.63,.67-.49,.33-.93,.79-1.31,1.38s-.7,1.35-.96,2.27l-2.77,9.89h-7.42l3.26-10.98c.49-1.68,1.14-3.11,1.95-4.28,.81-1.17,1.92-1.98,3.34-2.45-1.09-.36-2.04-1.1-2.87-2.2-.82-1.1-1.48-2.5-1.98-4.18l-3.11-9.99h6.97l2.96,9.34c.3,.92,.64,1.67,1.01,2.22,.38,.56,.82,1,1.31,1.31,.49,.31,1.03,.53,1.61,.64,.58,.12,1.19,.17,1.85,.17h2.08v-13.69h6.77v13.69h2.08c.66,0,1.28-.06,1.85-.17,.58-.11,1.1-.33,1.58-.64,.48-.31,.91-.75,1.31-1.31,.4-.56,.74-1.3,1.04-2.22l2.96-9.34h6.92l-3.07,9.99c-.53,1.68-1.2,3.07-2.03,4.18-.82,1.1-1.76,1.84-2.82,2.2,1.42,.46,2.52,1.28,3.31,2.45,.79,1.17,1.44,2.6,1.93,4.28l3.26,10.98h-7.37l-2.82-9.89c-.26-.92-.59-1.68-.96-2.27-.38-.59-.81-1.05-1.29-1.38-.48-.33-1.01-.55-1.61-.67-.59-.11-1.24-.17-1.93-.17h-2.37v14.39h-6.77Z" style="fill: #191a1a;"/>
        <polygon points="353.07 76.94 353.07 62.7 340.51 62.7 340.51 76.94 333.74 76.94 333.74 42.88 340.51 42.88 340.51 56.62 353.07 56.62 353.07 42.88 359.94 42.88 359.94 76.94 353.07 76.94" style="fill: #191a1a;"/>
        <path d="M391.63,66.07c0,1.85-.35,3.46-1.04,4.84-.69,1.39-1.63,2.56-2.81,3.51-1.19,.96-2.57,1.67-4.17,2.15-1.6,.48-3.28,.72-5.06,.72s-3.46-.24-5.06-.72c-1.6-.48-2.99-1.19-4.17-2.15-1.18-.96-2.12-2.13-2.81-3.51-.69-1.38-1.04-3-1.04-4.84v-12.51c0-1.81,.36-3.41,1.09-4.8,.72-1.38,1.69-2.54,2.91-3.46,1.22-.92,2.62-1.61,4.19-2.08,1.58-.46,3.21-.69,4.89-.69s3.31,.25,4.88,.74c1.58,.49,2.98,1.21,4.19,2.15,1.22,.94,2.19,2.11,2.91,3.51,.72,1.4,1.09,3.01,1.09,4.82v12.31Zm-6.77-11.12c0-1.12-.18-2.07-.54-2.84-.36-.77-.84-1.41-1.43-1.9-.59-.49-1.26-.86-2-1.09-.74-.23-1.51-.35-2.3-.35s-1.57,.12-2.32,.35c-.76,.23-1.44,.59-2.03,1.09-.59,.49-1.07,1.13-1.43,1.9-.36,.77-.54,1.72-.54,2.84v9.94c0,1.12,.18,2.08,.54,2.87,.36,.79,.84,1.43,1.43,1.93,.59,.49,1.27,.85,2.03,1.06,.76,.21,1.53,.32,2.32,.32s1.56-.11,2.3-.32c.74-.21,1.41-.57,2-1.06,.59-.49,1.07-1.14,1.43-1.93,.36-.79,.54-1.75,.54-2.87v-9.94Z" style="fill: #191a1a;"/>
        <polygon points="397.32 42.88 420.8 42.88 420.8 48.96 404.09 48.96 404.09 56.77 418.38 56.77 418.38 62.85 404.09 62.85 404.09 70.86 420.8 70.86 420.8 76.94 397.32 76.94 397.32 42.88" style="fill: #191a1a;"/>
        <path d="M180.86,96.22c-1.06-.89-2.19-1.51-3.41-1.85s-2.41-.52-3.56-.52c-.76,0-1.52,.11-2.27,.32-.76,.22-1.43,.57-2.03,1.06-.59,.49-1.08,1.14-1.46,1.93-.38,.79-.57,1.75-.57,2.87v9.94c0,1.12,.19,2.07,.57,2.84,.38,.77,.87,1.41,1.48,1.9,.61,.49,1.29,.86,2.03,1.09,.74,.23,1.49,.35,2.25,.35,1.15,0,2.32-.16,3.49-.49,1.17-.33,2.35-.96,3.54-1.88l3.21,5.24c-1.25,1.05-2.78,1.88-4.6,2.47-1.81,.59-3.73,.89-5.74,.89-1.62,0-3.2-.23-4.75-.69-1.55-.46-2.93-1.15-4.15-2.05-1.22-.91-2.21-2.04-2.97-3.41-.76-1.37-1.14-2.98-1.14-4.82v-12.76c0-1.81,.37-3.4,1.11-4.77,.74-1.37,1.71-2.51,2.92-3.44,1.2-.92,2.58-1.62,4.13-2.08,1.55-.46,3.13-.69,4.75-.69,1.98,0,3.88,.26,5.71,.79,1.83,.53,3.4,1.37,4.72,2.52l-3.26,5.24Z" style="fill: #191a1a;"/>
        <polygon points="202.07 94.04 202.07 122.03 195.3 122.03 195.3 94.04 186.25 94.04 186.25 87.96 211.07 87.96 211.07 94.04 202.07 94.04" style="fill: #191a1a;"/>
        <path d="M229.76,87.96c1.68,0,3.13,.32,4.35,.96,1.22,.64,2.23,1.47,3.04,2.5,.81,1.02,1.4,2.17,1.78,3.44,.38,1.27,.57,2.51,.57,3.73s-.22,2.5-.67,3.76c-.45,1.25-1.09,2.39-1.93,3.41-.84,1.02-1.88,1.85-3.11,2.5-1.24,.64-2.65,.96-4.23,.96h-8.26v12.81h-6.77v-34.07h15.23Zm-8.45,15.18h6.92c1.55,0,2.72-.43,3.51-1.29,.79-.86,1.19-1.94,1.19-3.23s-.41-2.42-1.21-3.28c-.81-.86-1.97-1.29-3.49-1.29h-6.92v9.1Z" style="fill: #191a1a;"/>
        <path d="M268.97,111.15c0,1.85-.35,3.46-1.04,4.84-.69,1.39-1.63,2.56-2.81,3.51-1.18,.96-2.57,1.67-4.17,2.15-1.6,.48-3.28,.72-5.06,.72s-3.46-.24-5.06-.72c-1.6-.48-2.99-1.19-4.17-2.15-1.18-.96-2.12-2.13-2.81-3.51-.69-1.38-1.04-3-1.04-4.84v-12.51c0-1.81,.36-3.41,1.09-4.8,.72-1.38,1.69-2.54,2.91-3.46,1.22-.92,2.62-1.62,4.19-2.08,1.58-.46,3.21-.69,4.89-.69s3.31,.25,4.89,.74c1.58,.49,2.98,1.21,4.19,2.15,1.22,.94,2.19,2.11,2.91,3.51,.72,1.4,1.09,3.01,1.09,4.82v12.31Zm-6.77-11.12c0-1.12-.18-2.07-.54-2.84-.36-.77-.84-1.41-1.43-1.9-.59-.49-1.26-.86-2-1.09-.74-.23-1.51-.35-2.3-.35s-1.57,.12-2.32,.35c-.76,.23-1.43,.59-2.03,1.09-.59,.49-1.07,1.13-1.43,1.9-.36,.77-.54,1.72-.54,2.84v9.94c0,1.12,.18,2.08,.54,2.87,.36,.79,.84,1.43,1.43,1.93,.59,.49,1.27,.85,2.03,1.06,.76,.21,1.53,.32,2.32,.32s1.56-.11,2.3-.32c.74-.21,1.41-.57,2-1.06,.59-.49,1.07-1.14,1.43-1.93,.36-.79,.54-1.75,.54-2.87v-9.94Z" style="fill: #191a1a;"/>
        <path d="M295.07,99.83l-3.36,5.19c-.39,.63-.88,1.39-1.46,2.3-.58,.91-1.21,1.89-1.9,2.94-.69,1.05-1.4,2.14-2.13,3.26-.72,1.12-1.42,2.21-2.1,3.26-.68,1.05-1.31,2.03-1.9,2.94-.59,.91-1.09,1.67-1.48,2.3h-6.13v-34.07h6.77v22.4h.2l7.1-11.12,7.25-11.27h6.17v34.07h-6.77v-22.2h-.25Z" style="fill: #191a1a;"/>
        <polygon points="321.47 94.04 321.47 122.03 314.7 122.03 314.7 94.04 305.65 94.04 305.65 87.96 330.47 87.96 330.47 94.04 321.47 94.04" style="fill: #191a1a;"/>
        <polygon points="334.03 87.96 357.52 87.96 357.52 94.04 340.8 94.04 340.8 101.86 355.09 101.86 355.09 107.94 340.8 107.94 340.8 115.95 357.52 115.95 357.52 122.03 334.03 122.03 334.03 87.96" style="fill: #191a1a;"/>
        <path d="M372.65,94.04v9.05c0,2.84-.16,5.41-.49,7.71-.33,2.31-.92,4.3-1.78,5.98-.86,1.68-2.05,3.03-3.58,4.05-1.53,1.02-3.5,1.7-5.91,2.03l-1.48-5.54c1.42-.46,2.55-1.05,3.41-1.78,.86-.72,1.52-1.65,2-2.77,.48-1.12,.79-2.46,.94-4,.15-1.55,.22-3.38,.22-5.49v-15.33h22.45v34.07h-6.87v-27.98h-8.9Z" style="fill: #191a1a;"/>
        <path d="M394.55,122.03v-34.07h6.77v12.95h7.86c1.68,0,3.18,.26,4.5,.79,1.32,.53,2.44,1.26,3.36,2.18,.92,.93,1.63,2.03,2.13,3.32,.49,1.29,.74,2.69,.74,4.21,0,1.26-.2,2.51-.59,3.77-.4,1.25-1.02,2.39-1.86,3.39-.84,1.01-1.92,1.83-3.24,2.48-1.32,.64-2.92,.97-4.8,.97h-14.88Zm6.77-6.08h7.02c1.52,0,2.73-.43,3.63-1.29,.91-.86,1.36-1.93,1.36-3.21s-.45-2.39-1.36-3.21c-.91-.82-2.13-1.24-3.68-1.24h-6.97v8.95Z" style="fill: #191a1a;"/>
        <path d="M443.99,96.22c-1.06-.89-2.19-1.51-3.41-1.85s-2.41-.52-3.56-.52c-.76,0-1.52,.11-2.27,.32-.76,.22-1.43,.57-2.03,1.06-.59,.49-1.08,1.14-1.46,1.93-.38,.79-.57,1.75-.57,2.87v9.94c0,1.12,.19,2.07,.57,2.84,.38,.77,.87,1.41,1.48,1.9,.61,.49,1.29,.86,2.03,1.09,.74,.23,1.49,.35,2.25,.35,1.15,0,2.32-.16,3.49-.49,1.17-.33,2.35-.96,3.53-1.88l3.21,5.24c-1.25,1.05-2.79,1.88-4.6,2.47-1.81,.59-3.73,.89-5.74,.89-1.62,0-3.2-.23-4.75-.69-1.55-.46-2.93-1.15-4.15-2.05-1.22-.91-2.21-2.04-2.97-3.41-.76-1.37-1.14-2.98-1.14-4.82v-12.76c0-1.81,.37-3.4,1.11-4.77,.74-1.37,1.71-2.51,2.92-3.44,1.2-.92,2.58-1.62,4.13-2.08,1.55-.46,3.13-.69,4.75-.69,1.98,0,3.88,.26,5.71,.79,1.83,.53,3.4,1.37,4.72,2.52l-3.26,5.24Z" style="fill: #191a1a;"/>
        <polygon points="465.2 94.04 465.2 122.03 458.43 122.03 458.43 94.04 449.38 94.04 449.38 87.96 474.2 87.96 474.2 94.04 465.2 94.04" style="fill: #191a1a;"/>
        <path d="M503.52,111.91c0,1.38-.21,2.68-.64,3.9-.43,1.22-1.05,2.29-1.88,3.21-.82,.92-1.85,1.65-3.06,2.2-1.22,.54-2.64,.82-4.25,.82h-15.97v-34.07h15.33c1.71,0,3.19,.25,4.43,.74,1.24,.5,2.26,1.17,3.06,2.03,.81,.86,1.41,1.85,1.8,2.97,.4,1.12,.59,2.29,.59,3.52s-.34,2.54-1.01,3.86c-.68,1.32-1.74,2.34-3.19,3.07,.82,.39,1.53,.9,2.13,1.51,.59,.61,1.09,1.27,1.48,1.97,.4,.71,.69,1.43,.89,2.17,.2,.74,.3,1.44,.3,2.1m-7.56-14.01c0-1.25-.37-2.21-1.11-2.87-.74-.66-1.9-.99-3.49-.99h-6.87v7.47h6.97c1.42,0,2.52-.33,3.31-.99,.79-.66,1.19-1.53,1.19-2.62m.4,13.77c0-1.31-.41-2.37-1.24-3.17-.82-.8-1.96-1.2-3.41-1.2h-7.22v8.65h7.27c1.52,0,2.66-.39,3.44-1.15,.77-.77,1.16-1.81,1.16-3.12" style="fill: #191a1a;"/>
        <path d="M534.47,111.15c0,1.85-.35,3.46-1.04,4.84-.69,1.39-1.63,2.56-2.81,3.51-1.19,.96-2.57,1.67-4.17,2.15-1.6,.48-3.28,.72-5.06,.72s-3.46-.24-5.06-.72c-1.6-.48-2.99-1.19-4.17-2.15-1.18-.96-2.12-2.13-2.81-3.51-.69-1.38-1.04-3-1.04-4.84v-12.51c0-1.81,.36-3.41,1.09-4.8,.72-1.38,1.69-2.54,2.91-3.46,1.22-.92,2.62-1.62,4.19-2.08,1.58-.46,3.21-.69,4.89-.69s3.31,.25,4.88,.74c1.58,.49,2.98,1.21,4.19,2.15,1.22,.94,2.19,2.11,2.91,3.51,.72,1.4,1.09,3.01,1.09,4.82v12.31Zm-6.77-11.12c0-1.12-.18-2.07-.54-2.84-.36-.77-.84-1.41-1.43-1.9s-1.26-.86-2-1.09c-.74-.23-1.51-.35-2.3-.35s-1.57,.12-2.32,.35c-.76,.23-1.44,.59-2.03,1.09-.59,.49-1.07,1.13-1.43,1.9-.36,.77-.54,1.72-.54,2.84v9.94c0,1.12,.18,2.08,.54,2.87,.36,.79,.84,1.43,1.43,1.93,.59,.49,1.27,.85,2.03,1.06,.76,.21,1.53,.32,2.32,.32s1.56-.11,2.3-.32c.74-.21,1.41-.57,2-1.06,.59-.49,1.07-1.14,1.43-1.93,.36-.79,.54-1.75,.54-2.87v-9.94Z" style="fill: #191a1a;"/>
      </g>
      <g>
        <path d="M184.23,153.55c0,1.38-.21,2.68-.64,3.9-.43,1.22-1.05,2.29-1.88,3.21-.82,.92-1.85,1.65-3.06,2.2-1.22,.54-2.64,.81-4.25,.81h-15.97v-34.07h15.33c1.71,0,3.19,.25,4.43,.74,1.24,.49,2.26,1.17,3.06,2.03,.81,.86,1.41,1.85,1.8,2.97,.4,1.12,.59,2.29,.59,3.52s-.34,2.54-1.01,3.86c-.68,1.32-1.74,2.34-3.19,3.07,.82,.4,1.53,.9,2.13,1.51,.59,.61,1.09,1.27,1.48,1.97,.4,.71,.69,1.43,.89,2.17,.2,.74,.3,1.44,.3,2.1m-7.57-14.01c0-1.25-.37-2.21-1.11-2.87-.74-.66-1.9-.99-3.49-.99h-6.87v7.47h6.97c1.42,0,2.52-.33,3.31-.99,.79-.66,1.19-1.53,1.19-2.62m.4,13.77c0-1.31-.41-2.37-1.24-3.17-.82-.8-1.96-1.2-3.41-1.2h-7.22v8.65h7.27c1.52,0,2.66-.39,3.44-1.15,.77-.77,1.16-1.81,1.16-3.12" style="fill: #191a1a;"/>
        <path d="M217.01,129.61c1.68,0,3.13,.32,4.35,.96,1.22,.64,2.23,1.48,3.04,2.5,.81,1.02,1.4,2.17,1.78,3.44,.38,1.27,.57,2.51,.57,3.73s-.22,2.51-.67,3.76c-.44,1.25-1.09,2.39-1.93,3.41-.84,1.02-1.88,1.85-3.11,2.5-1.24,.64-2.65,.97-4.23,.97h-8.26v12.8h-6.77v-34.07h15.23Zm-8.45,15.18h6.92c1.55,0,2.72-.43,3.51-1.29,.79-.86,1.19-1.94,1.19-3.23s-.41-2.42-1.21-3.28c-.81-.86-1.97-1.29-3.49-1.29h-6.92v9.1Z" style="fill: #191a1a;"/>
        <path d="M256.21,152.8c0,1.85-.35,3.46-1.04,4.84-.69,1.38-1.63,2.56-2.81,3.51-1.19,.96-2.57,1.67-4.17,2.15-1.6,.48-3.28,.72-5.06,.72s-3.46-.24-5.06-.72c-1.6-.48-2.99-1.19-4.17-2.15-1.18-.96-2.12-2.13-2.81-3.51-.69-1.39-1.04-3-1.04-4.84v-12.51c0-1.81,.36-3.41,1.09-4.8,.72-1.38,1.69-2.54,2.91-3.46,1.22-.92,2.62-1.61,4.19-2.08,1.58-.46,3.21-.69,4.89-.69s3.31,.25,4.88,.74c1.58,.49,2.98,1.21,4.19,2.15,1.22,.94,2.19,2.11,2.91,3.51,.72,1.4,1.09,3.01,1.09,4.82v12.31Zm-6.77-11.12c0-1.12-.18-2.07-.54-2.84-.36-.77-.84-1.41-1.43-1.9-.59-.49-1.26-.86-2-1.09-.74-.23-1.51-.35-2.3-.35s-1.57,.12-2.32,.35c-.76,.23-1.43,.59-2.03,1.09-.59,.49-1.07,1.13-1.43,1.9-.36,.77-.54,1.72-.54,2.84v9.94c0,1.12,.18,2.08,.54,2.87,.36,.79,.84,1.43,1.43,1.93,.59,.49,1.27,.85,2.03,1.06,.76,.21,1.53,.32,2.32,.32s1.56-.11,2.3-.32c.74-.21,1.41-.57,2-1.06,.59-.49,1.07-1.14,1.43-1.93,.36-.79,.54-1.75,.54-2.87v-9.94Z" style="fill: #191a1a;"/>
        <path d="M281.87,137.86c-1.05-.89-2.19-1.51-3.41-1.85-1.22-.35-2.41-.52-3.56-.52-.76,0-1.52,.11-2.27,.32-.76,.22-1.44,.57-2.03,1.06-.59,.49-1.08,1.14-1.46,1.93-.38,.79-.57,1.75-.57,2.87v9.94c0,1.12,.19,2.07,.57,2.84,.38,.77,.87,1.41,1.48,1.9,.61,.49,1.29,.86,2.03,1.09,.74,.23,1.49,.35,2.25,.35,1.15,0,2.31-.16,3.49-.49,1.17-.33,2.35-.96,3.53-1.88l3.21,5.24c-1.25,1.05-2.79,1.88-4.6,2.47s-3.73,.89-5.74,.89c-1.62,0-3.2-.23-4.74-.69-1.55-.46-2.93-1.15-4.15-2.05-1.22-.91-2.21-2.04-2.97-3.41-.76-1.37-1.14-2.98-1.14-4.82v-12.76c0-1.81,.37-3.4,1.11-4.77,.74-1.37,1.71-2.51,2.92-3.44,1.2-.92,2.58-1.62,4.13-2.08,1.55-.46,3.13-.69,4.75-.69,1.98,0,3.88,.26,5.71,.79,1.83,.53,3.4,1.37,4.72,2.52l-3.26,5.24Z" style="fill: #191a1a;"/>
        <path d="M309.61,137.86c-1.05-.89-2.19-1.51-3.41-1.85s-2.41-.52-3.56-.52c-.76,0-1.52,.11-2.27,.32-.76,.22-1.43,.57-2.03,1.06-.59,.49-1.08,1.14-1.46,1.93-.38,.79-.57,1.75-.57,2.87v9.94c0,1.12,.19,2.07,.57,2.84,.38,.77,.87,1.41,1.48,1.9,.61,.49,1.29,.86,2.03,1.09,.74,.23,1.49,.35,2.25,.35,1.15,0,2.32-.16,3.49-.49,1.17-.33,2.35-.96,3.53-1.88l3.21,5.24c-1.25,1.05-2.78,1.88-4.6,2.47-1.81,.59-3.73,.89-5.74,.89-1.62,0-3.2-.23-4.74-.69-1.55-.46-2.93-1.15-4.15-2.05-1.22-.91-2.21-2.04-2.97-3.41-.76-1.37-1.14-2.98-1.14-4.82v-12.76c0-1.81,.37-3.4,1.11-4.77,.74-1.37,1.71-2.51,2.92-3.44,1.2-.92,2.58-1.62,4.13-2.08,1.55-.46,3.13-.69,4.75-.69,1.98,0,3.88,.26,5.71,.79,1.83,.53,3.4,1.37,4.72,2.52l-3.26,5.24Z" style="fill: #191a1a;"/>
        <path d="M337.79,141.47l-3.36,5.19c-.39,.63-.88,1.39-1.46,2.3-.58,.91-1.21,1.89-1.9,2.94-.69,1.05-1.4,2.14-2.13,3.26-.72,1.12-1.42,2.21-2.1,3.26-.68,1.05-1.31,2.03-1.9,2.94-.59,.91-1.09,1.67-1.48,2.3h-6.13v-34.07h6.77v22.4h.2l7.1-11.12,7.25-11.27h6.17v34.07h-6.77v-22.2h-.25Z" style="fill: #191a1a;"/>
        <path d="M371.16,141.47l-3.36,5.19c-.39,.63-.88,1.39-1.46,2.3-.58,.91-1.21,1.89-1.9,2.94-.69,1.05-1.4,2.14-2.13,3.26-.72,1.12-1.43,2.21-2.1,3.26-.68,1.05-1.31,2.03-1.9,2.94-.59,.91-1.09,1.67-1.48,2.3h-6.13v-34.07h6.77v22.4h.2l7.1-11.12,7.25-11.27h6.17v34.07h-6.77v-22.2h-.25Z" style="fill: #191a1a;"/>
      </g>
      <g>
        <path d="M91.74,84.58h-18.07L27.04,5.05h18.07l46.63,79.53Zm-17.54-.94h15.9L44.57,5.99h-15.9l45.53,77.66Z" style="fill: #191a1a;"/>
        <path d="M67.77,84.58h-18.07L3.06,5.05H21.13l46.63,79.53Zm-17.54-.94h15.9L20.59,5.99H4.7L50.23,83.65Z" style="fill: #191a1a;"/>
        <path d="M115.72,84.58h-18.07L51.02,5.05h18.07l46.63,79.53Zm-17.54-.94h15.9L68.55,5.99h-15.9l45.53,77.66Z" style="fill: #191a1a;"/>
        <polygon points="108.38 84.12 110.34 87.46 47.17 87.46 1.64 9.8 6.39 9.8 5.84 8.86 0 8.86 46.63 88.39 111.98 88.39 109.47 84.12 108.38 84.12" style="fill: #191a1a;"/>
        <polygon points="94.22 125.25 30.63 125.25 76.23 47.47 139.82 47.47 94.22 125.25" style="fill: #191a1a;"/>
        <polygon points="67.46 120.74 50.65 120.74 96.26 42.95 113.06 42.95 67.46 120.74" style="fill: #3aa4dc;"/>
        <polygon points="91.19 120.74 74.38 120.74 119.99 42.95 136.8 42.95 91.19 120.74" style="fill: #3aa4dc;"/>
        <polygon points="43.73 120.74 26.92 120.74 72.52 42.95 89.33 42.95 43.73 120.74" style="fill: #3aa4dc;"/>
        <g>
          <polygon points="22.6 8.86 23.16 9.82 30.32 9.82 29.76 8.86 22.6 8.86" style="fill: #191a1a;"/>
          <polygon points="47.14 8.86 47.7 9.82 54.85 9.82 54.29 8.86 47.14 8.86" style="fill: #191a1a;"/>
        </g>
      </g>
      <g>
        <path d="M160.62,19.67V3.31h2.48V19.67h-2.48Zm9.1,0l-6.6-8.57,6.11-7.79h3.06l-6.3,7.72,6.87,8.64h-3.15Z" style="fill: #838483;"/>
        <path d="M184.2,18.15c-1.06,1.06-2.44,1.65-4.23,1.65s-3.17-.6-4.23-1.65c-1.61-1.61-1.65-3.24-1.65-6.66s.05-5.06,1.65-6.66c1.06-1.06,2.44-1.65,4.23-1.65s3.17,.6,4.23,1.65c1.61,1.61,1.65,3.24,1.65,6.66s-.05,5.06-1.65,6.66Zm-1.79-11.77c-.62-.64-1.45-1.01-2.44-1.01s-1.82,.37-2.44,1.01c-.8,.87-.97,1.86-.97,5.1s.16,4.21,.97,5.08c.62,.64,1.45,1.03,2.44,1.03s1.82-.39,2.44-1.03c.83-.85,.96-1.84,.96-5.08s-.14-4.25-.96-5.1Z" style="fill: #838483;"/>
        <path d="M198.63,19.67v-7.15h-6.62v7.15h-2.48V3.31h2.48v7.01h6.62V3.31h2.5V19.67h-2.5Z" style="fill: #838483;"/>
        <path d="M211.15,19.78v-2.05c-4.8-.21-6.76-2.6-6.76-6.87s2.14-6.43,6.76-6.67v-1.58h2.48v1.58c4.62,.23,6.76,2.44,6.76,6.67s-1.95,6.66-6.76,6.87v2.05h-2.48Zm0-13.44c-3.26,.12-4.27,1.7-4.27,4.64s1.08,4.53,4.27,4.67V6.34Zm2.48,9.31c3.19-.14,4.27-1.77,4.27-4.67s-1.01-4.53-4.27-4.64V15.65Z" style="fill: #838483;"/>
        <path d="M223.55,19.67V3.31h10.48v2.23h-8v4.78h6.8v2.21h-6.8v4.92h8v2.23h-10.48Z" style="fill: #838483;"/>
        <path d="M243.61,13.21h-3.72v6.46h-2.48V3.31h6.2c3.19,0,5.24,2.11,5.24,4.96s-2.05,4.94-5.24,4.94Zm-.14-7.68h-3.58v5.47h3.58c1.75,0,2.9-1.01,2.9-2.74s-1.15-2.73-2.9-2.73Z" style="fill: #838483;"/>
        <path d="M251.75,19.67V3.31h10.48v2.23h-8v4.78h6.8v2.21h-6.8v4.92h8v2.23h-10.48Z" style="fill: #838483;"/>
        <path d="M274.7,19.67v-7.15h-6.62v7.15h-2.48V3.31h2.48v7.01h6.62V3.31h2.5V19.67h-2.5Z" style="fill: #838483;"/>
        <path d="M292.55,23.34v-3.68h-11.1V3.31h2.48v14.13h6.62V3.31h2.48v14.13h1.93v5.91h-2.41Z" style="fill: #838483;"/>
        <path d="M307.46,19.67V7.79l-7.33,11.88h-2.25V3.31h2.48V15.16l7.31-11.86h2.28V19.67h-2.48Z" style="fill: #838483;"/>
        <path d="M316.03,19.67h-2.94l3.56-6.89c-1.93-.67-3.15-2.3-3.15-4.5,0-3.03,2.11-4.96,5.22-4.96h6.23V19.67h-2.5v-6.43h-3.24l-3.17,6.43Zm6.41-14.16h-3.56c-1.79,0-2.9,1.03-2.9,2.73s1.1,2.76,2.9,2.76h3.56V5.51Z" style="fill: #838483;"/>
        <path d="M344.29,19.67V7.79l-7.33,11.88h-2.25V3.31h2.48V15.16l7.31-11.86h2.28V19.67h-2.48Z" style="fill: #838483;"/>
        <path d="M363.18,19.67h-6.62V3.31h6.37c2.99,0,4.94,1.75,4.94,4.41,0,1.65-.76,2.85-2.21,3.56,1.61,.76,2.46,1.93,2.46,3.79,0,2.83-1.88,4.6-4.94,4.6Zm-.46-14.13h-3.68v4.69h3.68c1.65,0,2.67-.87,2.67-2.34s-1.01-2.34-2.67-2.34Zm.21,6.92h-3.88v4.99h3.88c1.65,0,2.69-.96,2.69-2.5s-1.03-2.48-2.69-2.48Z" style="fill: #838483;"/>
        <path d="M378.07,19.67h-6.27V3.31h2.48v6.43h3.79c3.12,0,5.19,2.02,5.19,4.96s-2.09,4.96-5.19,4.96Zm-.21-7.7h-3.58v5.47h3.58c1.82,0,2.9-1.03,2.9-2.73s-1.08-2.73-2.9-2.73Zm7.38,7.7V3.31h2.48V19.67h-2.48Z" style="fill: #838483;"/>
        <path d="M397.28,19.81c-1.79,0-3.17-.6-4.23-1.65-1.59-1.61-1.65-3.24-1.65-6.66s.07-5.06,1.65-6.66c1.06-1.06,2.44-1.65,4.23-1.65,3.01,0,5.26,1.79,5.84,5.03h-2.53c-.37-1.68-1.49-2.83-3.31-2.83-.99,0-1.82,.37-2.41,1.01-.83,.87-.99,1.86-.99,5.1s.16,4.23,.99,5.1c.6,.64,1.42,1.01,2.41,1.01,1.82,0,2.96-1.15,3.35-2.83h2.48c-.57,3.24-2.85,5.03-5.84,5.03Z" style="fill: #838483;"/>
        <path d="M411.5,5.54v14.13h-2.48V5.54h-4.5V3.31h11.49v2.23h-4.5Z" style="fill: #838483;"/>
        <path d="M426.87,19.67l-1.15-3.29h-6.46l-1.15,3.29h-2.62l6-16.36h2l5.98,16.36h-2.6Zm-4.32-12.66l-2.57,7.26h5.08l-2.5-7.26Z" style="fill: #838483;"/>
        <path d="M438.43,19.67h-6.62V3.31h6.37c2.99,0,4.94,1.75,4.94,4.41,0,1.65-.76,2.85-2.21,3.56,1.61,.76,2.46,1.93,2.46,3.79,0,2.83-1.88,4.6-4.94,4.6Zm-.46-14.13h-3.68v4.69h3.68c1.65,0,2.67-.87,2.67-2.34s-1.01-2.34-2.67-2.34Zm.21,6.92h-3.88v4.99h3.88c1.65,0,2.69-.96,2.69-2.5s-1.03-2.48-2.69-2.48Z" style="fill: #838483;"/>
        <path d="M447.11,19.67V3.31h2.48V19.67h-2.48Zm9.1,0l-6.6-8.57,6.11-7.79h3.06l-6.3,7.72,6.87,8.64h-3.15Z" style="fill: #838483;"/>
        <path d="M471.4,19.67l-1.15-3.29h-6.46l-1.15,3.29h-2.62l6-16.36h2l5.97,16.36h-2.6Zm-4.32-12.66l-2.57,7.26h5.08l-2.5-7.26Z" style="fill: #838483;"/>
      </g>
    </g>
  </g>
</svg>