<?xml version="1.0" encoding="UTF-8"?>
<svg xmlns="http://www.w3.org/2000/svg" viewBox="0 0 383.48 117.05">
  <g id="_лой_1" data-name="Слой 1"/>
  <g id="_лой_2" data-name="Слой 2">
    <g id="_лой_1-2" data-name="Слой 1">
      <g>
        <g>
          <g>
            <path d="M66.12,57.32h-13.03L19.49,0h13.03l33.61,57.32Zm-12.64-.68h11.46L32.12,.68h-11.46L53.48,56.64Z"/>
            <path d="M48.84,57.32h-13.03L2.2,0H15.23L48.84,57.32Zm-12.64-.68h11.46L14.84,.68H3.39L36.2,56.64Z"/>
            <path d="M83.4,57.32h-13.03L36.77,0h13.03l33.61,57.32Zm-12.64-.68h11.46L49.41,.68h-11.46l32.82,55.97Z"/>
            <g>
              <polygon points="16.45 2.75 16.84 3.42 21.88 3.42 21.49 2.75 16.45 2.75"/>
              <polygon points="33.73 2.75 34.13 3.42 39.17 3.42 38.77 2.75 33.73 2.75"/>
              <polygon points="78.11 56.98 79.52 59.39 34 59.39 1.18 3.42 4.6 3.42 4.21 2.75 0 2.75 33.61 60.06 80.7 60.06 78.89 56.98 78.11 56.98"/>
            </g>
          </g>
          <polygon points="67.9 86.62 22.07 86.62 54.94 30.57 100.77 30.57 67.9 86.62"/>
          <g>
            <polygon points="48.62 83.37 36.5 83.37 69.37 27.32 81.49 27.32 48.62 83.37" style="fill: #39a3dc;"/>
            <polygon points="65.72 83.37 53.61 83.37 86.48 27.32 98.59 27.32 65.72 83.37" style="fill: #39a3dc;"/>
            <polygon points="31.51 83.37 19.4 83.37 52.27 27.32 64.38 27.32 31.51 83.37" style="fill: #39a3dc;"/>
          </g>
        </g>
        <g>
          <path d="M115.99,47.5c.55-.4,1.01-.88,1.39-1.44,.38-.56,.69-1.24,.94-2.05,.25-.81,.45-1.75,.59-2.83,.14-1.08,.25-2.36,.32-3.83l.46-10.08h16.61c0,3.4,0,6.78,.02,10.14,.01,3.36,.02,6.74,.02,10.14h2.14v9.76h-4.45v-5.49h-15.39v5.49h-4.45v-9.8h1.82Zm8.09-15.93l-.29,5.88c-.05,1.05-.11,2.04-.18,2.98-.07,.94-.18,1.83-.32,2.67-.14,.84-.34,1.64-.61,2.39s-.62,1.43-1.07,2.05h9.87v-15.96h-7.41Z"/>
          <path d="M160.57,43.97c0,1.33-.25,2.49-.75,3.49-.5,1-1.17,1.84-2.03,2.53-.85,.69-1.86,1.21-3.01,1.55-1.15,.34-2.36,.52-3.64,.52s-2.5-.17-3.65-.52c-1.15-.34-2.15-.86-3.01-1.55-.85-.69-1.53-1.53-2.03-2.53s-.75-2.16-.75-3.49v-9.01c0-1.31,.26-2.46,.78-3.46,.52-1,1.22-1.83,2.1-2.49,.88-.66,1.89-1.16,3.02-1.5,1.14-.33,2.31-.5,3.52-.5s2.38,.18,3.52,.53c1.14,.36,2.15,.87,3.02,1.55s1.58,1.52,2.1,2.53c.52,1.01,.78,2.17,.78,3.47v8.87Zm-4.88-8.02c0-.81-.13-1.49-.39-2.05-.26-.56-.61-1.02-1.03-1.37s-.91-.62-1.44-.78c-.53-.17-1.09-.25-1.66-.25s-1.13,.08-1.67,.25c-.55,.17-1.03,.43-1.46,.78-.43,.36-.77,.81-1.03,1.37-.26,.56-.39,1.24-.39,2.05v7.16c0,.81,.13,1.5,.39,2.07,.26,.57,.61,1.03,1.03,1.39,.43,.36,.91,.61,1.46,.77,.55,.15,1.1,.23,1.67,.23s1.12-.08,1.66-.23c.53-.15,1.02-.41,1.44-.77s.77-.82,1.03-1.39c.26-.57,.39-1.26,.39-2.07v-7.16Z"/>
          <path d="M175.57,27.26c1.21,0,2.26,.23,3.14,.7,.88,.46,1.61,1.06,2.19,1.8,.58,.74,1.01,1.56,1.28,2.48,.27,.91,.41,1.81,.41,2.69s-.16,1.81-.48,2.71c-.32,.9-.78,1.72-1.39,2.46-.61,.74-1.35,1.34-2.24,1.8-.89,.46-1.91,.7-3.05,.7h-5.95v9.23h-4.88V27.26h10.97Zm-6.09,10.94h4.99c1.12,0,1.96-.31,2.53-.93,.57-.62,.86-1.4,.86-2.33s-.29-1.74-.87-2.36c-.58-.62-1.42-.93-2.51-.93h-4.99v6.56Z"/>
          <path d="M203.82,43.97c0,1.33-.25,2.49-.75,3.49-.5,1-1.17,1.84-2.03,2.53-.85,.69-1.86,1.21-3.01,1.55-1.15,.34-2.36,.52-3.64,.52s-2.5-.17-3.65-.52c-1.15-.34-2.15-.86-3.01-1.55-.85-.69-1.53-1.53-2.03-2.53-.5-1-.75-2.16-.75-3.49v-9.01c0-1.31,.26-2.46,.78-3.46,.52-1,1.22-1.83,2.1-2.49,.88-.66,1.89-1.16,3.02-1.5,1.14-.33,2.31-.5,3.52-.5s2.38,.18,3.52,.53c1.14,.36,2.15,.87,3.02,1.55s1.58,1.52,2.1,2.53c.52,1.01,.78,2.17,.78,3.47v8.87Zm-4.88-8.02c0-.81-.13-1.49-.39-2.05-.26-.56-.61-1.02-1.03-1.37s-.91-.62-1.44-.78c-.53-.17-1.09-.25-1.66-.25s-1.13,.08-1.67,.25c-.55,.17-1.03,.43-1.46,.78-.43,.36-.77,.81-1.03,1.37-.26,.56-.39,1.24-.39,2.05v7.16c0,.81,.13,1.5,.39,2.07,.26,.57,.61,1.03,1.03,1.39,.43,.36,.91,.61,1.46,.77,.55,.15,1.1,.23,1.67,.23s1.12-.08,1.66-.23c.53-.15,1.02-.41,1.44-.77s.77-.82,1.03-1.39c.26-.57,.39-1.26,.39-2.07v-7.16Z"/>
          <path d="M219.68,51.81v-10.37h-1.71c-.5,0-.96,.04-1.39,.12-.43,.08-.82,.24-1.18,.48-.36,.24-.67,.57-.94,1-.27,.43-.51,.97-.69,1.64l-2,7.13h-5.35l2.35-7.91c.36-1.21,.82-2.24,1.41-3.08,.58-.84,1.38-1.43,2.41-1.76-.78-.26-1.47-.79-2.07-1.59-.59-.8-1.07-1.8-1.43-3.01l-2.24-7.2h5.02l2.14,6.73c.21,.67,.46,1.2,.73,1.6,.27,.4,.59,.72,.94,.94,.36,.23,.74,.38,1.16,.46,.42,.08,.86,.12,1.34,.12h1.5v-9.87h4.88v9.87h1.5c.47,0,.92-.04,1.34-.12,.42-.08,.8-.24,1.14-.46,.34-.23,.66-.54,.94-.94,.29-.4,.53-.94,.75-1.6l2.14-6.73h4.99l-2.21,7.2c-.38,1.21-.87,2.22-1.46,3.01-.59,.8-1.27,1.32-2.03,1.59,1.02,.33,1.82,.92,2.39,1.76,.57,.84,1.03,1.87,1.39,3.08l2.35,7.91h-5.31l-2.03-7.13c-.19-.66-.42-1.21-.7-1.64-.27-.43-.58-.76-.93-1-.34-.24-.73-.4-1.16-.48-.43-.08-.89-.12-1.39-.12h-1.71v10.37h-4.88Z"/>
          <path d="M254.46,51.81v-10.26h-9.05v10.26h-4.88V27.26h4.88v9.91h9.05v-9.91h4.95v24.55h-4.95Z"/>
          <path d="M282.25,43.97c0,1.33-.25,2.49-.75,3.49-.5,1-1.17,1.84-2.03,2.53-.85,.69-1.86,1.21-3.01,1.55-1.15,.34-2.36,.52-3.64,.52s-2.5-.17-3.65-.52c-1.15-.34-2.15-.86-3.01-1.55-.85-.69-1.53-1.53-2.03-2.53s-.75-2.16-.75-3.49v-9.01c0-1.31,.26-2.46,.78-3.46,.52-1,1.22-1.83,2.1-2.49,.88-.66,1.89-1.16,3.02-1.5,1.14-.33,2.31-.5,3.52-.5s2.38,.18,3.52,.53c1.14,.36,2.15,.87,3.02,1.55s1.58,1.52,2.1,2.53c.52,1.01,.78,2.17,.78,3.47v8.87Zm-4.88-8.02c0-.81-.13-1.49-.39-2.05-.26-.56-.61-1.02-1.03-1.37s-.91-.62-1.44-.78c-.53-.17-1.09-.25-1.66-.25s-1.13,.08-1.67,.25c-.55,.17-1.03,.43-1.46,.78-.43,.36-.77,.81-1.03,1.37-.26,.56-.39,1.24-.39,2.05v7.16c0,.81,.13,1.5,.39,2.07,.26,.57,.61,1.03,1.03,1.39,.43,.36,.91,.61,1.46,.77,.55,.15,1.1,.23,1.67,.23s1.12-.08,1.66-.23c.53-.15,1.02-.41,1.44-.77s.77-.82,1.03-1.39c.26-.57,.39-1.26,.39-2.07v-7.16Z"/>
          <path d="M286.35,27.26h16.93v4.38h-12.04v5.63h10.3v4.38h-10.3v5.77h12.04v4.38h-16.93V27.26Z"/>
          <path d="M128.64,65.7c-.76-.64-1.58-1.09-2.46-1.34-.88-.25-1.73-.37-2.57-.37-.55,0-1.09,.08-1.64,.23-.55,.15-1.03,.41-1.46,.77-.43,.36-.78,.82-1.05,1.39-.27,.57-.41,1.26-.41,2.07v7.16c0,.81,.14,1.49,.41,2.05,.27,.56,.63,1.02,1.07,1.37,.44,.36,.93,.62,1.46,.78,.53,.17,1.07,.25,1.62,.25,.83,0,1.67-.12,2.51-.36,.84-.24,1.69-.69,2.55-1.35l2.32,3.78c-.9,.76-2.01,1.35-3.31,1.78-1.31,.43-2.68,.64-4.13,.64-1.16,0-2.3-.17-3.42-.5-1.12-.33-2.11-.83-2.99-1.48-.88-.65-1.59-1.47-2.14-2.46-.55-.99-.82-2.14-.82-3.47v-9.19c0-1.31,.27-2.45,.8-3.44,.53-.99,1.23-1.81,2.1-2.48,.87-.66,1.86-1.16,2.98-1.5,1.12-.33,2.26-.5,3.42-.5,1.43,0,2.8,.19,4.12,.57,1.32,.38,2.45,.99,3.4,1.82l-2.35,3.78Z"/>
          <path d="M143.93,64.14v20.17h-4.88v-20.17h-6.52v-4.38h17.89v4.38h-6.49Z"/>
          <path d="M163.88,59.75c1.21,0,2.26,.23,3.14,.7,.88,.46,1.61,1.06,2.19,1.8,.58,.74,1.01,1.56,1.28,2.48,.27,.91,.41,1.81,.41,2.69s-.16,1.81-.48,2.71c-.32,.9-.78,1.72-1.39,2.46-.61,.74-1.35,1.34-2.24,1.8-.89,.46-1.91,.7-3.05,.7h-5.95v9.23h-4.88v-24.55h10.97Zm-6.09,10.94h4.99c1.12,0,1.96-.31,2.53-.93,.57-.62,.86-1.4,.86-2.33s-.29-1.74-.87-2.36c-.58-.62-1.42-.93-2.51-.93h-4.99v6.56Z"/>
          <path d="M192.14,76.47c0,1.33-.25,2.49-.75,3.49-.5,1-1.17,1.84-2.03,2.53-.85,.69-1.86,1.21-3.01,1.55-1.15,.34-2.36,.52-3.64,.52s-2.5-.17-3.65-.52c-1.15-.34-2.15-.86-3.01-1.55-.85-.69-1.53-1.53-2.03-2.53s-.75-2.16-.75-3.49v-9.01c0-1.31,.26-2.46,.78-3.46,.52-1,1.22-1.83,2.1-2.49,.88-.66,1.89-1.16,3.02-1.5,1.14-.33,2.31-.5,3.52-.5s2.38,.18,3.52,.53c1.14,.36,2.15,.87,3.02,1.55s1.58,1.52,2.1,2.53c.52,1.01,.78,2.17,.78,3.47v8.87Zm-4.88-8.02c0-.81-.13-1.49-.39-2.05-.26-.56-.61-1.02-1.03-1.37s-.91-.62-1.44-.78c-.53-.17-1.09-.25-1.66-.25s-1.13,.08-1.67,.25c-.55,.17-1.03,.43-1.46,.78-.43,.36-.77,.81-1.03,1.37-.26,.56-.39,1.24-.39,2.05v7.16c0,.81,.13,1.5,.39,2.07,.26,.57,.61,1.03,1.03,1.39,.43,.36,.91,.61,1.46,.77,.55,.15,1.1,.23,1.67,.23s1.12-.08,1.66-.23c.53-.15,1.02-.41,1.44-.77s.77-.82,1.03-1.39c.26-.57,.39-1.26,.39-2.07v-7.16Z"/>
          <path d="M210.95,68.31l-2.42,3.74c-.29,.45-.64,1-1.05,1.66-.42,.65-.87,1.36-1.37,2.12s-1.01,1.54-1.53,2.35c-.52,.81-1.03,1.59-1.51,2.35-.49,.76-.94,1.47-1.37,2.12s-.78,1.21-1.07,1.66h-4.42v-24.55h4.88v16.14h.14l5.12-8.02,5.23-8.12h4.44v24.55h-4.88v-16h-.18Z"/>
          <path d="M229.98,64.14v20.17h-4.88v-20.17h-6.52v-4.38h17.89v4.38h-6.49Z"/>
          <path d="M239.03,59.75h16.93v4.38h-12.04v5.63h10.3v4.38h-10.3v5.77h12.04v4.38h-16.93v-24.55Z"/>
          <path d="M266.86,64.14v6.52c0,2.04-.12,3.9-.36,5.56-.24,1.66-.67,3.1-1.28,4.31-.62,1.21-1.48,2.19-2.58,2.92-1.1,.74-2.52,1.22-4.26,1.46l-1.07-3.99c1.02-.33,1.84-.76,2.46-1.28,.62-.52,1.1-1.19,1.44-2,.34-.81,.57-1.77,.68-2.89s.16-2.43,.16-3.96v-11.05h16.18v24.55h-4.95v-20.17h-6.41Z"/>
          <path d="M282.64,84.31v-24.55h4.88v9.34h5.67c1.21,0,2.29,.19,3.24,.57,.95,.38,1.76,.9,2.42,1.57,.66,.67,1.18,1.46,1.53,2.39,.36,.93,.53,1.94,.53,3.04,0,.91-.14,1.81-.43,2.71s-.73,1.72-1.34,2.45-1.38,1.32-2.33,1.79c-.95,.46-2.1,.7-3.46,.7h-10.73Zm4.88-4.38h5.06c1.09,0,1.97-.31,2.62-.93,.65-.62,.98-1.39,.98-2.32s-.33-1.72-.98-2.32c-.65-.59-1.54-.89-2.65-.89h-5.02v6.45Z"/>
          <path d="M318.28,65.7c-.76-.64-1.58-1.09-2.46-1.34-.88-.25-1.73-.37-2.57-.37-.55,0-1.09,.08-1.64,.23-.55,.15-1.03,.41-1.46,.77-.43,.36-.78,.82-1.05,1.39-.27,.57-.41,1.26-.41,2.07v7.16c0,.81,.14,1.49,.41,2.05,.27,.56,.63,1.02,1.07,1.37,.44,.36,.93,.62,1.46,.78,.53,.17,1.07,.25,1.62,.25,.83,0,1.67-.12,2.51-.36,.84-.24,1.69-.69,2.55-1.35l2.32,3.78c-.9,.76-2.01,1.35-3.31,1.78-1.31,.43-2.68,.64-4.13,.64-1.16,0-2.3-.17-3.42-.5-1.12-.33-2.11-.83-2.99-1.48-.88-.65-1.59-1.47-2.14-2.46-.55-.99-.82-2.14-.82-3.47v-9.19c0-1.31,.27-2.45,.8-3.44,.53-.99,1.23-1.81,2.1-2.48,.87-.66,1.86-1.16,2.98-1.5,1.12-.33,2.26-.5,3.42-.5,1.43,0,2.8,.19,4.12,.57,1.32,.38,2.45,.99,3.4,1.82l-2.35,3.78Z"/>
          <path d="M333.56,64.14v20.17h-4.88v-20.17h-6.52v-4.38h17.89v4.38h-6.49Z"/>
          <path d="M361.18,77.01c0,1-.15,1.93-.46,2.81-.31,.88-.76,1.65-1.35,2.31-.59,.66-1.33,1.19-2.21,1.58-.88,.39-1.9,.59-3.06,.59h-11.51v-24.55h11.05c1.23,0,2.3,.18,3.19,.54,.89,.36,1.63,.84,2.21,1.46,.58,.62,1.02,1.33,1.3,2.14s.43,1.65,.43,2.53-.24,1.83-.73,2.78c-.49,.95-1.25,1.69-2.3,2.21,.59,.29,1.1,.65,1.53,1.09s.78,.91,1.07,1.42,.5,1.03,.64,1.57,.21,1.04,.21,1.51Zm-5.45-10.1c0-.9-.27-1.59-.8-2.07-.53-.47-1.37-.71-2.51-.71h-4.95v5.38h5.02c1.02,0,1.82-.24,2.39-.71,.57-.48,.86-1.1,.86-1.89Zm.29,9.92c0-.94-.3-1.71-.89-2.29-.59-.58-1.41-.87-2.46-.87h-5.2v6.24h5.24c1.09,0,1.92-.28,2.48-.83,.56-.55,.84-1.3,.84-2.25Z"/>
          <path d="M383.48,76.47c0,1.33-.25,2.49-.75,3.49-.5,1-1.17,1.84-2.03,2.53-.85,.69-1.86,1.21-3.01,1.55-1.15,.34-2.36,.52-3.64,.52s-2.5-.17-3.65-.52c-1.15-.34-2.15-.86-3.01-1.55-.85-.69-1.53-1.53-2.03-2.53s-.75-2.16-.75-3.49v-9.01c0-1.31,.26-2.46,.78-3.46,.52-1,1.22-1.83,2.1-2.49,.88-.66,1.89-1.16,3.02-1.5,1.14-.33,2.31-.5,3.52-.5s2.38,.18,3.52,.53c1.14,.36,2.15,.87,3.02,1.55s1.58,1.52,2.1,2.53c.52,1.01,.78,2.17,.78,3.47v8.87Zm-4.88-8.02c0-.81-.13-1.49-.39-2.05-.26-.56-.61-1.02-1.03-1.37s-.91-.62-1.44-.78c-.53-.17-1.09-.25-1.66-.25s-1.13,.08-1.67,.25c-.55,.17-1.03,.43-1.46,.78-.43,.36-.77,.81-1.03,1.37-.26,.56-.39,1.24-.39,2.05v7.16c0,.81,.13,1.5,.39,2.07,.26,.57,.61,1.03,1.03,1.39,.43,.36,.91,.61,1.46,.77,.55,.15,1.1,.23,1.67,.23s1.12-.08,1.66-.23c.53-.15,1.02-.41,1.44-.77s.77-.82,1.03-1.39c.26-.57,.39-1.26,.39-2.07v-7.16Z"/>
          <path d="M132.81,109.51c0,1-.15,1.93-.46,2.81-.31,.88-.76,1.65-1.35,2.31-.59,.66-1.33,1.19-2.21,1.58-.88,.39-1.9,.59-3.06,.59h-11.51v-24.55h11.05c1.23,0,2.3,.18,3.19,.54,.89,.36,1.63,.84,2.21,1.46,.58,.62,1.02,1.33,1.3,2.14s.43,1.65,.43,2.53-.24,1.83-.73,2.78c-.49,.95-1.25,1.69-2.3,2.21,.59,.29,1.1,.65,1.53,1.09s.78,.91,1.07,1.42,.5,1.03,.64,1.57,.21,1.04,.21,1.51Zm-5.45-10.1c0-.9-.27-1.59-.8-2.07-.53-.47-1.37-.71-2.51-.71h-4.95v5.38h5.02c1.02,0,1.82-.24,2.39-.71,.57-.48,.86-1.1,.86-1.89Zm.29,9.92c0-.94-.3-1.71-.89-2.29-.59-.58-1.41-.87-2.46-.87h-5.2v6.24h5.24c1.09,0,1.92-.28,2.48-.83,.56-.55,.84-1.3,.84-2.25Z"/>
          <path d="M156.43,92.25c1.21,0,2.26,.23,3.14,.7,.88,.46,1.61,1.06,2.19,1.8,.58,.74,1.01,1.56,1.28,2.48,.27,.91,.41,1.81,.41,2.69s-.16,1.81-.48,2.71c-.32,.9-.78,1.72-1.39,2.46-.61,.74-1.35,1.34-2.24,1.8-.89,.46-1.91,.7-3.05,.7h-5.95v9.23h-4.88v-24.55h10.97Zm-6.09,10.94h4.99c1.12,0,1.96-.31,2.53-.93,.57-.62,.86-1.4,.86-2.33s-.29-1.74-.87-2.36c-.58-.62-1.42-.93-2.51-.93h-4.99v6.56Z"/>
          <path d="M184.69,108.96c0,1.33-.25,2.49-.75,3.49-.5,1-1.17,1.84-2.03,2.53-.85,.69-1.86,1.21-3.01,1.55-1.15,.34-2.36,.52-3.64,.52s-2.5-.17-3.65-.52c-1.15-.34-2.15-.86-3.01-1.55-.85-.69-1.53-1.53-2.03-2.53s-.75-2.16-.75-3.49v-9.01c0-1.31,.26-2.46,.78-3.46,.52-1,1.22-1.83,2.1-2.49,.88-.66,1.89-1.16,3.02-1.5,1.14-.33,2.31-.5,3.52-.5s2.38,.18,3.52,.53c1.14,.36,2.15,.87,3.02,1.55,.88,.68,1.58,1.52,2.1,2.53,.52,1.01,.78,2.17,.78,3.47v8.87Zm-4.88-8.02c0-.81-.13-1.49-.39-2.05-.26-.56-.61-1.02-1.03-1.37s-.91-.62-1.44-.78c-.53-.17-1.09-.25-1.66-.25s-1.13,.08-1.67,.25c-.55,.17-1.03,.43-1.46,.78-.43,.36-.77,.81-1.03,1.37-.26,.56-.39,1.24-.39,2.05v7.16c0,.81,.13,1.5,.39,2.07,.26,.57,.61,1.03,1.03,1.39,.43,.36,.91,.61,1.46,.77,.55,.15,1.1,.23,1.67,.23s1.12-.08,1.66-.23c.53-.15,1.02-.41,1.44-.77s.77-.82,1.03-1.39c.26-.57,.39-1.26,.39-2.07v-7.16Z"/>
          <path d="M203.18,98.2c-.76-.64-1.58-1.09-2.46-1.34-.88-.25-1.73-.37-2.57-.37-.55,0-1.09,.08-1.64,.23-.55,.15-1.03,.41-1.46,.77-.43,.36-.78,.82-1.05,1.39-.27,.57-.41,1.26-.41,2.07v7.16c0,.81,.14,1.49,.41,2.05,.27,.56,.63,1.02,1.07,1.37,.44,.36,.93,.62,1.46,.78,.53,.17,1.07,.25,1.62,.25,.83,0,1.67-.12,2.51-.36,.84-.24,1.69-.69,2.55-1.35l2.32,3.78c-.9,.76-2.01,1.35-3.31,1.78-1.31,.43-2.68,.64-4.13,.64-1.16,0-2.3-.17-3.42-.5-1.12-.33-2.11-.83-2.99-1.48-.88-.65-1.59-1.47-2.14-2.46-.55-.99-.82-2.14-.82-3.47v-9.19c0-1.31,.27-2.45,.8-3.44,.53-.99,1.23-1.81,2.1-2.48,.87-.66,1.86-1.16,2.98-1.5,1.12-.33,2.26-.5,3.42-.5,1.43,0,2.8,.19,4.12,.57,1.32,.38,2.45,.99,3.4,1.82l-2.35,3.78Z"/>
          <path d="M223.17,98.2c-.76-.64-1.58-1.09-2.46-1.34-.88-.25-1.73-.37-2.57-.37-.55,0-1.09,.08-1.64,.23-.55,.15-1.03,.41-1.46,.77-.43,.36-.78,.82-1.05,1.39-.27,.57-.41,1.26-.41,2.07v7.16c0,.81,.14,1.49,.41,2.05,.27,.56,.63,1.02,1.07,1.37,.44,.36,.93,.62,1.46,.78,.53,.17,1.07,.25,1.62,.25,.83,0,1.67-.12,2.51-.36,.84-.24,1.69-.69,2.55-1.35l2.32,3.78c-.9,.76-2.01,1.35-3.31,1.78-1.31,.43-2.68,.64-4.13,.64-1.16,0-2.3-.17-3.42-.5-1.12-.33-2.11-.83-2.99-1.48-.88-.65-1.59-1.47-2.14-2.46-.55-.99-.82-2.14-.82-3.47v-9.19c0-1.31,.27-2.45,.8-3.44,.53-.99,1.23-1.81,2.1-2.48,.87-.66,1.86-1.16,2.98-1.5,1.12-.33,2.26-.5,3.42-.5,1.43,0,2.8,.19,4.12,.57,1.32,.38,2.45,.99,3.4,1.82l-2.35,3.78Z"/>
          <path d="M243.48,100.8l-2.42,3.74c-.29,.45-.64,1-1.05,1.66-.42,.65-.87,1.36-1.37,2.12s-1.01,1.54-1.53,2.35c-.52,.81-1.03,1.59-1.51,2.35-.49,.76-.94,1.47-1.37,2.12s-.78,1.21-1.07,1.66h-4.42v-24.55h4.88v16.14h.14l5.12-8.02,5.23-8.12h4.44v24.55h-4.88v-16h-.18Z"/>
          <path d="M267.54,100.8l-2.42,3.74c-.29,.45-.64,1-1.05,1.66-.42,.65-.87,1.36-1.37,2.12s-1.01,1.54-1.53,2.35c-.52,.81-1.03,1.59-1.51,2.35-.49,.76-.94,1.47-1.37,2.12s-.78,1.21-1.07,1.66h-4.42v-24.55h4.88v16.14h.14l5.12-8.02,5.23-8.12h4.44v24.55h-4.88v-16h-.18Z"/>
        </g>
      </g>
    </g>
  </g>
</svg>