<?xml version="1.0" encoding="UTF-8"?>
<svg xmlns="http://www.w3.org/2000/svg" viewBox="0 0 139.82 120.19">
  <g id="_лой_1" data-name="Слой 1"/>
  <g id="_лой_2" data-name="Слой 2">
    <g id="_920х1080" data-name="1920х1080">
      <g>
        <path d="M91.74,79.53h-18.07L27.04,0h18.07l46.63,79.53Zm-17.54-.94h15.9L44.57,.94h-15.9l45.53,77.66Z" style="fill: #191a1a;"/>
        <path d="M67.77,79.53h-18.07L3.06,0H21.13l46.63,79.53Zm-17.54-.94h15.9L20.59,.94H4.7L50.23,78.59Z" style="fill: #191a1a;"/>
        <path d="M115.72,79.53h-18.07L51.02,0h18.07l46.63,79.53Zm-17.54-.94h15.9L68.55,.94h-15.9l45.53,77.66Z" style="fill: #191a1a;"/>
        <polygon points="108.38 79.06 110.34 82.4 47.17 82.4 1.64 4.75 6.39 4.75 5.84 3.81 0 3.81 46.63 83.34 111.98 83.34 109.47 79.06 108.38 79.06" style="fill: #191a1a;"/>
        <polygon points="94.22 120.19 30.63 120.19 76.23 42.41 139.82 42.41 94.22 120.19" style="fill: #191a1a;"/>
        <polygon points="67.46 115.68 50.65 115.68 96.26 37.9 113.06 37.9 67.46 115.68" style="fill: #3aa4dc;"/>
        <polygon points="91.19 115.68 74.38 115.68 119.99 37.9 136.8 37.9 91.19 115.68" style="fill: #3aa4dc;"/>
        <polygon points="43.73 115.68 26.92 115.68 72.52 37.9 89.33 37.9 43.73 115.68" style="fill: #3aa4dc;"/>
        <g>
          <polygon points="22.6 3.81 23.16 4.77 30.32 4.77 29.76 3.81 22.6 3.81" style="fill: #191a1a;"/>
          <polygon points="47.14 3.81 47.7 4.77 54.85 4.77 54.29 3.81 47.14 3.81" style="fill: #191a1a;"/>
        </g>
      </g>
    </g>
  </g>
</svg>