<?xml version="1.0" standalone="no"?>
<!DOCTYPE svg PUBLIC "-//W3C//DTD SVG 20010904//EN"
 "http://www.w3.org/TR/2001/REC-SVG-20010904/DTD/svg10.dtd">
<svg version="1.0" xmlns="http://www.w3.org/2000/svg"
 width="1120.000000pt" height="1120.000000pt" viewBox="0 0 1120.000000 1120.000000"
 preserveAspectRatio="xMidYMid meet">
<metadata>
Created by potrace 1.14, written by Peter Selinger 2001-2017
</metadata>
<g transform="translate(0.000000,1120.000000) scale(0.100000,-0.100000)"
fill="#000000" stroke="none">
<path d="M250 10406 c0 -2 37 -66 81 -142 45 -77 83 -144 85 -149 3 -7 -65
-10 -201 -10 -116 0 -205 -3 -205 -8 0 -13 62 -121 72 -125 4 -2 8 -8 8 -14 0
-6 17 -38 37 -72 63 -102 73 -120 79 -138 4 -10 10 -18 15 -18 5 0 9 -4 9 -9
0 -8 20 -44 74 -134 10 -18 26 -45 35 -62 9 -16 28 -48 42 -70 13 -22 31 -53
39 -70 8 -16 18 -32 21 -35 4 -3 31 -47 60 -98 30 -52 64 -110 76 -130 13 -20
28 -49 35 -64 7 -16 16 -28 20 -28 4 0 8 -4 8 -9 0 -6 40 -78 90 -162 50 -83
90 -155 90 -159 0 -5 6 -15 13 -22 11 -11 34 -50 108 -178 8 -14 20 -33 28
-42 8 -10 10 -18 5 -18 -5 0 -4 -4 1 -8 11 -7 34 -44 114 -186 11 -19 31 -53
45 -75 15 -22 26 -43 26 -45 0 -3 88 -154 150 -256 5 -8 48 -82 96 -165 48
-82 93 -153 98 -157 6 -4 7 -8 2 -8 -5 0 -2 -8 6 -17 9 -10 17 -23 19 -28 3
-8 63 -111 119 -205 5 -8 45 -76 88 -150 44 -74 108 -184 144 -245 35 -60 67
-118 71 -127 3 -10 11 -18 17 -18 5 0 10 -6 10 -12 0 -7 36 -74 80 -148 44
-73 80 -135 80 -136 0 -1 34 -59 75 -128 41 -69 75 -130 75 -136 0 -5 5 -10
10 -10 6 0 10 -6 10 -14 0 -7 7 -19 15 -26 8 -7 15 -21 15 -31 0 -11 4 -19 10
-19 5 0 17 -15 25 -32 25 -54 59 -113 68 -116 4 -2 7 -8 7 -14 0 -5 13 -29 30
-53 16 -24 30 -46 30 -48 0 -3 26 -49 58 -104 32 -54 61 -106 65 -115 3 -10
11 -18 17 -18 5 0 10 -6 10 -14 0 -7 29 -62 65 -121 36 -59 65 -108 65 -110 0
-2 21 -39 48 -82 26 -43 58 -99 72 -125 14 -27 28 -48 32 -48 5 0 8 -5 8 -10
0 -6 18 -40 40 -76 22 -36 40 -70 40 -75 0 -5 5 -9 10 -9 6 0 10 -4 10 -9 0
-9 51 -97 385 -666 87 -148 183 -312 213 -364 l54 -94 -21 -41 c-24 -47 -43
-81 -88 -153 -17 -28 -29 -54 -26 -57 4 -3 2 -6 -4 -6 -6 0 -20 -17 -30 -37
-11 -21 -66 -117 -123 -213 -57 -96 -110 -188 -119 -205 -9 -16 -19 -32 -22
-35 -3 -3 -9 -12 -12 -20 -4 -8 -15 -28 -26 -45 -10 -16 -27 -46 -38 -65 -11
-19 -51 -87 -88 -150 -37 -63 -76 -129 -86 -147 -10 -17 -29 -50 -43 -72 -15
-22 -26 -43 -26 -47 0 -3 -13 -25 -29 -49 -16 -24 -32 -53 -36 -64 -3 -12 -11
-21 -16 -21 -5 0 -9 -4 -9 -10 0 -9 -29 -60 -162 -283 -32 -54 -58 -101 -58
-104 0 -4 -6 -14 -14 -22 -7 -9 -25 -36 -38 -61 -54 -96 -242 -416 -260 -442
-11 -16 -16 -28 -11 -28 4 0 3 -4 -3 -8 -5 -4 -32 -45 -59 -92 -26 -47 -51
-87 -54 -90 -3 -3 -14 -21 -23 -42 -14 -29 -14 -37 -3 -41 7 -3 15 -3 18 -1 7
7 307 7 314 1 3 -3 15 -2 27 3 13 4 29 4 39 -1 12 -7 17 -6 17 1 0 7 8 9 23 4
12 -4 29 -7 39 -6 12 0 7 -13 -23 -58 -21 -33 -39 -61 -39 -64 0 -2 -29 -54
-65 -115 -36 -60 -65 -112 -65 -115 0 -3 1146 -5 2546 -4 l2546 3 25 45 c13
25 36 62 49 82 13 21 24 42 24 47 0 5 3 11 8 13 4 2 16 19 26 38 58 107 111
195 118 198 4 2 8 8 8 13 0 5 28 55 61 111 55 92 88 149 123 213 6 11 13 22
16 25 5 5 80 134 128 220 14 25 42 72 64 106 21 34 38 66 38 73 0 6 4 11 9 11
5 0 11 8 14 17 7 19 37 73 96 168 21 33 41 67 44 75 4 8 15 29 26 45 10 17 27
46 38 65 69 121 128 216 137 222 6 4 8 8 4 8 -4 0 40 79 98 176 57 97 104 177
104 179 0 3 91 155 110 185 6 8 13 22 17 30 4 8 39 69 79 135 39 66 79 136 89
155 10 19 21 37 24 40 3 3 13 17 21 32 8 15 51 89 95 164 44 75 91 156 105
180 14 24 65 113 114 196 49 84 94 162 100 173 6 11 13 22 16 25 11 10 80 132
80 141 0 5 4 9 8 9 4 0 14 16 21 35 7 19 16 35 21 35 5 0 12 9 15 21 4 11 32
62 62 112 30 51 68 114 84 140 16 27 29 53 29 58 0 5 4 9 9 9 5 0 11 8 14 18
3 9 20 40 36 67 17 28 42 70 56 95 14 25 38 66 53 91 15 25 45 77 67 115 21
38 45 75 52 82 7 7 13 18 13 23 0 5 22 46 50 90 28 44 50 82 50 84 0 4 97 169
120 205 5 8 19 32 30 53 12 21 61 106 110 188 50 83 90 153 90 155 0 3 8 17
19 32 18 27 125 207 148 250 14 27 77 132 110 184 13 21 23 40 23 43 0 2 17
33 39 68 21 34 77 129 124 210 l86 147 -37 1 c-20 0 -121 1 -224 1 -104 0
-188 4 -188 7 0 4 11 22 25 41 13 18 22 36 20 41 -3 4 -1 9 3 11 5 1 42 60 84
131 l76 127 -37 1 c-158 2 -1313 0 -1314 -2 -10 -20 -120 -209 -138 -238 -9
-14 -28 -46 -42 -71 l-25 -45 -276 -1 c-152 -1 -276 1 -276 4 0 2 19 37 43 76
24 39 46 78 50 86 5 8 13 24 20 35 58 95 87 148 83 152 -2 3 -302 5 -666 5
-640 0 -662 0 -678 -19 -9 -11 -24 -32 -33 -49 -9 -16 -47 -82 -84 -146 -54
-93 -71 -115 -82 -107 -7 7 -13 18 -13 25 0 8 -4 14 -9 14 -5 0 -11 8 -14 18
-4 9 -18 37 -33 62 -25 42 -40 68 -76 131 -7 13 -16 26 -19 29 -3 3 -23 37
-44 75 -22 39 -44 78 -50 87 -20 33 -130 222 -146 250 -9 15 -22 35 -29 43 -7
8 -9 15 -6 15 4 0 2 6 -4 13 -10 12 -110 178 -110 183 0 1 -21 38 -48 81 -26
43 -58 99 -72 126 -14 26 -28 47 -32 47 -5 0 -8 4 -8 9 0 4 -43 81 -95 170
-52 89 -95 166 -95 171 0 6 -4 10 -10 10 -5 0 -10 4 -10 9 0 8 -98 181 -117
207 -8 10 -19 29 -45 77 -7 12 -15 24 -18 27 -3 3 -12 19 -20 35 -8 17 -26 48
-40 70 -13 22 -30 49 -36 60 -41 74 -126 219 -170 291 -24 39 -44 76 -44 82 0
7 -4 12 -9 12 -5 0 -15 16 -22 35 -7 19 -16 35 -20 35 -4 0 -9 8 -13 18 -6 18
-24 50 -69 119 -15 24 -27 45 -27 48 0 2 -15 28 -33 57 -19 29 -37 60 -41 68
-4 8 -12 24 -19 35 -36 60 -196 333 -221 378 -16 29 -33 54 -38 55 -4 2 -8 10
-8 19 0 8 -6 21 -14 29 -8 7 -16 18 -18 24 -2 7 -239 9 -725 8 l-722 -3 12
-23 c7 -12 46 -79 87 -150 l75 -127 -235 1 c-129 1 -237 2 -240 3 -3 0 -19 27
-35 59 -17 31 -33 59 -37 60 -5 2 -8 10 -8 18 0 8 -4 14 -10 14 -5 0 -10 4
-10 9 0 5 -17 39 -37 75 l-38 66 -722 0 c-398 0 -723 -2 -723 -3 0 -7 148
-258 161 -273 9 -11 10 -17 2 -22 -9 -6 -438 -8 -464 -3 -3 0 -14 19 -24 41
-10 22 -22 40 -27 40 -5 0 -7 4 -4 9 3 5 -1 14 -9 21 -8 7 -15 19 -15 26 0 8
-4 14 -10 14 -5 0 -10 4 -10 9 0 5 -17 39 -38 75 l-37 66 -722 0 c-398 0 -723
-2 -723 -4z m1417 -103 c13 -18 23 -35 23 -38 0 -3 11 -22 23 -43 13 -20 32
-50 43 -67 10 -16 17 -33 16 -37 -1 -5 3 -8 8 -8 6 0 10 -7 10 -15 0 -8 5 -15
10 -15 6 0 10 -5 10 -11 0 -7 14 -35 32 -63 17 -28 40 -67 51 -86 11 -19 28
-48 38 -65 11 -16 22 -37 26 -45 4 -8 31 -54 60 -102 29 -48 53 -92 53 -98 0
-5 5 -10 10 -10 6 0 10 -4 10 -9 0 -10 69 -132 79 -141 4 -3 15 -24 26 -47 11
-24 23 -43 28 -43 4 0 7 -4 7 -9 0 -4 27 -53 60 -109 33 -55 60 -105 60 -111
0 -6 5 -11 10 -11 6 0 10 -4 10 -9 0 -5 21 -44 47 -87 25 -44 70 -119 99 -169
30 -49 57 -94 61 -100 5 -5 14 -21 21 -35 7 -14 23 -43 37 -65 13 -22 27 -47
31 -55 4 -8 19 -33 33 -55 14 -22 35 -58 47 -80 17 -33 148 -256 183 -315 64
-105 161 -273 161 -281 0 -5 5 -9 10 -9 6 0 10 -6 10 -14 0 -7 7 -19 15 -26 8
-6 14 -15 12 -18 -1 -4 6 -18 14 -32 50 -80 99 -162 99 -165 0 -3 19 -35 42
-72 22 -38 52 -88 66 -113 14 -25 28 -47 31 -50 4 -3 12 -16 18 -30 7 -14 25
-46 40 -72 15 -26 49 -83 76 -127 26 -44 47 -85 47 -91 0 -5 3 -10 8 -10 4 0
12 -10 18 -23 6 -12 48 -85 94 -162 45 -77 91 -156 102 -175 53 -92 191 -326
198 -335 4 -5 19 -30 33 -55 13 -25 48 -85 77 -135 29 -49 61 -103 70 -120 10
-16 37 -64 62 -105 25 -41 56 -96 70 -121 47 -84 53 -94 59 -99 6 -6 82 -137
113 -195 12 -22 24 -42 27 -45 4 -3 16 -23 28 -45 12 -22 32 -58 45 -79 l23
-39 -25 -46 c-14 -25 -28 -48 -31 -51 -3 -3 -17 -25 -30 -50 -14 -25 -49 -85
-78 -134 -29 -49 -53 -92 -53 -97 0 -5 -3 -9 -7 -9 -5 0 -13 -10 -19 -23 -21
-45 -77 -142 -90 -158 -8 -8 -14 -21 -14 -27 0 -6 -6 -17 -12 -24 -7 -8 -19
-24 -26 -37 -36 -62 -56 -98 -66 -116 -59 -106 -182 -305 -188 -305 -5 0 -13
10 -18 22 -6 13 -22 41 -36 63 -14 22 -30 52 -37 68 -6 15 -15 27 -19 27 -4 0
-8 4 -8 9 0 5 -34 67 -76 138 -42 70 -84 142 -94 158 -81 140 -125 215 -141
240 -10 17 -23 39 -29 50 -5 11 -21 38 -35 60 -14 22 -28 46 -32 54 -3 8 -30
54 -60 103 -29 49 -53 91 -53 93 0 3 -16 29 -35 59 -19 30 -35 60 -35 66 0 5
-3 10 -7 10 -5 0 -13 10 -19 23 -6 12 -52 93 -103 181 -51 87 -97 168 -104
180 -7 11 -15 23 -18 26 -3 3 -18 28 -33 55 -62 111 -80 142 -103 178 -23 37
-50 84 -80 137 -8 14 -25 43 -39 65 -13 22 -27 47 -31 55 -3 8 -12 22 -18 30
-7 8 -25 38 -40 65 -14 28 -35 64 -46 80 -10 17 -23 39 -29 50 -5 11 -14 27
-20 35 -30 44 -260 444 -260 451 0 5 -4 9 -10 9 -5 0 -10 4 -10 9 0 5 -20 44
-45 85 -25 42 -45 81 -45 86 0 6 -4 10 -8 10 -5 0 -19 19 -31 43 -12 23 -33
60 -46 82 -13 22 -30 51 -38 65 -18 32 -112 192 -143 245 -13 22 -41 69 -61
105 -20 36 -39 67 -42 70 -4 3 -13 19 -21 35 -8 17 -36 65 -62 108 -27 43 -48
83 -48 88 0 5 -4 9 -10 9 -5 0 -10 5 -10 10 0 6 -18 40 -40 76 -22 36 -40 70
-40 75 0 5 -4 9 -10 9 -5 0 -10 5 -10 11 0 13 -81 152 -95 161 -5 4 -6 8 -2 8
4 0 -3 15 -15 33 -13 17 -31 46 -38 62 -8 17 -17 32 -20 35 -3 3 -11 16 -18
29 -8 13 -49 85 -93 159 -43 74 -79 139 -79 143 0 5 -4 9 -10 9 -5 0 -10 4
-10 9 0 12 -143 255 -152 259 -5 2 -8 8 -8 14 0 9 -123 222 -211 366 -22 35
-39 65 -39 68 0 3 -16 30 -35 60 -19 30 -35 56 -35 58 0 2 -25 45 -55 95 -30
51 -55 96 -55 101 0 6 -5 10 -11 10 -5 0 -7 5 -4 10 3 6 3 10 -2 10 -4 0 -19
21 -33 48 -13 26 -27 49 -30 52 -10 9 -41 65 -47 83 -3 9 -10 17 -15 17 -5 0
-7 4 -4 9 3 5 -1 14 -9 21 -8 7 -15 18 -15 25 0 8 -3 15 -7 17 -11 4 -43 64
-39 69 3 2 287 4 633 4 l628 0 22 -32z m1949 -48 c26 -44 54 -91 63 -105 8
-14 14 -28 13 -32 -1 -5 3 -8 8 -8 6 0 10 -7 10 -15 0 -9 6 -18 13 -21 8 -3
14 -11 14 -18 0 -7 21 -46 48 -87 26 -41 48 -76 48 -79 0 -3 7 -16 15 -30 8
-14 25 -41 36 -60 12 -19 30 -52 41 -72 11 -21 23 -38 27 -38 5 0 8 -4 8 -10
0 -5 71 -130 157 -277 86 -147 164 -281 172 -298 9 -16 18 -32 21 -35 3 -3 19
-27 35 -55 17 -27 35 -59 42 -70 6 -11 19 -33 27 -50 9 -16 25 -45 36 -62 49
-80 61 -101 81 -140 12 -24 25 -43 31 -43 5 0 7 -4 4 -9 -3 -5 1 -14 9 -21 8
-7 15 -19 15 -26 0 -8 5 -14 10 -14 6 0 10 -9 10 -19 0 -11 4 -21 9 -23 7 -3
33 -45 119 -198 15 -25 30 -46 34 -48 4 -2 8 -10 8 -17 0 -8 6 -20 13 -27 6
-7 22 -33 35 -58 13 -25 68 -119 123 -210 55 -91 105 -177 111 -192 7 -16 16
-28 20 -28 4 0 8 -6 8 -14 0 -7 8 -24 18 -37 11 -13 32 -49 49 -79 16 -30 48
-86 71 -124 23 -37 42 -70 42 -72 0 -2 18 -32 40 -66 22 -35 40 -69 40 -75 0
-7 5 -13 10 -13 6 0 10 -4 10 -8 0 -9 91 -167 107 -187 4 -5 13 -21 20 -35 6
-14 23 -43 37 -66 l25 -40 -50 -82 c-27 -45 -49 -87 -49 -92 0 -6 -4 -10 -8
-10 -5 0 -16 -15 -25 -34 -9 -19 -57 -103 -106 -186 -50 -84 -91 -154 -91
-158 0 -3 -11 -20 -25 -38 -14 -18 -25 -39 -25 -47 0 -9 -3 -17 -8 -19 -4 -1
-52 -79 -106 -173 -55 -93 -110 -187 -123 -209 l-25 -38 -61 107 c-34 59 -71
122 -82 141 -70 117 -85 145 -85 154 0 5 -3 10 -7 10 -5 0 -17 18 -27 40 -11
22 -23 40 -28 40 -5 0 -7 4 -3 9 3 5 1 12 -4 15 -8 5 -67 103 -94 156 -4 8
-16 29 -27 45 -10 17 -31 54 -47 83 -15 28 -31 52 -35 52 -4 0 -8 4 -8 9 0 13
-82 155 -92 159 -4 2 -8 8 -8 14 0 6 -17 38 -37 72 -49 79 -69 113 -89 154 -9
17 -20 32 -25 32 -5 0 -9 6 -9 13 0 7 -45 88 -100 180 -55 92 -100 169 -100
171 0 4 -127 217 -137 231 -4 6 -21 36 -38 68 -16 31 -33 57 -37 57 -5 0 -8 4
-8 9 0 10 -79 152 -90 161 -3 3 -11 16 -17 30 -7 14 -24 43 -37 65 -14 22 -31
51 -39 65 -8 14 -36 63 -64 110 -27 47 -56 96 -64 110 -8 14 -16 27 -19 30 -3
3 -11 16 -17 30 -7 14 -25 46 -40 72 -103 171 -209 355 -211 366 -2 6 -8 12
-13 12 -5 0 -9 4 -9 9 0 4 -50 93 -111 197 -61 104 -120 203 -130 221 -89 155
-144 249 -149 253 -3 3 -15 23 -27 45 -45 81 -73 131 -98 170 -14 22 -28 47
-32 55 -3 8 -18 33 -32 55 -14 22 -26 42 -26 45 0 3 -12 23 -26 45 -14 22 -37
60 -50 85 -13 25 -27 47 -31 48 -5 2 -8 7 -8 12 0 4 -18 38 -41 75 -22 37 -42
72 -45 78 -3 9 153 12 630 12 l635 0 47 -80z m1904 32 c16 -26 30 -50 30 -53
0 -2 12 -23 27 -47 15 -23 33 -53 40 -67 7 -14 23 -42 36 -62 12 -21 49 -84
82 -140 32 -57 74 -126 92 -155 18 -29 33 -54 33 -56 0 -3 25 -46 55 -96 30
-51 55 -96 55 -101 0 -6 5 -10 10 -10 6 0 10 -4 10 -9 0 -8 58 -110 90 -161 6
-8 16 -26 22 -40 7 -14 15 -27 18 -30 11 -9 90 -151 90 -161 0 -5 5 -9 10 -9
6 0 10 -5 10 -11 0 -6 12 -30 28 -53 15 -22 34 -54 42 -71 8 -16 22 -42 32
-56 15 -22 82 -136 138 -235 10 -17 35 -60 57 -95 21 -35 45 -78 53 -94 8 -17
18 -32 21 -35 3 -3 23 -35 43 -72 21 -37 42 -70 47 -74 5 -3 7 -10 4 -15 -4
-5 -1 -9 4 -9 6 0 11 -5 11 -11 0 -6 14 -31 30 -56 17 -24 30 -46 30 -48 0 -2
20 -37 44 -77 67 -114 185 -315 199 -340 35 -64 132 -225 146 -242 9 -10 14
-20 12 -23 -2 -2 8 -23 23 -45 14 -22 26 -44 26 -49 0 -5 4 -9 9 -9 5 0 11 -8
14 -17 8 -25 50 -97 60 -101 4 -2 7 -7 7 -12 0 -5 27 -55 60 -112 33 -56 60
-106 60 -109 0 -4 -108 -7 -240 -6 -132 0 -240 3 -240 5 0 5 59 107 157 271
24 40 42 76 39 78 -3 3 -273 5 -599 5 l-595 0 -13 26 c-7 15 -26 46 -41 69
-15 23 -28 44 -28 47 0 3 -16 30 -35 61 -20 30 -32 55 -28 55 4 0 3 4 -3 8
-10 7 -74 108 -74 117 0 3 -15 28 -32 58 -92 149 -148 246 -148 257 0 5 -3 10
-7 10 -5 0 -13 10 -19 23 -6 12 -57 101 -114 197 -57 96 -108 185 -114 197 -6
13 -14 23 -18 23 -5 0 -8 5 -8 11 0 6 -22 48 -50 94 -27 46 -50 88 -50 94 0 6
-4 11 -10 11 -5 0 -10 7 -10 15 0 8 -4 15 -10 15 -5 0 -10 5 -10 10 0 6 -34
67 -75 136 -41 69 -75 130 -75 135 0 5 -5 9 -11 9 -5 0 -8 4 -5 9 4 5 3 11 -2
13 -8 3 -135 217 -162 273 -8 16 -17 32 -21 35 -4 3 -16 21 -27 41 -42 76 -47
84 -52 89 -3 3 -12 19 -20 35 -8 17 -17 32 -20 35 -3 3 -12 19 -20 35 -8 17
-17 32 -21 35 -5 5 -75 124 -141 241 -7 13 -15 26 -18 29 -3 3 -13 21 -23 40
-35 66 -52 95 -58 100 -4 3 -19 28 -33 55 -15 28 -35 62 -44 77 -43 67 -79
133 -77 138 2 3 287 5 634 5 l631 0 30 -48z m-5026 -302 c11 -22 24 -42 27
-45 6 -5 21 -32 56 -100 10 -19 21 -37 24 -40 4 -3 22 -32 39 -65 18 -33 38
-66 44 -74 11 -14 31 -48 42 -71 4 -8 25 -43 46 -78 21 -34 38 -67 38 -72 0
-6 4 -10 8 -10 5 0 14 -16 22 -35 8 -19 17 -35 21 -35 4 0 9 -8 12 -17 4 -10
18 -36 31 -58 14 -22 30 -49 36 -60 5 -11 14 -27 20 -35 19 -30 150 -253 150
-256 0 -3 21 -39 48 -82 26 -42 54 -90 62 -107 8 -16 18 -32 21 -35 3 -3 19
-30 35 -60 16 -30 32 -56 36 -58 4 -2 17 -22 28 -45 11 -23 34 -64 51 -92 16
-27 32 -58 35 -67 4 -10 9 -18 13 -18 3 0 17 -21 31 -47 13 -27 27 -50 30 -53
3 -3 11 -16 18 -29 8 -13 22 -39 33 -57 10 -19 28 -49 38 -68 11 -19 31 -52
44 -73 13 -21 35 -59 49 -84 45 -80 53 -94 58 -99 3 -3 12 -18 20 -35 8 -16
18 -32 21 -35 4 -3 16 -23 28 -45 12 -22 33 -58 46 -80 14 -22 28 -47 32 -55
3 -8 14 -26 23 -40 17 -24 40 -65 83 -145 12 -22 25 -42 28 -45 4 -3 19 -27
33 -55 15 -27 36 -63 46 -80 11 -16 37 -61 60 -100 22 -38 53 -91 68 -116 15
-25 54 -93 87 -150 32 -57 62 -106 65 -109 3 -3 16 -25 29 -50 13 -25 59 -103
101 -175 43 -71 114 -192 159 -268 44 -75 81 -140 81 -143 0 -3 13 -25 30 -49
16 -24 30 -46 30 -49 0 -2 22 -40 48 -83 26 -43 51 -85 55 -93 4 -8 15 -28 26
-45 23 -38 287 -489 314 -535 10 -19 28 -47 38 -62 11 -14 19 -29 19 -32 0 -3
27 -51 60 -106 33 -55 60 -105 60 -110 0 -6 4 -10 9 -10 5 0 11 -6 13 -12 2
-10 101 -184 161 -283 35 -58 60 -100 76 -129 16 -29 44 -75 144 -244 15 -26
31 -54 34 -62 4 -8 17 -30 29 -48 l23 -33 -22 -37 c-11 -20 -25 -40 -30 -43
-5 -3 -9 -10 -9 -15 0 -5 -25 -51 -55 -103 -48 -82 -57 -92 -66 -75 -6 10 -46
79 -89 153 -43 74 -78 138 -78 142 0 5 -4 9 -8 9 -4 0 -15 15 -23 32 -9 18
-46 85 -84 148 -38 63 -73 125 -79 137 -6 13 -14 23 -18 23 -5 0 -8 6 -8 13 0
7 -11 28 -23 47 -21 31 -42 66 -94 160 -8 14 -23 39 -33 55 -10 17 -31 53 -45
80 -15 28 -33 57 -40 65 -6 8 -25 40 -41 70 -16 30 -31 57 -34 60 -6 5 -66
107 -109 183 -46 82 -60 105 -99 170 -23 37 -42 72 -42 77 0 6 -4 10 -8 10 -5
0 -14 16 -22 35 -8 19 -17 35 -22 35 -4 0 -8 4 -8 10 0 5 -19 40 -42 77 -22
38 -53 88 -67 113 -14 25 -62 108 -106 183 -44 76 -87 150 -95 165 -8 15 -17
29 -20 32 -3 3 -11 15 -18 28 -7 12 -66 114 -132 227 -66 112 -120 209 -120
214 0 5 -4 11 -8 13 -7 3 -26 35 -103 168 -8 14 -16 27 -19 30 -3 3 -16 26
-29 53 -13 26 -28 47 -33 47 -4 0 -8 6 -8 14 0 8 -8 22 -17 32 -10 10 -17 19
-16 21 4 8 -10 43 -18 43 -5 0 -9 7 -9 15 0 8 -4 15 -10 15 -5 0 -10 6 -10 13
0 7 -6 19 -12 26 -7 6 -13 15 -13 19 0 4 -21 42 -48 84 -26 41 -47 81 -47 87
0 6 -3 11 -8 11 -4 0 -18 21 -32 48 -14 26 -54 97 -90 157 -36 61 -72 124 -80
140 -8 17 -18 32 -21 35 -3 3 -50 82 -105 175 -54 94 -103 173 -108 177 -6 4
-7 8 -3 8 5 0 0 12 -11 28 -29 40 -72 114 -79 135 -3 9 -9 17 -14 17 -5 0 -9
5 -9 11 0 6 -26 54 -58 108 -32 53 -61 104 -65 114 -3 9 -11 17 -17 17 -5 0
-10 6 -10 13 0 13 -101 191 -141 249 -11 15 -19 32 -19 37 0 5 -6 16 -13 23
-7 7 -18 24 -24 38 -7 14 -44 77 -82 140 -38 63 -84 142 -102 175 -17 33 -35
62 -39 65 -4 3 -19 28 -34 55 -28 52 -31 57 -83 142 -18 30 -33 56 -33 58 0 3
-12 24 -27 48 -15 23 -37 60 -48 82 -12 22 -46 81 -77 130 -30 50 -66 111 -80
136 -48 86 -53 94 -59 99 -4 3 -10 15 -13 28 l-8 23 167 -3 167 -3 22 -40z
m1902 31 c5 -6 21 -31 35 -56 13 -25 27 -46 32 -48 4 -2 7 -10 7 -18 0 -8 5
-14 12 -14 6 0 9 -3 6 -6 -4 -3 18 -46 48 -95 30 -48 54 -93 54 -99 0 -5 5
-10 10 -10 6 0 10 -4 10 -9 0 -6 31 -62 69 -125 38 -64 66 -116 63 -116 -4 0
-2 -4 3 -8 13 -9 85 -130 85 -143 0 -5 3 -9 8 -9 4 0 18 -21 32 -47 13 -27 35
-66 49 -88 13 -22 23 -40 20 -40 -2 0 2 -7 9 -15 16 -19 113 -180 120 -200 3
-8 11 -22 17 -30 7 -8 24 -35 37 -60 14 -25 39 -68 56 -96 18 -28 32 -56 32
-63 0 -6 5 -11 10 -11 6 0 10 -5 10 -10 0 -6 12 -29 27 -53 15 -23 33 -53 40
-67 7 -14 21 -38 32 -55 20 -32 56 -95 78 -135 8 -14 38 -65 68 -114 30 -49
55 -93 55 -97 0 -5 5 -9 10 -9 6 0 9 -3 8 -7 -2 -7 85 -162 130 -233 9 -14 15
-28 14 -32 -1 -5 2 -8 8 -8 5 0 10 -7 10 -15 0 -8 4 -15 8 -15 4 0 13 -12 20
-27 6 -16 20 -41 30 -58 25 -40 55 -89 90 -150 56 -98 69 -121 110 -188 23
-37 42 -72 42 -77 0 -6 5 -10 11 -10 5 0 8 -4 5 -9 -3 -5 1 -14 9 -21 8 -7 15
-19 15 -26 0 -8 4 -14 9 -14 5 0 11 -8 14 -17 11 -31 126 -225 139 -234 6 -3
9 -10 9 -15 -2 -9 105 -195 140 -246 11 -15 19 -29 19 -32 0 -5 41 -75 212
-363 43 -73 78 -135 78 -138 0 -4 14 -26 30 -50 17 -24 30 -46 30 -49 0 -2 22
-41 50 -86 27 -45 50 -85 50 -88 0 -4 9 -18 20 -32 11 -14 20 -33 20 -42 0
-18 -67 -139 -83 -149 -5 -3 -9 -10 -9 -15 0 -5 -15 -35 -34 -67 -19 -32 -34
-62 -34 -67 0 -4 -3 -10 -7 -12 -5 -1 -18 -21 -30 -43 -28 -50 -38 -53 -54
-15 -8 16 -17 30 -21 30 -5 0 -8 4 -8 9 0 4 -43 82 -96 172 -53 90 -104 177
-113 194 -9 16 -22 35 -29 43 -7 7 -10 17 -7 22 3 5 2 10 -3 12 -10 4 -172
276 -172 288 0 6 -4 10 -10 10 -5 0 -10 6 -10 13 0 6 -18 40 -40 75 -22 34
-40 67 -40 72 0 6 -5 10 -11 10 -5 0 -7 4 -4 10 3 6 2 10 -2 10 -5 0 -19 19
-31 43 -12 23 -35 65 -52 92 -17 28 -33 57 -37 65 -4 8 -10 17 -13 20 -4 3
-20 30 -37 60 -40 74 -57 103 -147 254 -42 70 -76 132 -76 136 0 5 -3 10 -7
12 -5 2 -17 19 -27 38 -28 51 -152 263 -205 350 -25 41 -46 77 -46 80 -1 3
-13 24 -28 47 -15 24 -27 45 -27 48 0 2 -16 29 -35 59 -19 30 -35 58 -35 62 0
4 -6 15 -14 23 -7 9 -25 36 -38 61 -14 25 -62 107 -107 184 -44 76 -81 142
-81 147 0 5 -3 9 -8 9 -4 0 -18 21 -32 48 -13 26 -35 65 -49 87 -14 22 -24 43
-23 48 1 4 -1 7 -6 7 -4 0 -16 17 -27 38 -11 20 -22 39 -25 42 -3 3 -12 19
-20 35 -8 17 -36 65 -62 108 -27 43 -48 80 -48 83 0 2 -16 28 -35 58 -19 30
-35 58 -35 61 0 3 -22 40 -48 83 -27 42 -60 98 -74 123 -47 84 -53 94 -59 99
-4 3 -9 15 -13 28 -4 12 -12 22 -17 22 -5 0 -9 5 -9 10 0 13 -182 324 -192
328 -5 2 -8 8 -8 14 0 11 -137 248 -182 316 -16 23 -26 42 -22 42 4 0 0 8 -8
18 -9 9 -32 47 -51 83 l-36 66 232 0 c151 -1 236 -4 243 -11z m1929 -11 c5
-11 37 -65 70 -120 33 -55 58 -103 57 -107 -1 -5 2 -8 7 -8 5 0 12 -8 15 -17
3 -10 12 -27 19 -38 52 -85 117 -198 117 -206 0 -5 5 -9 10 -9 6 0 10 -4 10
-9 0 -4 19 -41 43 -80 23 -40 49 -84 58 -99 25 -42 154 -264 170 -292 8 -14
16 -27 19 -30 7 -7 30 -46 55 -95 12 -22 36 -62 53 -90 17 -27 32 -56 32 -62
0 -7 4 -13 8 -13 5 0 17 -18 27 -40 10 -22 22 -40 27 -40 4 0 8 -4 8 -9 0 -5
46 -87 101 -183 94 -159 112 -191 151 -259 7 -13 15 -26 18 -29 3 -3 11 -16
18 -29 35 -61 54 -94 117 -201 37 -63 75 -128 84 -145 9 -16 18 -32 21 -35 3
-3 12 -17 20 -32 8 -15 44 -77 80 -138 36 -61 70 -119 75 -129 6 -10 16 -25
22 -32 6 -8 14 -25 18 -37 6 -21 4 -23 -21 -20 -23 3 -31 -4 -56 -47 -15 -27
-31 -58 -34 -67 -4 -10 -10 -18 -15 -18 -5 0 -8 -3 -7 -7 2 -5 -13 -33 -32
-63 -19 -30 -40 -66 -47 -80 -6 -14 -19 -34 -27 -44 -15 -19 -17 -19 -29 -2
-7 10 -24 39 -37 64 -14 26 -27 49 -31 52 -3 3 -16 25 -30 50 -13 25 -27 47
-31 48 -5 2 -8 8 -8 12 0 5 -27 54 -60 109 -33 55 -60 105 -60 111 0 5 -4 10
-9 10 -5 0 -11 8 -14 18 -6 17 -22 44 -96 167 -23 37 -41 68 -41 70 0 2 -18
33 -41 70 -22 37 -49 82 -59 100 -10 18 -24 43 -32 56 -7 13 -17 27 -23 31 -7
5 -7 8 0 8 6 0 6 3 -1 8 -5 4 -23 30 -38 57 -53 93 -57 100 -76 130 -10 17
-31 53 -46 80 -14 28 -29 52 -33 55 -4 3 -18 26 -31 53 -14 26 -29 47 -33 47
-5 0 -5 5 -2 10 3 6 1 10 -5 10 -6 0 -8 5 -5 10 3 6 1 10 -4 10 -6 0 -11 4
-11 9 0 5 -24 48 -53 97 -29 49 -56 96 -60 104 -5 8 -13 24 -20 35 -44 73 -94
158 -120 205 -16 30 -35 62 -42 70 -20 26 -95 158 -95 168 0 6 -4 12 -8 14 -8
3 -77 118 -110 183 -9 17 -20 35 -24 40 -5 6 -48 78 -95 160 -48 83 -92 153
-97 157 -6 4 -8 8 -4 8 4 0 -15 36 -42 81 -28 44 -50 84 -50 89 0 5 -3 10 -7
12 -5 2 -20 26 -35 54 l-27 51 237 -1 c226 -1 237 -2 247 -21z"/>
</g>
</svg>
